{"glyphs":{"0":{"ha":1169,"x_min":0,"x_max":0,"o":"m 322 515 b 342 624 322 554 329 591 b 399 713 356 658 375 688 b 484 772 423 738 451 757 b 590 794 517 787 552 794 b 697 772 628 794 664 787 b 783 713 731 757 759 738 b 840 624 807 688 826 658 b 861 515 854 591 861 554 b 840 406 861 476 854 440 b 783 318 826 372 807 343 b 697 259 759 293 731 273 b 590 238 664 245 628 238 b 484 259 552 238 517 245 b 399 318 451 273 423 293 b 342 406 375 343 356 372 b 322 515 329 440 322 476 z m 60 514 b 101 308 60 441 74 372 b 215 140 129 243 167 187 b 383 26 262 92 319 54 b 590 -15 448 -1 517 -15 b 797 26 663 -15 732 -1 b 965 140 861 54 917 92 b 1079 308 1013 187 1051 243 b 1121 514 1107 372 1121 441 b 1079 722 1121 588 1107 657 b 965 890 1051 786 1013 842 b 797 1004 917 938 861 976 b 590 1046 732 1032 663 1046 b 383 1004 517 1046 448 1032 b 215 890 319 976 262 938 b 101 722 167 842 129 786 b 60 514 74 657 60 588 z "},"1":{"ha":521,"x_min":0,"x_max":0,"o":"m 44 925 l 44 763 b 69 731 44 741 53 731 b 85 733 72 731 77 731 l 172 767 l 172 29 b 179 9 172 22 175 15 b 203 0 184 3 192 0 l 400 0 b 433 31 422 0 433 10 l 433 1000 b 424 1023 433 1010 430 1018 b 400 1031 417 1028 409 1031 l 271 1031 b 231 1028 252 1031 239 1030 b 197 1018 222 1027 211 1024 l 75 968 b 44 925 55 956 44 942 z "},"2":{"ha":896,"x_min":0,"x_max":0,"o":"m 293 710 l 294 711 b 338 782 302 738 316 762 b 418 813 360 802 387 813 b 510 772 457 813 488 799 b 544 676 533 744 544 713 b 538 647 544 667 542 657 b 519 618 534 637 528 627 l 96 157 b 92 139 93 151 92 145 l 92 35 b 103 10 92 25 95 17 b 126 0 110 3 118 0 l 767 0 b 790 11 776 0 784 4 b 799 35 796 19 799 26 l 799 197 b 790 220 799 207 796 215 b 767 228 784 225 776 228 l 454 228 b 624 408 525 302 581 362 b 725 525 667 453 701 493 b 774 615 749 557 765 587 b 786 711 782 642 786 674 l 785 711 b 751 846 783 760 772 805 b 670 952 730 887 703 922 b 559 1022 637 982 600 1006 b 433 1047 518 1039 476 1047 b 323 1029 395 1047 359 1041 b 222 975 287 1017 254 999 b 147 893 192 951 166 924 b 97 799 127 863 110 831 b 92 775 94 789 92 781 b 95 759 92 769 93 764 b 114 746 97 754 104 750 l 217 708 b 244 699 227 705 236 701 b 267 694 252 696 259 694 b 281 697 271 694 276 695 b 293 710 285 698 289 702 z "},"3":{"ha":832,"x_min":0,"x_max":0,"o":"m 389 204 b 311 231 361 204 335 213 b 243 317 287 249 264 278 b 228 332 238 325 233 330 b 215 335 224 334 220 335 b 192 329 208 335 200 333 b 167 319 184 325 176 322 l 53 282 b 35 269 44 279 38 275 b 31 254 32 264 31 259 b 38 229 31 245 33 237 b 169 51 62 154 106 95 b 407 -15 233 7 313 -15 b 548 10 457 -15 504 -7 b 663 81 592 28 630 51 b 741 188 696 111 722 147 b 769 321 760 228 769 273 b 756 413 769 356 765 387 b 720 481 747 438 735 461 b 667 535 705 501 687 519 b 606 581 647 550 627 566 b 662 658 627 603 646 629 b 686 756 678 688 686 720 b 669 852 686 790 680 822 b 622 933 657 882 641 909 b 551 995 602 957 578 978 b 465 1032 525 1012 496 1025 l 465 1032 b 396 1040 442 1038 419 1040 b 226 992 333 1040 276 1024 b 103 872 176 959 135 919 b 92 843 95 865 92 855 b 94 833 92 839 93 836 b 108 821 96 829 101 825 l 196 764 b 223 745 206 756 215 750 b 247 738 231 740 239 738 b 267 751 254 738 260 742 b 294 781 274 761 283 771 b 331 811 304 792 317 802 b 382 825 344 820 362 825 b 422 817 398 825 411 822 b 447 795 432 811 441 804 b 461 766 454 786 458 777 b 465 736 464 755 465 745 b 460 713 465 730 464 722 b 445 685 457 703 452 694 b 419 663 438 677 429 669 b 381 654 408 657 395 654 b 351 625 361 654 351 644 b 351 548 351 599 351 573 b 350 471 350 522 350 497 b 359 450 350 461 353 454 b 381 444 365 446 372 444 l 383 444 b 481 409 425 444 458 433 b 517 325 505 385 517 357 b 478 233 517 283 504 253 b 389 204 453 214 423 204 z "},"4":{"ha":886,"x_min":0,"x_max":0,"o":"m 61 156 l 501 156 l 501 31 b 532 0 501 10 512 0 l 706 0 b 739 31 728 0 739 10 l 739 156 l 822 156 b 847 166 832 156 841 159 b 856 188 853 173 856 180 l 856 361 b 846 385 856 372 852 380 b 822 393 839 391 831 393 l 739 393 l 739 1000 b 728 1022 739 1009 735 1017 b 707 1031 722 1028 714 1031 l 553 1031 b 523 1027 539 1031 529 1029 b 507 1013 517 1025 512 1020 l 35 236 b 26 215 31 231 28 224 b 24 193 25 207 24 200 b 33 167 24 183 27 174 b 61 156 39 159 48 156 z m 511 392 l 371 392 l 511 631 z "},"5":{"ha":839,"x_min":0,"x_max":0,"o":"m 50 288 b 51 274 50 283 50 278 b 56 261 52 270 54 266 b 103 156 67 224 83 189 b 178 68 124 122 149 93 b 278 8 208 43 241 23 b 400 -14 316 -6 356 -14 l 400 -15 b 538 13 448 -15 494 -6 b 655 89 582 31 621 56 b 736 203 689 121 716 159 b 767 344 756 246 767 294 b 742 474 767 389 758 432 b 671 585 725 515 701 552 b 560 663 640 617 603 643 b 415 692 516 682 468 692 b 374 690 402 692 389 691 b 333 685 360 688 346 687 l 343 797 l 685 797 b 710 808 696 797 704 801 b 719 832 716 815 719 823 b 720 915 719 860 720 887 b 721 997 721 942 721 969 b 688 1032 721 1020 710 1032 l 632 1032 l 625 1032 l 163 1032 b 129 997 140 1032 129 1020 b 106 747 122 913 114 829 b 81 496 97 664 89 580 b 92 466 81 481 85 471 b 121 458 98 461 108 458 l 242 458 b 288 460 260 458 275 459 b 320 466 300 462 310 464 b 349 472 330 468 340 470 b 382 474 359 473 370 474 b 437 463 401 474 420 470 b 482 435 454 456 469 447 b 513 392 495 423 505 408 b 525 339 521 375 525 357 b 514 281 525 317 521 297 b 485 242 506 265 497 252 b 444 221 473 233 459 225 b 396 214 428 216 413 214 b 351 226 381 214 366 218 b 312 256 337 234 323 244 b 281 295 300 268 290 281 b 264 335 272 309 267 323 b 246 349 260 344 254 349 b 239 347 243 349 241 348 l 72 307 b 50 288 58 305 51 299 z "},"6":{"ha":860,"x_min":0,"x_max":0,"o":"m 67 297 b 105 171 71 251 84 209 b 184 73 126 133 152 100 b 294 9 216 46 253 24 b 426 -14 336 -6 380 -14 b 569 14 477 -14 525 -5 b 684 90 613 32 651 58 b 762 201 717 122 743 159 b 790 339 781 244 790 290 b 765 467 790 384 782 427 b 698 574 749 508 726 543 b 597 651 670 605 636 631 b 472 688 558 671 517 683 b 510 754 486 713 499 735 b 544 816 521 774 532 794 b 587 891 556 838 571 863 b 647 997 603 919 623 955 b 650 1006 648 998 649 1001 b 651 1015 651 1010 651 1013 b 625 1031 651 1025 643 1031 l 428 1031 b 399 1023 416 1031 406 1028 b 382 1000 392 1018 387 1010 l 108 514 b 64 344 79 462 64 406 l 64 321 b 67 297 64 313 65 305 z m 307 336 b 339 428 307 372 318 403 b 424 467 360 454 388 467 b 510 428 460 467 488 454 b 542 336 531 403 542 372 b 510 244 542 299 531 268 b 424 207 488 219 460 207 b 339 244 388 207 360 219 b 307 336 318 268 307 299 z "},"7":{"ha":888,"x_min":0,"x_max":0,"o":"m 833 1032 l 103 1032 b 81 1023 94 1032 87 1029 b 71 1000 74 1017 71 1009 l 71 818 b 80 794 71 807 74 799 b 103 786 86 789 94 786 l 479 786 l 85 31 b 82 18 83 23 82 19 b 107 0 82 6 90 0 l 326 0 b 365 24 344 0 357 8 b 612 490 448 180 530 336 b 860 957 694 645 776 800 b 869 974 863 963 866 968 b 872 993 871 980 872 987 b 863 1020 872 1003 869 1012 b 833 1032 856 1028 846 1032 z "},"8":{"ha":861,"x_min":0,"x_max":0,"o":"m 358 747 b 379 799 358 768 365 785 b 432 821 393 814 411 821 b 484 799 452 821 470 814 b 506 747 498 785 506 768 b 484 694 506 726 498 708 b 432 674 470 681 452 674 b 379 694 411 674 393 681 b 358 747 365 708 358 726 z m 313 342 b 344 429 313 375 323 404 b 431 467 366 454 394 467 b 514 429 466 467 494 454 b 544 342 534 404 544 375 b 513 255 544 307 534 278 b 431 219 491 231 464 219 b 345 255 395 219 367 231 b 313 342 323 278 313 307 z m 60 339 b 87 199 60 288 69 241 b 163 88 105 156 130 119 b 281 14 196 56 235 31 b 431 -12 326 -4 376 -12 b 580 15 485 -12 535 -3 b 696 88 625 33 663 57 b 772 199 728 119 753 156 b 799 336 790 241 799 287 b 764 480 799 389 787 437 b 669 592 741 523 709 560 b 710 669 686 614 700 640 b 725 757 720 698 725 727 b 701 867 725 796 717 833 b 638 958 686 902 664 932 b 544 1020 611 984 579 1005 b 431 1043 508 1035 470 1043 b 317 1020 391 1043 353 1035 b 224 958 282 1005 250 984 b 160 867 197 932 176 902 b 138 757 145 833 138 796 b 152 670 138 728 142 699 b 190 592 162 641 175 615 b 96 484 151 562 120 526 b 60 339 72 442 60 394 z "},"9":{"ha":840,"x_min":0,"x_max":0,"o":"m 768 733 b 730 860 763 780 751 822 b 651 958 709 898 683 930 b 540 1022 619 985 582 1006 b 407 1044 499 1037 454 1044 b 265 1017 357 1044 310 1035 b 149 941 221 998 182 973 b 72 829 116 909 91 872 b 43 692 53 787 43 741 b 68 563 43 646 51 603 b 136 456 85 523 107 487 b 238 380 165 425 199 400 b 363 343 276 360 318 348 b 325 276 349 318 336 296 b 290 215 314 257 302 236 b 248 140 278 193 264 168 b 188 33 232 111 212 76 b 184 24 186 31 184 28 b 183 15 184 20 183 17 b 210 0 183 5 192 0 l 407 0 b 435 8 419 0 428 3 b 453 31 442 13 448 20 l 726 517 b 771 689 756 569 771 626 b 770 711 771 696 771 704 b 768 733 770 719 769 726 z m 525 694 b 493 602 525 658 514 628 b 407 564 472 577 443 564 b 321 602 371 564 342 577 b 289 694 300 628 289 658 b 321 787 289 731 300 762 b 407 824 342 811 371 824 b 493 787 443 824 472 811 b 525 694 514 762 525 731 z "},"\u0000":{"ha":0,"x_min":0,"x_max":0,"o":""},"\r":{"ha":347,"x_min":0,"x_max":0,"o":""}," ":{"ha":435,"x_min":0,"x_max":0,"o":""},"!":{"ha":460,"x_min":0,"x_max":0,"o":"m 115 1071 l 115 364 b 127 341 115 354 119 346 b 150 333 135 336 143 333 l 331 333 b 361 364 351 333 361 344 l 361 1071 b 331 1101 361 1091 351 1101 l 150 1101 b 115 1071 127 1101 115 1091 z m 113 113 b 149 23 113 77 125 47 b 238 -14 174 -2 203 -14 b 328 23 274 -14 304 -2 b 364 113 352 47 364 77 b 328 202 364 148 352 178 b 238 239 304 227 274 239 b 149 202 203 239 174 227 b 113 113 125 178 113 148 z "},"\"":{"ha":714,"x_min":0,"x_max":0,"o":"m 94 1000 l 94 767 b 125 736 94 746 105 736 l 261 736 b 292 767 281 736 292 746 l 292 1000 b 261 1031 292 1020 281 1031 l 125 1031 b 94 1000 105 1031 94 1020 z m 424 1000 l 424 767 b 454 736 424 746 434 736 l 590 736 b 621 767 611 736 621 746 l 621 1000 b 590 1031 621 1020 611 1031 l 454 1031 b 424 1000 434 1031 424 1020 z "},"#":{"ha":875,"x_min":0,"x_max":0,"o":"m 796 785 l 696 785 l 714 1000 b 705 1022 715 1009 712 1017 b 683 1031 698 1028 691 1031 l 558 1031 b 535 1022 548 1031 540 1028 b 525 1000 529 1016 526 1008 l 507 785 l 406 785 l 424 1000 b 415 1022 425 1009 422 1017 b 393 1031 408 1028 400 1031 l 268 1031 b 244 1022 258 1031 250 1028 b 235 1000 239 1016 236 1008 l 217 785 l 131 785 b 97 754 110 785 99 775 l 88 629 b 114 596 85 607 94 596 l 200 596 l 186 433 l 100 433 b 68 403 81 433 70 423 l 57 278 b 85 244 54 256 63 244 l 169 244 l 151 31 b 179 0 150 10 160 0 l 306 0 b 342 31 327 0 339 10 l 360 244 l 460 244 l 442 31 b 469 0 441 10 450 0 l 596 0 b 632 31 617 0 629 10 l 650 244 l 749 244 b 773 256 759 244 767 248 b 782 278 779 263 782 270 l 793 403 b 786 426 794 413 792 421 b 765 433 781 431 774 433 l 665 433 l 679 596 l 779 596 b 802 607 788 596 796 600 b 813 629 808 614 812 622 l 824 754 b 817 777 825 764 822 772 b 796 785 811 782 804 785 z m 375 433 l 389 596 l 490 596 l 476 433 z "},"$":{"ha":893,"x_min":0,"x_max":0,"o":"m 233 332 b 204 349 221 343 212 349 b 181 339 198 349 190 345 l 60 224 b 44 197 50 213 44 205 b 50 183 44 191 46 186 b 65 164 54 181 59 174 l 68 163 b 194 60 103 124 145 90 b 349 -3 242 31 294 10 l 349 -104 b 379 -135 349 -125 359 -135 l 510 -135 b 543 -104 532 -135 543 -125 l 543 -4 b 666 36 588 4 628 18 b 763 106 703 55 736 78 b 826 203 789 134 810 167 b 849 322 841 240 849 280 b 824 445 849 370 840 411 b 753 533 807 479 784 508 b 646 596 723 557 688 578 b 510 647 604 613 559 631 b 394 693 459 664 420 679 b 356 753 369 707 356 727 b 389 808 356 780 367 798 b 468 824 411 819 438 824 b 552 801 498 824 526 816 b 619 754 578 785 601 770 l 626 749 b 644 735 633 743 639 738 b 661 729 649 731 655 729 b 685 740 669 729 677 733 l 792 854 b 810 888 804 868 810 879 b 785 930 810 900 801 914 b 720 977 768 946 747 962 b 634 1019 694 992 665 1006 b 543 1046 603 1032 573 1041 l 543 1139 b 532 1161 543 1148 539 1156 b 510 1169 525 1167 517 1169 l 379 1169 b 356 1160 369 1169 361 1166 b 349 1139 351 1154 349 1147 l 349 1043 b 158 947 267 1027 203 995 b 89 767 112 898 89 838 b 172 565 89 685 116 618 b 422 428 227 513 310 467 b 467 412 435 423 450 418 b 516 390 484 406 501 398 b 556 360 531 381 544 371 b 572 321 567 349 572 336 b 547 253 572 295 564 272 b 449 224 529 233 497 224 b 376 237 424 224 399 228 b 306 274 352 246 329 258 b 264 306 290 285 276 296 b 233 332 252 317 242 325 z "},"%":{"ha":1376,"x_min":0,"x_max":0,"o":"m 65 793 b 86 689 65 756 72 721 b 143 603 100 656 119 628 b 228 546 167 579 195 560 b 332 525 260 532 295 525 b 436 546 369 525 404 532 b 522 603 469 560 497 579 b 579 689 546 628 565 656 b 600 793 593 721 600 756 b 579 897 600 830 593 865 b 522 982 565 930 546 958 b 436 1039 497 1006 469 1025 b 332 1060 404 1053 369 1060 b 228 1039 295 1060 260 1053 b 143 982 195 1025 167 1006 b 86 897 119 958 100 930 b 65 793 72 865 65 830 z m 778 251 b 799 147 778 214 785 180 b 856 63 813 115 831 87 b 940 6 880 38 908 19 b 1044 -15 973 -8 1007 -15 b 1149 6 1081 -15 1116 -8 b 1234 63 1181 19 1209 38 b 1292 147 1259 87 1278 115 b 1313 251 1306 180 1313 214 b 1286 356 1313 288 1304 323 b 1217 441 1269 388 1245 416 b 1119 499 1188 466 1156 485 b 1010 519 1083 513 1047 519 b 911 499 973 519 940 513 b 838 441 882 485 858 466 b 793 356 818 416 803 388 b 778 251 783 323 778 288 z m 788 1000 l 349 31 b 347 21 348 27 347 24 b 346 18 346 20 346 19 b 375 0 346 6 356 0 l 540 0 b 563 6 550 0 558 2 b 578 31 567 10 572 19 l 1017 1000 b 1018 1010 1018 1001 1018 1004 b 1008 1026 1018 1017 1015 1022 b 982 1031 1001 1029 992 1031 l 832 1031 b 803 1022 820 1031 810 1028 b 788 1000 797 1016 791 1008 z m 965 251 b 988 308 965 274 973 292 b 1044 331 1003 323 1022 331 b 1099 310 1064 331 1082 324 b 1125 251 1116 297 1125 277 b 1101 195 1125 229 1117 210 b 1044 172 1086 180 1067 172 b 988 195 1022 172 1003 180 b 965 251 973 210 965 229 z m 251 793 b 274 851 251 816 259 835 b 332 874 290 866 309 874 b 390 851 355 874 374 866 b 413 793 405 835 413 816 b 390 735 413 770 405 750 b 332 711 374 719 355 711 b 274 735 309 711 290 719 b 251 793 259 750 251 770 z "},"&":{"ha":1246,"x_min":0,"x_max":0,"o":"m 904 499 l 603 557 b 597 558 602 558 600 558 b 571 535 582 558 574 550 b 554 459 565 509 560 484 b 539 383 549 434 544 409 b 538 376 538 382 538 380 b 543 359 538 370 539 364 b 560 349 547 354 552 350 l 603 339 b 558 246 601 297 586 266 b 461 215 529 225 497 215 b 393 229 433 215 411 220 b 351 265 375 238 362 250 b 330 310 341 279 334 294 b 324 356 326 327 324 342 b 327 384 324 363 325 372 b 339 417 329 396 333 407 b 361 445 344 428 352 437 b 397 457 370 453 382 457 b 408 456 401 457 404 457 b 418 456 411 456 414 456 b 434 460 424 456 429 457 b 444 479 439 464 443 470 l 471 610 b 472 617 472 612 472 614 b 447 644 472 632 464 642 b 412 662 433 647 422 653 b 388 691 402 671 394 680 b 376 722 382 702 378 712 b 372 743 373 731 372 738 b 375 770 372 751 373 760 b 387 798 377 780 381 789 b 411 819 393 807 401 814 b 451 828 421 825 435 828 b 513 806 481 828 501 821 b 529 750 524 792 529 773 b 560 724 529 732 539 724 l 701 724 b 724 732 710 724 717 726 b 733 757 730 738 733 746 b 709 890 733 810 725 854 b 644 978 693 926 671 956 b 549 1028 616 1001 585 1018 b 438 1043 514 1038 476 1043 b 326 1022 399 1043 361 1036 b 231 963 290 1007 259 988 b 166 874 204 938 182 908 b 142 763 150 839 142 802 b 163 663 142 726 149 693 b 215 583 176 632 194 606 b 113 480 173 555 138 520 b 74 315 87 440 74 385 b 103 184 74 268 84 224 b 185 80 123 144 150 109 b 303 12 219 51 259 28 b 446 -12 348 -4 396 -12 b 579 -1 490 -12 535 -9 b 701 42 624 6 664 20 b 793 134 737 63 768 94 b 838 292 818 174 833 227 l 883 283 b 929 279 899 281 914 279 b 1023 297 962 279 993 285 b 1104 345 1053 308 1080 324 b 1165 421 1128 366 1149 391 b 1199 519 1182 450 1193 483 b 1200 526 1200 521 1200 524 b 1192 549 1200 534 1197 541 b 1174 560 1187 556 1181 560 b 1097 575 1148 564 1122 569 b 1019 590 1071 581 1045 586 l 1013 590 b 997 585 1005 590 1000 588 b 990 571 994 581 992 576 b 963 521 986 552 977 536 b 913 499 950 506 933 499 z "},"'":{"ha":424,"x_min":0,"x_max":0,"o":"m 83 1000 l 83 746 b 114 715 83 725 94 715 l 250 715 b 281 746 270 715 281 725 l 281 1000 b 250 1031 281 1020 270 1031 l 114 1031 b 83 1000 94 1031 83 1020 z "},"(":{"ha":558,"x_min":0,"x_max":0,"o":"m 282 -176 b 299 -190 287 -184 292 -188 b 321 -183 306 -191 313 -189 l 486 -81 b 499 -62 494 -76 498 -70 b 493 -42 500 -55 498 -48 b 423 88 466 1 443 44 b 374 224 403 131 387 176 b 336 513 349 315 336 412 b 375 802 336 613 349 709 b 493 1068 401 895 440 984 b 499 1088 498 1074 500 1080 b 486 1107 498 1095 494 1101 l 321 1210 b 299 1215 313 1215 306 1217 b 282 1201 292 1213 287 1209 b 135 876 218 1100 169 992 b 85 513 102 761 85 639 b 135 149 85 386 102 264 b 282 -176 169 33 218 -75 z "},")":{"ha":560,"x_min":0,"x_max":0,"o":"m 271 -176 b 417 149 335 -75 384 33 b 468 513 451 264 468 386 b 417 876 468 639 451 761 b 271 1201 384 992 335 1100 b 249 1215 264 1213 257 1217 b 232 1210 242 1215 237 1213 l 67 1107 b 57 1097 62 1104 59 1101 b 54 1083 55 1092 54 1088 b 60 1068 54 1077 56 1072 b 178 802 113 984 152 895 b 217 513 204 709 217 613 b 60 -42 217 311 164 126 b 54 -58 56 -46 54 -52 b 67 -81 54 -69 58 -76 l 232 -183 b 249 -190 238 -188 244 -190 b 271 -176 257 -190 264 -186 z "},"*":{"ha":682,"x_min":0,"x_max":0,"o":"m 138 576 l 211 492 l 100 514 b 69 482 80 514 69 503 l 69 354 b 100 321 69 332 80 321 l 211 342 l 138 257 b 132 239 134 253 132 247 b 149 214 132 230 138 221 l 258 149 b 278 144 266 146 272 144 b 294 148 283 144 289 146 b 304 160 299 150 302 154 l 342 257 l 379 160 b 407 144 383 150 392 144 b 424 149 414 144 420 146 l 535 213 b 550 239 545 219 550 228 b 549 249 550 243 550 246 l 546 257 l 469 342 l 582 321 b 606 332 592 321 600 325 b 614 354 611 339 614 347 l 614 482 b 604 506 614 492 611 500 b 582 514 598 511 590 514 l 469 492 l 546 576 b 547 589 546 583 546 587 b 531 619 547 604 542 614 l 421 686 b 412 688 417 687 414 688 b 404 689 409 689 407 689 b 379 672 391 689 383 683 l 342 575 l 304 672 b 279 690 296 684 288 690 b 263 686 273 690 267 689 l 151 622 b 132 593 140 615 134 605 b 138 576 132 588 134 582 z "},"+":{"ha":625,"x_min":0,"x_max":0,"o":"m 43 490 l 43 349 b 74 315 43 326 53 315 l 200 315 l 200 181 b 211 158 200 171 204 164 b 233 150 219 153 226 150 l 389 150 b 412 159 399 150 407 153 b 419 181 417 165 419 172 l 419 315 l 547 315 b 569 326 556 315 564 319 b 578 349 575 334 578 341 l 578 490 b 569 513 578 500 575 508 b 547 521 563 518 556 521 l 419 521 l 419 654 b 389 685 419 675 409 685 l 233 685 b 200 654 211 685 200 675 l 200 521 l 74 521 b 43 490 53 521 43 511 z "},",":{"ha":424,"x_min":0,"x_max":0,"o":"m 83 110 b 115 28 83 80 94 53 b 190 -15 137 4 162 -11 l 190 -22 b 184 -53 190 -35 188 -46 b 169 -72 180 -61 175 -68 b 158 -91 165 -80 161 -86 b 154 -107 156 -96 154 -101 b 167 -131 154 -115 158 -123 l 199 -154 b 210 -160 203 -157 207 -159 b 221 -162 213 -162 216 -162 b 253 -147 229 -162 240 -157 b 290 -98 266 -136 278 -120 b 322 -16 302 -76 313 -49 b 335 100 330 17 335 56 b 299 199 335 142 323 175 b 208 236 276 224 245 236 b 120 200 174 236 145 224 b 83 110 96 176 83 146 z "},"-":{"ha":764,"x_min":0,"x_max":0,"o":"m 115 476 l 115 335 b 146 301 115 313 125 301 l 619 301 b 642 313 629 301 636 305 b 650 335 647 320 650 327 l 650 476 b 641 499 650 487 647 494 b 619 507 635 504 628 507 l 146 507 b 115 476 125 507 115 497 z "},".":{"ha":424,"x_min":0,"x_max":0,"o":"m 83 113 b 120 23 83 77 96 47 b 208 -14 145 -2 174 -14 b 299 23 244 -14 275 -2 b 335 113 323 47 335 77 b 299 202 335 148 323 178 b 208 239 275 227 244 239 b 120 202 174 239 145 227 b 83 113 96 178 83 148 z "},"/":{"ha":767,"x_min":0,"x_max":0,"o":"m 460 1000 l 22 31 b 21 21 21 27 21 24 b 19 18 20 20 19 19 b 47 0 19 6 29 0 l 256 0 b 278 6 266 0 273 2 b 292 31 282 10 287 19 l 731 1000 b 732 1010 731 1001 732 1004 b 722 1026 732 1017 728 1022 b 697 1031 715 1029 706 1031 l 504 1031 b 477 1022 493 1031 484 1028 b 460 1000 470 1016 464 1008 z "},":":{"ha":424,"x_min":0,"x_max":0,"o":"m 83 564 b 120 476 83 530 96 500 b 208 439 145 451 174 439 b 299 476 244 439 275 451 b 335 564 323 500 335 530 b 299 653 335 599 323 629 b 208 690 275 678 244 690 b 120 653 174 690 145 678 b 83 564 96 629 83 599 z m 83 113 b 120 23 83 77 96 47 b 208 -14 145 -2 174 -14 b 299 23 244 -14 275 -2 b 335 113 323 47 335 77 b 299 202 335 148 323 178 b 208 239 275 227 244 239 b 120 202 174 239 145 227 b 83 113 96 178 83 148 z "},";":{"ha":424,"x_min":0,"x_max":0,"o":"m 79 110 b 111 28 79 80 90 53 b 186 -15 132 4 157 -11 l 186 -22 b 180 -53 186 -35 184 -46 b 165 -72 176 -61 171 -68 b 154 -91 161 -80 157 -86 b 150 -107 151 -96 150 -101 b 163 -131 150 -115 154 -123 l 194 -154 b 206 -160 199 -157 203 -159 b 217 -162 208 -162 212 -162 b 249 -147 225 -162 236 -157 b 286 -98 262 -136 274 -120 b 317 -16 298 -76 309 -49 b 331 100 326 17 331 56 b 295 199 331 142 319 175 b 204 236 272 224 241 236 b 116 200 170 236 141 224 b 79 110 91 176 79 146 z m 83 564 b 120 653 83 599 96 629 b 208 690 145 678 174 690 b 299 653 244 690 275 678 b 335 564 323 629 335 599 b 299 474 335 529 323 499 b 208 438 275 450 244 438 b 120 474 174 438 145 450 b 83 564 96 499 83 529 z "},"<":{"ha":618,"x_min":0,"x_max":0,"o":"m 411 783 l 47 419 b 38 399 41 413 38 406 b 47 378 38 392 41 385 l 411 14 b 432 4 417 7 424 4 b 451 14 440 4 447 7 l 565 125 b 576 149 573 131 576 139 b 568 171 576 155 574 163 l 340 399 l 568 628 b 574 639 571 631 573 635 b 576 649 575 643 575 646 b 567 671 575 657 571 664 l 456 782 b 432 790 449 788 441 790 b 411 783 425 790 418 788 z "},"=":{"ha":764,"x_min":0,"x_max":0,"o":"m 115 342 l 115 201 b 146 168 115 179 125 168 l 619 168 b 642 179 629 168 636 172 b 650 201 647 187 650 194 l 650 342 b 641 365 650 352 647 359 b 619 372 635 370 628 372 l 146 372 b 115 342 125 372 115 362 z m 115 632 l 115 492 b 146 458 115 469 125 458 l 619 458 b 642 469 629 458 636 462 b 650 492 647 477 650 484 l 650 632 b 641 655 650 642 647 650 b 619 663 635 660 628 663 l 146 663 b 115 632 125 663 115 652 z "},">":{"ha":618,"x_min":0,"x_max":0,"o":"m 158 768 l 61 671 b 50 649 56 665 52 658 b 58 628 52 640 55 633 l 286 399 l 58 171 b 50 149 53 164 50 157 b 61 125 50 140 54 132 l 175 14 b 194 4 180 7 186 4 b 217 14 203 4 210 7 l 579 378 b 590 399 587 385 590 392 b 579 419 590 406 587 413 l 231 768 b 215 783 226 773 221 778 b 197 790 210 788 204 790 b 174 783 187 790 179 788 b 158 768 168 778 163 773 z "},"?":{"ha":789,"x_min":0,"x_max":0,"o":"m 267 411 l 267 349 b 301 314 267 325 278 314 l 475 314 b 513 349 500 314 513 325 l 513 406 b 535 453 515 424 523 440 b 578 490 547 466 561 478 b 631 527 594 501 612 514 b 683 577 650 541 668 557 b 723 650 699 597 712 621 b 739 757 734 679 739 714 b 711 892 739 806 730 851 b 636 1000 693 934 668 969 b 526 1072 605 1031 568 1054 b 390 1097 484 1089 438 1097 b 258 1073 344 1097 300 1089 b 146 1005 216 1057 178 1034 b 69 901 113 976 88 941 b 40 767 50 860 40 816 l 40 743 b 45 724 40 737 42 730 b 68 715 48 718 56 715 l 240 715 b 263 721 250 715 257 717 b 272 742 269 725 272 731 l 272 754 b 282 799 272 770 275 785 b 308 838 288 814 297 826 b 347 864 319 849 332 857 b 392 874 361 870 376 874 b 437 864 407 874 422 870 b 475 838 451 857 464 849 b 501 801 486 828 495 815 b 511 758 508 788 511 773 b 493 693 511 733 505 712 b 448 641 481 675 466 657 b 389 593 430 625 410 609 b 330 544 368 577 348 561 b 285 486 312 527 297 507 b 267 411 273 465 267 440 z m 261 108 b 298 20 261 74 273 45 b 386 -17 322 -4 352 -17 b 476 20 422 -17 452 -4 b 513 108 500 45 513 74 b 476 198 513 144 500 173 b 386 235 452 222 422 235 b 298 198 352 235 322 222 b 261 108 273 173 261 144 z "},"@":{"ha":1326,"x_min":0,"x_max":0,"o":"m 944 -79 b 819 -137 899 -106 857 -125 b 688 -156 781 -150 738 -156 b 490 -115 618 -156 552 -142 b 326 -3 428 -87 374 -50 b 215 163 279 44 242 100 b 174 367 187 227 174 294 b 238 614 174 458 195 541 b 422 799 280 687 342 749 b 701 876 509 850 602 876 b 874 847 763 876 820 867 b 1015 765 927 828 974 800 b 1110 638 1055 729 1087 687 b 1144 475 1133 588 1144 534 b 1138 374 1144 441 1142 407 b 1116 286 1133 341 1126 312 b 1081 223 1106 260 1094 239 b 1031 199 1067 207 1050 199 b 995 205 1015 199 1003 201 b 982 247 987 209 983 223 l 982 664 b 972 688 982 674 979 682 b 949 696 966 693 958 696 l 858 696 b 835 690 846 696 839 694 b 824 663 832 685 828 676 l 803 593 b 734 673 784 625 761 652 b 622 704 707 694 669 704 b 491 675 575 703 531 694 b 387 601 451 656 416 632 b 319 494 358 571 335 535 b 294 363 303 454 294 410 b 319 230 294 315 303 271 b 387 121 335 189 358 152 b 492 47 416 89 451 65 b 629 19 534 28 579 19 l 631 19 b 686 28 652 19 670 22 b 730 51 702 34 716 42 b 766 82 743 61 755 71 b 796 115 777 93 787 104 b 819 87 802 104 810 95 b 846 65 828 79 837 72 b 875 44 856 56 866 49 b 904 36 884 39 894 36 l 1001 36 b 1129 67 1050 36 1093 47 b 1220 157 1165 88 1196 118 b 1275 298 1245 196 1263 243 b 1293 485 1287 353 1293 415 b 1242 706 1293 565 1276 639 b 1108 878 1209 772 1164 830 b 917 990 1053 926 989 963 b 696 1032 846 1017 772 1031 b 434 978 603 1032 516 1014 b 221 833 352 943 281 894 b 78 619 161 772 113 701 b 25 360 43 538 25 451 b 77 101 25 268 42 182 b 220 -111 112 20 159 -51 b 433 -254 281 -171 352 -219 b 692 -308 514 -289 600 -307 b 869 -283 754 -308 813 -300 b 1031 -212 925 -267 979 -243 b 1040 -204 1034 -211 1038 -208 b 1044 -192 1043 -200 1044 -196 b 1040 -182 1044 -188 1043 -185 l 975 -86 b 958 -75 971 -79 966 -75 b 944 -79 956 -75 952 -76 z m 519 360 b 556 452 519 396 531 427 b 644 490 580 478 609 490 b 735 452 681 490 711 478 b 771 360 759 427 771 396 b 735 267 771 323 759 292 b 644 231 711 243 681 231 b 556 267 609 231 580 243 b 519 360 531 292 519 323 z "},"A":{"ha":1063,"x_min":0,"x_max":0,"o":"m 407 1000 l 31 31 b 50 0 22 10 29 0 l 257 0 b 299 31 278 0 292 10 l 346 167 l 725 167 l 774 31 b 814 0 780 10 794 0 l 1021 0 b 1040 31 1042 0 1049 10 l 661 1000 b 619 1031 655 1020 641 1031 l 450 1031 b 407 1000 430 1031 415 1020 z m 424 389 l 533 706 l 644 389 z "},"B":{"ha":979,"x_min":0,"x_max":0,"o":"m 110 999 l 110 29 b 140 0 110 10 120 0 l 621 0 b 737 25 662 0 700 8 b 833 92 773 42 806 64 b 899 192 861 121 883 154 b 924 311 916 230 924 269 b 894 445 924 358 914 403 b 815 554 874 487 848 524 b 878 732 857 603 878 663 b 854 849 878 774 870 813 b 790 944 838 885 817 916 b 696 1008 763 971 732 992 b 581 1031 660 1023 621 1031 l 140 1031 b 110 999 120 1031 110 1020 z m 649 322 b 618 242 649 293 638 266 b 542 206 598 218 572 206 l 379 206 l 379 438 l 542 438 b 585 427 557 438 572 434 b 618 401 598 420 609 411 b 640 364 627 390 635 378 b 649 322 646 350 649 336 z m 611 725 b 582 653 611 695 601 671 b 504 625 563 634 537 625 l 379 625 l 379 826 l 507 826 b 582 797 538 826 563 816 b 611 725 601 777 611 753 z "},"C":{"ha":978,"x_min":0,"x_max":0,"o":"m 749 290 b 685 256 730 277 709 266 b 604 240 661 245 634 240 b 497 262 565 240 529 247 b 411 321 464 276 435 296 b 355 409 387 346 368 375 b 335 518 341 443 335 479 b 355 626 335 557 341 593 b 411 713 368 660 387 689 b 497 771 435 738 464 757 b 604 792 529 785 565 792 b 682 780 633 792 659 788 b 751 740 705 772 728 759 b 774 730 759 734 766 730 b 794 740 782 729 789 733 l 915 914 b 918 932 918 919 919 925 b 906 950 917 939 913 945 b 773 1019 867 977 822 1000 b 604 1047 723 1038 667 1047 b 397 1006 531 1047 462 1034 b 227 893 332 979 276 941 b 113 725 178 845 140 789 b 71 518 85 661 71 592 b 113 311 71 445 85 376 b 227 141 140 246 178 190 b 397 26 276 92 332 54 b 604 -15 462 -1 531 -15 b 773 12 667 -15 723 -6 b 903 79 822 30 866 52 b 921 99 913 87 919 93 b 913 124 923 105 920 113 l 799 290 b 776 303 792 300 785 304 b 749 290 768 302 759 298 z "},"D":{"ha":1064,"x_min":0,"x_max":0,"o":"m 114 1000 l 114 31 b 143 0 114 10 124 0 l 504 0 b 705 42 575 0 642 14 b 868 156 767 71 822 109 b 978 321 914 204 951 259 b 1018 515 1005 383 1018 448 b 974 717 1018 587 1003 654 b 858 881 945 780 906 834 b 694 990 810 927 755 963 b 504 1031 632 1017 569 1031 l 143 1031 b 114 1000 124 1031 114 1020 z m 749 515 b 728 410 749 478 742 443 b 672 325 715 378 696 349 b 587 267 648 301 620 282 b 479 246 554 253 518 246 l 382 246 l 382 785 l 479 785 b 587 763 518 785 554 778 b 672 706 620 749 648 730 b 728 620 696 681 715 653 b 749 515 742 587 749 552 z "},"E":{"ha":938,"x_min":0,"x_max":0,"o":"m 111 1000 l 111 31 b 142 0 111 10 121 0 l 846 0 b 876 31 866 0 876 10 l 876 207 b 846 238 876 227 866 238 l 379 238 l 379 415 l 724 415 b 757 446 746 415 757 425 l 757 589 b 724 621 757 610 746 621 l 379 621 l 379 792 l 832 792 b 863 822 852 792 863 802 l 863 1000 b 832 1031 863 1020 852 1031 l 142 1031 b 111 1000 121 1031 111 1020 z "},"F":{"ha":869,"x_min":0,"x_max":0,"o":"m 117 1000 l 117 31 b 146 0 117 10 126 0 l 354 0 b 385 31 375 0 385 10 l 385 347 l 694 347 b 725 378 715 347 725 357 l 725 546 b 694 578 725 567 715 578 l 385 578 l 385 792 l 808 792 b 838 822 828 792 838 802 l 838 1000 b 808 1031 838 1020 828 1031 l 146 1031 b 117 1000 126 1031 117 1020 z "},"G":{"ha":1024,"x_min":0,"x_max":0,"o":"m 594 242 b 488 262 556 241 520 247 b 403 321 455 276 427 296 b 349 409 380 346 362 375 b 329 518 336 443 329 479 b 348 626 329 557 335 593 b 401 713 360 660 378 689 b 485 772 425 738 453 757 b 594 793 518 786 555 793 b 678 778 625 793 653 788 b 747 742 703 769 726 756 b 770 734 755 736 762 734 b 789 746 778 734 784 738 l 904 911 b 894 950 913 926 910 939 b 758 1022 852 981 806 1005 b 592 1046 710 1038 655 1046 b 385 1005 519 1046 450 1032 b 216 892 320 978 264 940 b 103 725 168 845 131 789 b 61 518 75 661 61 592 b 103 311 61 445 75 376 b 217 141 131 246 169 190 b 388 26 266 92 323 54 b 594 -15 452 -1 521 -15 b 774 8 657 -15 717 -8 b 924 71 831 23 881 44 b 940 103 935 78 940 89 l 940 439 b 930 464 940 452 937 460 b 910 469 923 468 916 469 l 724 469 b 693 439 703 469 693 459 l 693 256 b 644 245 678 251 662 247 b 594 242 626 243 609 242 z "},"H":{"ha":1115,"x_min":0,"x_max":0,"o":"m 729 425 l 729 31 b 760 0 729 10 739 0 l 964 0 b 997 31 986 0 997 10 l 997 1001 b 987 1026 997 1014 994 1022 b 968 1031 980 1029 974 1031 l 760 1031 b 737 1022 750 1031 742 1028 b 729 1000 732 1016 729 1008 l 729 671 l 381 671 l 381 1001 b 371 1026 381 1014 377 1022 b 351 1031 364 1029 358 1031 l 143 1031 b 121 1022 133 1031 125 1028 b 114 1000 116 1016 114 1008 l 114 31 b 143 0 114 10 124 0 l 347 0 b 381 31 369 0 381 10 l 381 425 z "},"I":{"ha":492,"x_min":0,"x_max":0,"o":"m 114 1000 l 114 31 b 143 0 114 10 124 0 l 351 0 b 382 31 372 0 382 10 l 382 1000 b 351 1031 382 1020 372 1031 l 143 1031 b 114 1000 124 1031 114 1020 z "},"J":{"ha":717,"x_min":0,"x_max":0,"o":"m 333 1003 l 333 314 b 308 259 333 293 325 274 b 250 236 291 244 271 236 b 213 244 235 236 223 239 b 186 261 202 249 194 255 b 165 278 179 268 172 273 b 146 286 159 284 152 286 b 133 283 141 286 137 285 b 122 275 130 280 126 278 l 1 161 b -10 135 -6 156 -10 148 b -8 124 -10 128 -9 125 b 110 20 22 78 62 44 b 264 -15 158 -3 209 -15 b 394 10 309 -15 353 -7 b 502 81 435 28 471 51 b 576 186 533 111 558 146 b 603 314 594 226 603 269 l 603 994 b 565 1031 603 1019 590 1031 l 360 1031 b 333 1003 342 1030 333 1020 z "},"K":{"ha":1061,"x_min":0,"x_max":0,"o":"m 654 588 l 986 999 b 994 1020 992 1006 994 1013 b 978 1031 994 1027 989 1031 l 728 1031 b 700 1028 717 1031 707 1030 b 676 1008 693 1026 685 1019 l 378 619 l 378 1000 b 365 1023 378 1010 373 1018 b 344 1031 356 1028 349 1031 l 139 1031 b 110 1000 119 1031 110 1020 l 110 31 b 139 0 110 10 119 0 l 347 0 b 378 31 368 0 378 10 l 378 260 l 479 383 l 707 31 b 725 8 713 20 719 13 b 750 0 731 3 740 0 l 1013 0 b 1022 32 1034 0 1037 11 z "},"L":{"ha":836,"x_min":0,"x_max":0,"o":"m 111 1000 l 111 31 b 140 0 111 10 121 0 l 764 0 b 793 31 783 0 793 10 l 793 215 b 764 246 793 236 783 246 l 378 246 l 378 1000 b 349 1031 378 1020 368 1031 l 140 1031 b 120 1023 133 1031 126 1028 b 111 1000 114 1018 111 1010 z "},"M":{"ha":1333,"x_min":0,"x_max":0,"o":"m 388 589 l 549 32 b 560 6 551 19 555 10 b 582 0 564 2 572 0 l 754 0 b 776 6 764 0 772 2 b 788 32 780 10 784 19 l 950 575 l 1007 31 b 1038 0 1008 10 1018 0 l 1235 0 b 1265 31 1256 0 1266 10 l 1161 1000 b 1131 1031 1160 1020 1150 1031 l 888 1031 b 867 1023 877 1031 871 1028 b 857 1000 864 1018 861 1010 l 668 376 l 479 1000 b 469 1023 475 1010 472 1018 b 449 1031 466 1028 459 1031 l 206 1031 b 175 1000 186 1031 176 1020 l 71 31 b 101 0 70 10 80 0 l 299 0 b 329 31 318 0 328 10 z "},"N":{"ha":1142,"x_min":0,"x_max":0,"o":"m 371 631 l 736 31 b 786 0 748 10 765 0 l 990 0 b 1024 31 1013 0 1024 10 l 1024 1000 b 1013 1022 1024 1009 1020 1017 b 990 1031 1005 1028 998 1031 l 797 1031 b 774 1022 787 1031 779 1028 b 765 1000 768 1016 765 1008 l 765 438 l 418 1000 b 368 1031 405 1020 388 1031 l 143 1031 b 121 1022 133 1031 125 1028 b 114 1000 116 1016 114 1008 l 114 31 b 143 0 114 10 124 0 l 338 0 b 371 31 360 0 371 10 z "},"O":{"ha":1183,"x_min":0,"x_max":0,"o":"m 332 515 b 351 622 332 553 338 589 b 406 710 364 656 382 685 b 489 769 429 735 456 754 b 594 790 521 783 556 790 b 700 769 632 790 668 783 b 783 710 732 754 760 735 b 838 622 806 685 825 656 b 857 515 850 589 857 553 b 838 407 857 476 850 440 b 783 320 825 374 806 345 b 700 262 760 296 732 276 b 594 240 668 247 632 240 b 489 262 556 240 521 247 b 406 320 456 276 429 296 b 351 407 382 345 364 374 b 332 515 338 440 332 476 z m 64 514 b 106 308 64 441 78 372 b 219 140 133 243 171 187 b 388 26 266 92 323 54 b 594 -15 452 -1 521 -15 b 801 26 668 -15 736 -1 b 969 140 865 54 921 92 b 1083 308 1018 187 1056 243 b 1125 514 1111 372 1125 441 b 1083 722 1125 588 1111 657 b 969 890 1056 786 1018 842 b 801 1004 921 938 865 976 b 594 1046 736 1032 668 1046 b 388 1004 521 1046 452 1032 b 219 890 323 976 266 938 b 106 722 171 842 133 786 b 64 514 78 657 64 588 z "},"P":{"ha":944,"x_min":0,"x_max":0,"o":"m 113 1000 l 113 31 b 142 0 113 10 122 0 l 347 0 b 379 31 369 0 379 10 l 379 360 l 592 360 b 721 388 639 360 682 369 b 821 464 760 407 793 432 b 885 571 849 495 870 531 b 908 693 901 611 908 651 b 885 817 908 736 900 777 b 819 925 869 858 847 894 b 717 1001 791 956 757 982 b 588 1031 678 1021 635 1031 l 142 1031 b 121 1023 133 1031 126 1028 b 113 1000 115 1018 113 1010 z m 379 811 l 529 811 b 574 801 546 811 561 808 b 608 774 588 794 599 785 b 628 736 616 763 623 750 b 636 694 634 722 636 708 b 608 615 636 665 627 638 b 529 579 590 591 563 579 l 379 579 z "},"Q":{"ha":1183,"x_min":0,"x_max":0,"o":"m 67 514 b 96 337 67 452 76 393 b 177 185 115 281 142 230 b 301 69 212 139 253 101 b 460 1 350 38 402 15 l 460 -187 b 490 -218 460 -208 470 -218 l 696 -218 b 729 -187 718 -218 729 -208 l 729 0 b 890 68 788 14 841 37 b 1015 183 938 100 980 138 b 1098 336 1050 229 1078 280 b 1128 514 1118 393 1128 452 b 1086 722 1128 588 1114 657 b 972 890 1058 786 1020 842 b 803 1004 924 938 868 976 b 597 1046 739 1032 670 1046 b 390 1004 524 1046 455 1032 b 222 890 325 976 269 938 b 108 722 174 842 136 786 b 67 514 81 657 67 588 z m 335 515 b 354 622 335 553 341 589 b 408 710 367 656 385 685 b 492 769 431 735 459 754 b 597 790 524 783 559 790 b 703 769 635 790 670 783 b 786 710 735 754 763 735 b 840 622 809 685 827 656 b 860 515 853 589 860 553 b 840 407 860 476 853 440 b 786 320 827 374 809 345 b 703 262 763 296 735 276 b 597 240 670 247 635 240 b 492 262 559 240 524 247 b 408 320 459 276 431 296 b 354 407 385 345 367 374 b 335 515 341 440 335 476 z "},"R":{"ha":976,"x_min":0,"x_max":0,"o":"m 113 1000 l 113 31 b 142 0 113 10 122 0 l 350 0 b 381 31 370 0 381 10 l 381 343 l 492 343 l 657 29 b 672 6 663 17 668 9 b 694 0 677 2 684 0 l 944 0 b 964 10 955 0 961 3 b 961 31 967 16 966 23 l 763 400 b 885 525 813 432 854 474 b 932 685 916 576 932 629 b 908 812 932 728 924 771 b 841 922 893 853 870 890 b 737 1001 812 955 777 981 b 603 1031 697 1021 652 1031 l 142 1031 b 119 1021 131 1031 124 1027 b 113 1000 115 1014 113 1007 z m 381 817 l 535 817 b 585 806 553 817 570 813 b 624 776 600 798 613 788 b 649 735 635 764 643 751 b 658 690 655 720 658 705 b 649 644 658 675 655 659 b 624 603 643 628 635 615 b 585 576 613 592 600 583 b 535 565 570 569 553 565 l 381 565 z "},"S":{"ha":911,"x_min":0,"x_max":0,"o":"m 240 332 b 211 349 228 343 219 349 b 188 339 205 349 197 345 l 67 224 b 51 197 56 213 51 205 b 67 169 51 190 56 181 b 69 167 68 169 69 168 b 72 164 70 167 71 166 l 75 163 b 151 93 97 138 123 114 b 244 38 180 72 211 53 b 346 0 277 22 311 9 b 453 -14 381 -9 417 -14 b 611 10 509 -14 562 -6 b 739 78 660 27 703 49 b 824 184 775 108 803 143 b 856 322 845 225 856 271 b 831 445 856 370 847 411 b 760 533 814 479 791 508 b 653 596 730 557 694 578 b 517 647 611 613 566 631 b 401 693 466 664 427 679 b 363 753 375 707 363 727 b 396 808 363 780 374 798 b 475 824 418 819 444 824 b 559 801 505 824 533 816 b 626 754 585 785 608 770 l 633 749 b 651 735 640 743 646 738 b 668 729 656 731 662 729 b 692 740 676 729 684 733 l 799 854 b 817 888 811 868 817 879 b 782 936 817 900 805 917 b 700 993 759 956 731 975 b 585 1039 663 1014 625 1030 b 464 1053 546 1048 506 1053 b 313 1033 408 1053 358 1046 b 197 975 267 1019 228 1000 b 122 885 165 950 140 920 b 96 767 105 850 96 810 b 178 565 96 685 123 618 b 429 428 234 513 317 467 b 474 412 442 423 457 418 b 523 390 491 406 508 398 b 563 360 538 381 551 371 b 579 321 574 349 579 336 b 553 253 579 295 571 272 b 456 224 536 233 504 224 b 383 237 431 224 406 228 b 313 274 359 246 336 258 b 271 306 297 285 283 296 b 240 332 259 317 249 325 z "},"T":{"ha":925,"x_min":0,"x_max":0,"o":"m 56 1000 l 56 824 b 86 793 56 803 66 793 l 331 793 l 331 31 b 361 0 331 10 341 0 l 561 0 b 593 31 582 0 593 10 l 593 793 l 839 793 b 869 824 859 793 869 803 l 869 1000 b 839 1031 869 1020 859 1031 l 86 1031 b 56 1000 66 1031 56 1020 z "},"U":{"ha":1076,"x_min":0,"x_max":0,"o":"m 378 411 l 378 1000 b 372 1022 378 1009 376 1017 b 347 1031 369 1028 360 1031 l 136 1031 b 116 1022 128 1031 121 1028 b 108 1000 111 1016 108 1008 l 108 415 b 144 213 108 336 120 268 b 241 80 169 158 201 114 b 381 6 281 46 328 22 b 547 -17 433 -9 489 -17 b 715 6 606 -17 661 -9 b 855 78 768 20 815 45 b 951 212 895 112 927 157 b 986 415 974 267 986 335 l 986 1000 b 977 1022 986 1008 983 1016 b 953 1031 971 1028 963 1031 l 750 1031 b 726 1022 740 1031 732 1028 b 718 1000 721 1016 718 1008 l 718 411 b 704 330 718 381 713 353 b 667 271 695 306 683 287 b 613 235 652 255 634 243 b 547 222 592 226 570 222 b 483 233 525 222 504 226 b 429 266 463 240 445 251 b 392 324 413 281 401 301 b 378 411 382 348 378 377 z "},"V":{"ha":1021,"x_min":0,"x_max":0,"o":"m 632 31 l 1004 1000 b 985 1031 1013 1020 1006 1031 l 761 1031 b 719 1000 740 1031 726 1020 l 508 378 l 294 1000 b 254 1031 288 1020 275 1031 l 32 1032 b 13 1001 11 1032 4 1022 l 385 31 b 428 0 393 10 407 0 l 590 0 b 632 31 612 0 625 10 z "},"W":{"ha":1497,"x_min":0,"x_max":0,"o":"m 744 297 l 849 31 b 892 0 857 10 871 0 l 1054 0 b 1097 31 1075 0 1089 10 l 1486 1000 b 1485 1022 1489 1008 1489 1016 b 1465 1031 1482 1028 1475 1031 l 1239 1031 b 1197 1000 1218 1031 1204 1020 l 974 371 l 875 658 l 1000 1000 b 1000 1021 1003 1007 1003 1014 b 981 1031 997 1027 991 1031 l 750 1031 b 708 1000 729 1031 715 1020 l 515 375 l 304 1000 b 263 1031 296 1020 282 1031 l 38 1031 b 18 1000 18 1031 12 1020 l 389 31 b 432 0 397 10 412 0 l 604 0 b 646 31 625 0 639 10 z "},"X":{"ha":1010,"x_min":0,"x_max":0,"o":"m 651 526 l 968 1000 b 971 1021 973 1007 974 1014 b 951 1031 968 1027 962 1031 l 714 1031 b 689 1023 704 1031 695 1028 b 669 1000 682 1018 676 1010 l 503 750 l 335 1000 b 315 1024 327 1011 321 1019 b 292 1031 310 1028 302 1031 l 51 1031 b 33 1022 41 1031 35 1028 b 39 1000 31 1016 33 1008 l 353 526 l 21 31 b 17 8 15 20 14 13 b 38 0 21 3 27 0 l 272 0 b 296 6 282 0 290 2 b 317 31 301 9 308 18 l 501 306 l 686 31 b 729 0 698 10 713 0 l 967 0 b 987 8 977 0 984 3 b 983 31 990 14 989 21 z "},"Y":{"ha":979,"x_min":0,"x_max":0,"o":"m 351 419 l 351 31 b 382 0 351 10 362 0 l 590 0 b 621 31 611 0 621 10 l 621 421 l 950 1000 b 952 1023 956 1010 956 1018 b 931 1031 948 1028 941 1031 l 690 1031 b 649 1000 672 1031 658 1020 l 486 653 l 324 1000 b 282 1031 313 1020 299 1031 l 44 1031 b 23 1023 34 1031 27 1028 b 24 1000 19 1018 19 1010 z "},"Z":{"ha":994,"x_min":0,"x_max":0,"o":"m 61 1000 l 61 826 b 93 792 61 803 72 792 l 569 792 l 68 201 b 63 183 64 197 63 191 l 63 33 b 72 9 63 23 66 15 b 96 0 79 3 87 0 l 901 0 b 924 11 911 0 918 4 b 933 33 930 19 933 26 l 933 207 b 924 230 933 217 930 225 b 901 238 918 235 911 238 l 425 238 l 928 838 b 931 849 930 842 931 846 b 932 860 932 853 932 856 l 932 1000 b 922 1023 932 1010 929 1018 b 900 1031 916 1028 908 1031 l 93 1031 b 61 1000 72 1031 61 1020 z "},"[":{"ha":582,"x_min":0,"x_max":0,"o":"m 111 1171 l 111 -146 b 142 -176 111 -166 121 -176 l 443 -176 b 474 -146 463 -175 474 -164 l 474 19 b 465 43 474 30 471 38 b 443 51 459 49 451 51 l 358 51 l 358 974 l 443 974 b 465 982 451 974 459 976 b 474 1006 471 988 474 995 l 474 1171 b 443 1201 474 1189 463 1200 l 142 1201 b 111 1171 121 1201 111 1191 z "},"\\":{"ha":754,"x_min":0,"x_max":0,"o":"m 26 1000 l 461 31 b 504 0 469 10 484 0 l 714 0 b 731 31 734 0 740 10 l 294 1000 b 250 1031 285 1020 270 1031 l 44 1031 b 26 1000 24 1031 18 1020 z "},"]":{"ha":582,"x_min":0,"x_max":0,"o":"m 472 -151 l 472 1164 b 442 1194 472 1184 462 1194 l 142 1194 b 111 1164 121 1194 111 1183 l 111 999 b 142 967 111 977 121 967 l 225 967 l 225 46 l 142 46 b 111 14 121 46 111 35 l 111 -151 b 142 -182 111 -171 121 -181 l 442 -182 b 472 -151 462 -182 472 -172 z "},"^":{"ha":678,"x_min":0,"x_max":0,"o":"m 581 860 l 365 1078 b 353 1088 361 1082 356 1086 b 336 1092 349 1091 344 1092 b 319 1088 330 1092 324 1090 b 307 1078 315 1085 311 1081 l 89 860 b 75 833 81 851 76 842 b 89 803 74 823 79 813 l 164 731 b 194 718 174 721 184 717 b 219 731 203 719 212 723 l 335 849 l 451 732 b 507 732 468 715 487 715 l 581 803 b 594 833 591 813 595 823 b 581 860 594 842 589 851 z "},"_":{"ha":629,"x_min":0,"x_max":0,"o":"m -1 -85 l -1 -211 b 29 -244 -1 -233 9 -244 l 599 -244 b 621 -233 608 -244 615 -241 b 629 -211 626 -225 629 -218 l 629 -85 b 620 -62 629 -75 626 -67 b 599 -54 614 -57 607 -54 l 29 -54 b -1 -85 9 -54 -1 -64 z "},"`":{"ha":383,"x_min":0,"x_max":0,"o":"m 53 993 l 121 842 b 138 816 127 828 133 819 b 163 811 143 813 151 811 l 303 811 b 322 819 309 811 316 814 b 325 846 329 824 330 833 l 272 1000 b 257 1024 268 1011 263 1019 b 229 1031 251 1028 242 1031 l 72 1031 b 52 1019 63 1031 56 1027 b 53 993 48 1011 48 1002 z "},"a":{"ha":876,"x_min":0,"x_max":0,"o":"m 786 39 l 786 642 b 774 670 786 654 782 663 b 744 681 765 677 756 681 l 635 681 b 607 674 620 681 611 678 b 592 640 603 670 598 659 l 571 575 b 510 656 559 605 538 631 b 394 692 481 680 443 692 b 257 665 344 692 299 683 b 149 592 215 648 179 623 b 80 481 119 561 96 524 b 56 339 64 438 56 391 b 81 199 56 289 64 242 b 151 88 97 156 121 119 b 258 14 181 56 216 31 b 394 -12 299 -4 344 -12 l 403 -12 b 461 -3 426 -12 445 -9 b 501 19 477 3 490 10 b 530 50 513 29 522 39 b 551 81 538 61 545 71 l 567 40 b 580 11 571 28 576 19 b 610 0 584 4 594 0 l 744 0 b 773 10 755 0 764 3 b 786 39 782 16 786 26 z m 301 336 b 334 428 301 372 312 403 b 419 467 356 454 384 467 b 509 428 456 467 485 454 b 544 336 533 403 544 372 b 509 244 544 299 533 268 b 419 207 485 219 456 207 b 334 244 384 207 356 219 b 301 336 312 268 301 299 z "},"b":{"ha":853,"x_min":0,"x_max":0,"o":"m 307 79 b 379 7 331 44 355 20 b 479 -12 403 -6 437 -12 b 610 15 526 -12 570 -3 b 713 90 650 34 684 59 b 782 201 742 122 765 159 b 807 338 799 244 807 289 b 783 474 807 387 799 432 b 715 585 766 516 744 553 b 610 660 685 617 650 642 b 474 688 569 678 524 688 b 390 670 438 688 411 682 b 336 628 370 659 352 644 l 336 996 b 328 1022 336 1006 333 1015 b 301 1032 322 1028 313 1032 l 128 1032 b 103 1022 120 1032 112 1028 b 90 996 95 1015 90 1006 l 90 36 b 118 0 90 15 100 3 l 253 0 b 286 26 269 0 280 9 b 307 79 293 43 300 61 z m 554 336 b 522 244 554 299 543 268 b 435 207 500 219 471 207 b 347 243 400 207 370 219 b 311 332 324 267 312 297 l 311 336 b 347 428 311 371 323 402 b 435 467 370 454 400 467 b 522 428 471 467 500 454 b 554 336 543 402 554 371 z "},"c":{"ha":690,"x_min":0,"x_max":0,"o":"m 514 239 l 513 239 b 465 216 500 230 485 222 b 413 207 446 210 428 207 b 328 244 377 207 349 219 b 296 336 306 269 296 300 b 328 428 296 371 306 402 b 413 467 349 454 377 467 b 467 458 428 467 446 464 b 513 436 487 453 502 445 b 535 429 521 431 528 429 b 563 450 547 429 556 436 l 631 574 b 636 590 634 578 636 584 b 628 615 636 600 634 609 b 610 632 623 622 617 627 b 517 677 580 650 549 665 b 411 696 485 690 450 696 b 274 668 363 696 317 687 b 161 592 231 650 194 624 b 84 478 129 559 103 521 b 56 339 65 434 56 388 b 84 201 56 290 65 244 b 161 89 103 158 129 120 b 274 15 194 57 231 33 b 411 -12 317 -3 363 -12 b 521 6 450 -12 487 -6 b 617 51 555 18 587 33 b 634 65 623 55 629 59 b 643 85 639 70 642 76 b 636 103 643 90 641 96 l 576 196 b 556 227 569 207 562 217 b 532 243 550 237 542 242 b 514 239 528 243 522 242 z "},"d":{"ha":863,"x_min":0,"x_max":0,"o":"m 556 79 b 576 26 563 61 570 43 b 610 0 583 9 594 0 l 744 0 b 772 36 763 3 772 15 l 772 996 b 759 1022 772 1006 768 1015 b 735 1032 750 1028 742 1032 l 561 1032 b 535 1022 549 1032 540 1028 b 526 996 529 1015 526 1006 l 526 628 b 472 670 511 644 493 659 b 389 688 452 682 424 688 b 253 660 339 688 294 678 b 148 585 212 642 177 617 b 80 474 119 553 96 516 b 56 338 64 432 56 387 b 81 201 56 289 64 244 b 149 90 97 159 120 122 b 253 15 178 59 213 34 b 383 -12 293 -3 336 -12 b 483 7 426 -12 459 -6 b 556 79 507 20 531 44 z m 308 336 b 341 428 308 371 319 402 b 428 467 363 454 392 467 b 516 428 463 467 492 454 b 551 336 540 402 551 371 l 551 332 b 515 243 550 297 538 267 b 428 207 492 219 463 207 b 341 244 392 207 363 219 b 308 336 319 268 308 299 z "},"e":{"ha":786,"x_min":0,"x_max":0,"o":"m 628 57 b 649 89 642 66 649 77 b 642 110 649 97 646 104 l 572 210 b 549 224 564 219 556 224 b 532 217 542 224 537 222 b 510 204 527 213 520 209 b 463 185 498 197 482 190 b 407 176 444 179 425 176 b 335 200 385 176 361 184 b 282 272 309 216 291 240 l 625 272 b 709 294 667 272 695 279 b 731 364 723 308 731 331 b 703 494 731 410 722 453 b 630 599 685 534 661 569 b 522 670 599 629 563 653 b 393 696 481 687 438 696 b 258 667 345 696 300 686 b 151 588 217 647 181 621 b 81 474 122 555 98 517 b 56 339 64 431 56 386 b 83 199 56 289 65 242 b 160 86 102 156 127 119 b 273 10 192 54 230 28 b 410 -18 316 -9 362 -18 b 628 57 492 -18 565 7 z m 397 501 b 474 477 430 501 455 493 b 518 424 492 461 507 443 l 286 424 b 331 478 296 444 311 462 b 397 501 350 494 372 501 z "},"f":{"ha":460,"x_min":0,"x_max":0,"o":"m 100 804 l 100 694 l 63 694 b 22 654 36 694 22 681 l 22 546 b 63 503 22 517 36 503 l 100 503 l 100 35 b 111 10 100 25 104 16 b 138 0 119 3 127 0 l 304 0 b 330 10 314 0 323 3 b 340 35 337 16 340 25 l 340 503 l 386 503 b 415 515 398 503 408 507 b 425 546 422 524 425 534 l 425 654 b 386 694 425 681 412 694 l 340 694 l 340 767 b 363 810 341 788 349 803 b 415 822 376 818 394 822 l 418 822 b 450 858 439 822 450 834 l 450 1003 b 407 1043 450 1030 436 1043 b 301 1031 373 1043 338 1039 b 203 990 265 1022 232 1009 b 129 917 173 972 149 947 b 100 804 110 886 100 849 z "},"g":{"ha":876,"x_min":0,"x_max":0,"o":"m 786 39 l 786 642 b 774 670 786 654 782 663 b 744 681 765 677 756 681 l 635 681 b 604 675 620 681 610 679 b 592 640 599 671 594 660 l 583 582 b 558 622 580 595 571 608 b 510 660 544 636 528 649 b 453 688 492 671 473 680 b 394 699 432 695 413 699 b 257 672 344 699 299 690 b 149 596 215 653 179 628 b 80 482 119 563 96 525 b 56 339 64 438 56 391 b 81 201 56 289 64 243 b 150 92 97 159 120 122 b 257 20 180 61 215 37 b 394 -6 299 3 344 -6 l 401 -6 b 499 22 441 -6 474 3 b 560 76 525 40 545 58 l 560 72 b 558 35 560 60 559 48 b 554 4 557 23 556 13 b 535 -37 551 -12 545 -25 b 498 -68 525 -50 512 -60 b 452 -87 484 -76 468 -83 b 404 -93 436 -91 420 -93 b 335 -84 386 -93 363 -90 b 272 -60 308 -78 287 -70 b 246 -53 260 -55 251 -53 b 221 -69 237 -53 228 -58 l 168 -186 b 161 -210 163 -197 161 -205 b 169 -231 161 -218 164 -225 b 189 -246 175 -236 181 -241 b 303 -294 224 -268 262 -284 b 435 -308 344 -303 388 -308 b 585 -283 491 -308 541 -300 b 695 -212 628 -267 665 -243 b 763 -103 725 -182 748 -145 b 786 39 778 -60 786 -13 z m 301 336 b 334 428 301 372 312 403 b 419 467 356 454 384 467 b 509 428 456 467 485 454 b 544 336 533 403 544 372 b 509 244 544 299 533 268 b 419 207 485 219 456 207 b 334 244 384 207 356 219 b 301 336 312 268 301 299 z "},"h":{"ha":868,"x_min":0,"x_max":0,"o":"m 336 33 l 336 31 l 336 33 l 336 371 b 350 409 337 385 342 397 b 381 438 358 421 369 430 b 421 457 394 446 407 452 b 460 464 435 462 448 464 b 534 436 487 464 511 455 b 568 365 557 418 568 394 l 568 33 b 604 0 568 11 580 0 l 778 0 b 803 9 788 0 796 3 b 813 35 809 15 813 24 l 813 336 l 813 366 b 811 396 813 376 812 386 b 788 512 808 438 800 476 b 733 605 775 547 756 578 b 649 667 710 631 682 652 b 532 690 615 683 576 690 b 411 664 486 690 445 681 b 336 614 377 646 352 630 l 336 994 b 325 1024 336 1010 332 1020 b 296 1031 318 1028 308 1031 l 126 1031 b 99 1020 113 1031 104 1027 b 90 994 93 1013 90 1005 l 90 35 b 129 0 90 12 103 0 l 281 0 b 316 4 291 0 303 1 b 336 33 329 7 336 17 z "},"i":{"ha":433,"x_min":0,"x_max":0,"o":"m 89 646 l 89 35 b 124 0 89 12 100 0 l 297 0 b 336 35 323 0 336 12 l 336 646 b 322 672 336 657 331 666 b 297 682 313 679 305 682 l 124 682 b 98 672 113 682 104 678 b 89 646 92 665 89 656 z m 82 897 b 119 808 82 862 94 832 b 208 771 143 783 173 771 b 299 808 244 771 275 783 b 335 897 323 832 335 862 b 299 987 335 932 323 962 b 208 1024 275 1011 244 1024 b 119 987 173 1024 143 1011 b 82 897 94 962 82 932 z "},"j":{"ha":421,"x_min":0,"x_max":0,"o":"m 89 646 l 89 -7 b 66 -64 89 -31 81 -50 b 15 -85 51 -78 34 -85 l 13 -85 b -12 -94 2 -85 -6 -88 b -21 -118 -18 -100 -21 -108 l -21 -251 b -10 -278 -21 -262 -17 -272 b 19 -289 -3 -285 6 -289 b 149 -267 67 -289 110 -282 b 249 -206 188 -253 221 -233 b 313 -109 276 -180 298 -147 b 336 21 328 -71 336 -27 l 336 646 b 325 672 336 656 332 665 b 299 682 318 678 309 682 l 125 682 b 99 672 115 682 106 679 b 89 646 92 666 89 657 z m 81 897 b 117 808 81 862 93 832 b 207 771 142 783 172 771 b 297 808 243 771 273 783 b 333 897 321 832 333 862 b 297 987 333 932 321 962 b 207 1024 273 1011 243 1024 b 117 987 172 1024 142 1011 b 81 897 93 962 81 932 z "},"k":{"ha":885,"x_min":0,"x_max":0,"o":"m 90 994 l 90 32 b 98 12 90 26 93 20 b 122 0 103 4 111 0 l 301 0 b 328 12 314 0 323 4 b 336 35 334 20 336 27 l 336 222 l 388 275 l 561 26 l 561 28 b 582 6 567 18 574 10 b 604 0 590 2 598 0 l 831 0 b 851 4 840 0 847 1 b 857 21 855 7 857 13 b 844 49 857 30 853 39 l 846 49 l 569 403 l 789 635 b 797 645 794 639 796 643 l 799 656 b 769 678 799 670 789 678 l 551 678 b 518 663 538 678 527 673 b 426 561 488 628 457 594 b 336 460 396 528 366 494 l 336 997 b 326 1019 336 1005 333 1012 b 301 1031 320 1027 312 1031 l 126 1031 b 97 1020 111 1031 101 1027 b 90 994 92 1013 90 1005 z "},"l":{"ha":426,"x_min":0,"x_max":0,"o":"m 90 994 l 90 35 b 125 0 90 12 102 0 l 299 0 b 336 35 324 0 336 12 l 336 994 b 323 1020 336 1005 332 1013 b 299 1031 314 1027 306 1031 l 125 1031 b 99 1020 113 1031 104 1027 b 90 994 93 1013 90 1005 z "},"m":{"ha":1267,"x_min":0,"x_max":0,"o":"m 125 0 l 308 0 b 329 10 317 0 324 3 b 338 31 335 16 338 23 l 338 369 b 348 408 338 383 341 396 b 374 438 355 419 363 429 b 408 457 384 446 395 452 b 446 464 421 462 434 464 b 506 440 471 464 491 456 b 532 378 522 423 530 403 l 532 33 b 567 0 532 11 544 0 l 746 0 b 781 33 768 0 780 11 l 781 369 b 790 408 781 383 784 396 b 815 438 797 419 805 429 b 849 457 825 446 837 452 b 886 464 862 462 874 464 b 949 436 913 464 934 455 b 971 365 963 418 971 394 l 971 33 b 1008 0 971 11 983 0 l 1174 0 b 1200 9 1184 0 1193 3 b 1211 35 1207 15 1211 24 l 1211 338 b 1200 476 1211 388 1207 434 b 1158 588 1193 519 1178 556 b 1069 663 1137 620 1107 645 b 921 690 1031 681 982 690 b 813 663 887 690 850 681 b 721 594 775 644 744 621 b 642 664 705 623 679 646 b 507 690 605 681 560 690 b 447 680 488 690 468 687 b 390 654 427 673 408 664 b 341 622 372 644 355 633 b 307 589 327 610 315 599 b 281 653 301 613 293 634 b 222 681 269 671 249 681 l 132 681 b 106 669 125 681 117 677 b 90 639 96 662 90 652 l 90 35 b 98 10 90 25 93 16 b 125 0 103 3 112 0 z "},"n":{"ha":868,"x_min":0,"x_max":0,"o":"m 90 640 l 90 35 b 99 10 90 25 93 16 b 126 0 104 3 113 0 l 299 0 b 329 8 313 0 324 3 b 338 35 335 14 338 23 l 338 369 b 351 409 338 384 343 397 b 381 438 360 421 370 430 b 418 456 393 446 405 452 b 454 463 431 460 443 463 b 531 438 489 463 515 454 b 554 365 546 422 554 398 l 554 33 b 590 0 554 11 566 0 l 764 0 b 790 9 774 0 783 3 b 800 35 797 15 800 24 l 800 349 b 787 499 800 406 796 456 b 741 606 778 542 763 578 b 656 669 719 634 691 656 b 524 690 620 683 576 690 b 456 680 500 690 478 687 b 393 654 433 673 413 664 b 341 622 374 644 356 633 b 306 589 326 610 314 599 b 278 653 299 613 290 634 b 222 682 267 672 248 682 l 132 682 b 99 672 116 682 105 679 b 90 640 93 666 90 655 z "},"o":{"ha":838,"x_min":0,"x_max":0,"o":"m 56 339 b 84 201 56 290 65 244 b 162 89 103 158 129 120 b 277 15 195 57 233 33 b 419 -12 321 -3 369 -12 b 560 15 469 -12 516 -3 b 676 89 604 33 643 57 b 753 201 709 120 734 158 b 782 339 772 244 782 290 b 753 478 782 388 772 434 b 676 592 734 521 709 559 b 560 668 643 624 604 650 b 419 696 516 687 469 696 b 277 668 369 696 321 687 b 162 592 233 650 195 624 b 84 478 129 559 103 521 b 56 339 65 434 56 388 z m 303 336 b 335 428 303 372 313 403 b 421 467 356 454 385 467 b 506 428 456 467 484 454 b 538 336 527 403 538 372 b 506 244 538 299 527 268 b 421 207 484 219 456 207 b 335 244 385 207 356 219 b 303 336 313 268 303 299 z "},"p":{"ha":849,"x_min":0,"x_max":0,"o":"m 307 603 b 286 656 300 621 293 639 b 253 682 280 673 269 682 l 118 682 b 90 646 100 679 90 667 l 90 -314 b 103 -340 90 -324 95 -333 b 128 -350 112 -347 120 -350 l 301 -350 b 328 -340 313 -350 322 -347 b 336 -314 333 -333 336 -324 l 336 54 b 390 12 352 38 370 23 b 474 -6 411 0 438 -6 b 610 22 524 -6 569 3 b 715 97 650 40 685 65 b 783 208 744 128 766 166 b 807 344 799 251 807 296 b 782 481 807 393 799 438 b 713 592 765 523 742 560 b 610 667 684 623 650 648 b 479 694 570 685 526 694 b 379 675 437 694 403 688 b 307 603 355 662 331 638 z m 561 346 b 528 254 561 311 550 280 b 442 215 507 228 478 215 b 353 254 406 215 377 228 b 318 346 330 280 318 311 l 318 350 b 354 439 319 385 331 415 b 442 475 377 463 406 475 b 528 438 478 475 507 463 b 561 346 550 414 561 383 z "},"q":{"ha":863,"x_min":0,"x_max":0,"o":"m 556 603 b 483 675 531 638 507 662 b 383 694 459 688 426 694 b 253 667 336 694 293 685 b 149 592 213 648 178 623 b 81 481 120 560 97 523 b 56 344 64 438 56 393 b 80 208 56 296 64 251 b 148 97 96 166 119 128 b 253 22 177 65 212 40 b 389 -6 294 3 339 -6 b 472 12 424 -6 452 0 b 526 54 493 23 511 38 l 526 -314 b 535 -340 526 -324 529 -333 b 561 -350 540 -347 549 -350 l 735 -350 b 759 -340 742 -350 750 -347 b 772 -314 768 -333 772 -324 l 772 646 b 744 682 772 667 763 679 l 610 682 b 576 656 594 682 583 673 b 556 603 570 639 563 621 z m 301 346 b 334 438 301 383 312 414 b 421 475 356 463 385 475 b 508 439 456 475 485 463 b 544 350 531 415 544 385 l 544 346 b 509 254 544 311 533 280 b 421 215 485 228 456 215 b 334 254 385 215 356 228 b 301 346 312 280 301 311 z "},"r":{"ha":681,"x_min":0,"x_max":0,"o":"m 89 643 l 89 40 b 131 0 89 13 103 0 l 293 0 b 336 40 322 0 336 13 l 336 381 b 364 444 336 405 345 426 b 433 471 382 462 406 471 b 479 461 453 471 468 468 b 519 429 490 455 504 444 b 540 419 526 423 533 419 b 579 444 556 419 569 428 l 657 563 b 665 589 663 570 665 579 b 643 621 665 602 658 613 b 600 651 627 632 613 642 b 560 672 587 659 574 667 b 517 685 547 678 533 682 b 465 689 502 688 485 689 b 374 656 428 689 398 678 b 311 582 351 633 330 609 b 306 592 310 583 309 586 b 299 612 304 598 301 605 b 291 631 296 619 293 625 b 288 640 289 636 288 639 b 273 669 282 650 277 660 b 247 682 269 678 260 682 l 132 682 b 103 673 122 682 112 679 b 89 643 94 667 89 657 z "},"s":{"ha":681,"x_min":0,"x_max":0,"o":"m 199 236 b 184 247 193 241 188 244 b 171 251 180 250 175 251 b 162 249 168 250 165 250 b 151 242 159 248 155 245 l 60 146 b 49 122 52 138 49 131 b 63 93 49 112 53 102 b 181 12 97 56 136 29 b 319 -14 225 -5 271 -14 b 438 1 361 -14 401 -9 b 536 44 476 10 508 25 b 602 114 564 63 586 86 b 626 210 618 142 626 174 b 607 297 626 245 620 274 b 554 356 594 320 576 340 b 476 396 532 371 506 385 b 379 428 446 407 413 418 b 348 435 370 431 359 433 b 315 442 336 437 325 439 b 290 455 305 446 297 450 b 279 476 283 460 279 467 b 299 504 279 488 286 498 b 340 514 312 511 325 514 b 392 505 355 514 372 511 b 439 478 411 499 427 490 b 469 463 449 468 459 463 b 490 471 478 463 485 465 b 508 490 494 475 500 481 b 535 517 517 498 525 508 b 562 545 544 527 553 536 l 581 564 b 594 589 590 572 594 581 b 588 607 594 594 592 600 b 471 676 551 642 513 665 b 336 693 429 688 384 693 b 226 679 296 693 259 688 b 138 639 192 670 163 656 b 78 576 113 621 93 600 b 57 496 64 552 57 525 b 69 424 57 470 61 446 b 109 361 77 401 90 381 b 184 308 128 342 153 324 b 299 267 215 293 253 279 b 369 244 328 258 352 251 b 394 214 386 237 394 227 b 370 188 394 201 386 192 b 313 182 354 184 335 182 b 199 236 281 182 243 200 z "},"t":{"ha":464,"x_min":0,"x_max":0,"o":"m 110 871 l 110 694 l 71 694 b 31 654 44 694 31 681 l 31 546 b 71 504 31 518 44 504 l 110 504 l 110 35 b 146 0 110 12 122 0 l 311 0 b 350 35 337 0 350 12 l 350 504 l 411 504 b 441 517 424 504 434 508 b 451 546 448 525 451 535 l 451 654 b 440 685 451 668 448 678 b 411 694 433 691 423 694 l 350 694 l 350 903 b 319 938 350 926 340 938 l 147 910 b 119 896 134 908 125 903 b 110 871 113 888 110 880 z "},"u":{"ha":856,"x_min":0,"x_max":0,"o":"m 765 42 l 765 647 b 756 673 765 657 762 666 b 728 683 750 680 741 683 l 556 683 b 526 674 541 683 531 680 b 518 649 521 668 518 660 l 518 313 b 504 274 517 298 513 285 b 474 245 496 263 486 253 b 436 227 462 237 449 231 b 401 221 423 223 412 221 b 324 244 366 221 341 229 b 300 317 308 260 300 284 l 300 649 b 265 683 300 672 288 683 l 90 683 b 65 674 80 683 72 680 b 56 647 59 667 56 658 l 56 335 b 69 184 56 277 60 227 b 114 77 78 141 93 105 b 199 13 135 49 164 28 b 332 -8 235 -1 279 -8 b 399 2 354 -8 376 -5 b 461 28 421 9 442 18 b 513 63 481 39 498 50 b 549 94 528 75 540 85 b 576 29 556 70 565 49 b 632 0 588 10 606 0 l 722 0 b 765 42 751 0 765 14 z "},"v":{"ha":789,"x_min":0,"x_max":0,"o":"m 278 14 b 289 3 281 9 284 6 b 310 0 294 1 300 0 l 476 0 b 509 19 491 0 502 6 b 525 54 516 31 521 43 l 765 644 b 767 656 766 647 767 651 b 760 675 767 664 764 670 b 733 682 755 680 746 682 l 538 682 b 496 653 517 682 503 672 l 393 300 b 373 370 388 319 382 342 b 345 461 364 398 355 429 b 316 559 335 494 326 526 b 289 650 306 592 297 622 b 249 682 282 671 269 682 l 50 682 b 19 657 30 682 19 674 b 20 646 19 653 20 650 b 22 640 21 642 21 640 b 140 347 61 542 100 444 b 258 54 180 250 219 152 b 278 14 262 40 269 27 z "},"w":{"ha":1160,"x_min":0,"x_max":0,"o":"m 269 17 b 303 0 276 6 287 0 l 468 0 b 499 19 481 0 491 6 b 517 53 506 31 512 43 l 578 217 l 647 26 b 660 10 648 22 652 16 b 688 0 667 3 676 0 l 851 0 b 884 17 866 0 877 6 b 901 51 891 29 897 40 l 1133 644 b 1138 663 1136 652 1138 658 b 1107 682 1138 675 1127 682 l 907 682 b 865 653 887 682 873 672 l 769 322 b 749 382 763 342 756 362 b 728 441 741 402 734 422 b 710 492 721 460 715 477 b 697 529 704 508 700 520 l 733 644 l 733 654 b 726 674 733 663 731 669 b 699 682 721 679 712 682 l 532 682 b 489 653 510 682 495 672 l 386 324 b 337 488 368 380 351 435 b 290 651 322 540 307 595 b 250 682 283 672 269 682 l 50 682 b 19 658 30 682 19 674 b 20 647 19 655 20 651 b 22 640 21 644 21 641 l 251 54 b 259 35 253 48 256 41 b 269 17 262 29 266 23 z "},"x":{"ha":818,"x_min":0,"x_max":0,"o":"m 31 0 l 278 0 b 318 28 297 0 311 9 l 397 158 l 475 29 b 517 0 482 10 496 0 l 757 0 b 778 15 771 0 778 5 b 763 50 778 24 773 35 l 550 354 l 768 649 b 776 665 774 656 776 662 b 756 682 776 676 769 682 l 531 682 b 485 653 513 682 498 672 b 465 620 479 644 473 634 b 442 579 458 607 450 593 b 417 540 433 565 425 552 b 397 508 409 527 403 517 l 317 653 b 298 673 310 661 304 668 b 275 681 292 678 284 681 l 49 681 b 26 667 34 681 26 676 b 38 642 26 659 30 651 b 140 498 72 594 106 547 b 243 354 173 449 208 401 l 38 58 l 18 26 b 14 13 15 23 14 18 b 31 0 14 4 19 0 z "},"y":{"ha":806,"x_min":0,"x_max":0,"o":"m 29 639 l 292 -14 l 219 -226 b 217 -243 218 -236 217 -241 b 228 -263 217 -253 220 -260 b 250 -268 235 -266 243 -268 l 422 -268 b 448 -259 432 -268 441 -265 b 461 -237 455 -253 459 -246 b 527 -55 478 -187 500 -127 b 614 172 554 17 583 93 b 707 415 644 252 675 333 b 793 643 738 497 767 573 l 793 653 b 786 673 793 661 791 668 b 760 681 781 678 773 681 l 574 681 b 531 651 551 681 537 671 l 411 286 b 349 468 391 342 370 402 b 288 651 327 534 307 595 b 247 681 282 671 269 681 l 57 681 b 26 656 37 681 26 672 l 26 646 b 29 639 26 642 27 640 z "},"z":{"ha":761,"x_min":0,"x_max":0,"o":"m 79 644 l 79 511 b 117 472 79 485 92 472 l 379 472 b 315 408 361 452 339 431 b 239 341 290 386 265 364 b 163 273 213 318 188 296 b 96 207 138 250 115 228 b 76 180 88 198 81 189 b 68 150 71 171 68 161 l 68 46 b 80 14 69 34 73 23 b 110 0 87 5 97 0 l 661 0 b 688 13 672 0 681 4 b 697 39 694 22 697 31 l 697 171 b 687 198 697 183 694 192 b 661 207 680 204 671 207 l 386 207 b 459 279 408 231 433 255 b 540 351 485 303 512 327 b 620 424 567 375 594 400 b 693 496 647 449 671 473 b 698 508 696 500 697 505 b 699 519 698 512 699 516 l 699 644 b 688 672 699 656 695 666 b 661 681 680 678 671 681 l 117 681 b 79 644 92 681 79 669 z "},"{":{"ha":583,"x_min":0,"x_max":0,"o":"m 146 985 l 146 672 b 125 653 146 659 139 653 l 69 653 b 39 622 49 653 39 643 l 39 419 b 69 386 39 397 49 386 l 129 386 b 140 381 133 386 137 384 b 146 369 144 378 146 374 l 146 43 b 174 -76 146 0 155 -39 b 249 -174 193 -113 218 -146 b 356 -239 280 -201 316 -223 b 479 -262 395 -255 437 -262 l 493 -262 b 528 -228 516 -262 528 -251 l 528 -12 b 519 13 528 -2 525 6 b 497 24 513 20 506 24 l 485 24 b 430 47 463 24 445 31 b 407 101 415 62 407 80 l 407 432 b 395 481 407 450 403 467 b 368 521 387 494 378 508 b 395 562 378 534 387 547 b 407 608 403 576 407 592 l 407 933 b 430 988 407 955 415 973 b 485 1011 445 1003 463 1011 l 497 1011 b 519 1021 506 1011 513 1014 b 528 1046 525 1027 528 1036 l 528 1256 b 493 1290 528 1277 516 1288 l 479 1290 b 356 1267 437 1290 395 1282 b 249 1201 316 1251 280 1229 b 174 1104 218 1174 193 1141 b 146 985 155 1067 146 1027 z "},"|":{"ha":426,"x_min":0,"x_max":0,"o":"m 113 1000 l 113 -236 b 143 -267 113 -256 123 -267 l 322 -267 b 356 -236 344 -267 356 -256 l 356 1000 b 344 1022 356 1009 352 1017 b 322 1031 337 1028 330 1031 l 143 1031 b 120 1022 133 1031 125 1028 b 113 1000 115 1016 113 1008 z "},"}":{"ha":610,"x_min":0,"x_max":0,"o":"m 431 665 l 431 979 b 402 1099 431 1022 421 1062 b 327 1196 383 1136 358 1168 b 221 1261 296 1224 261 1245 b 97 1285 181 1277 140 1285 l 83 1285 b 49 1250 60 1282 49 1270 l 49 1040 b 58 1015 49 1030 52 1022 b 79 1004 64 1008 71 1004 l 92 1004 b 147 981 113 1004 131 997 b 169 926 162 966 169 948 l 169 601 b 181 555 169 585 173 569 b 208 515 188 541 197 527 b 181 474 197 502 188 489 b 169 426 173 460 169 444 l 169 94 b 147 40 169 73 162 55 b 92 17 131 24 113 17 l 79 17 b 58 7 71 17 64 13 b 49 -18 52 0 49 -8 l 49 -233 b 83 -269 49 -256 60 -268 l 97 -269 b 221 -246 140 -269 181 -262 b 327 -181 261 -230 296 -208 b 402 -83 358 -153 383 -120 b 431 36 421 -46 431 -6 l 431 364 b 436 375 431 368 432 371 b 447 381 440 379 444 381 l 507 381 b 538 414 527 381 538 392 l 538 615 b 507 646 538 636 527 646 l 451 646 b 431 665 438 646 431 652 z "},"~":{"ha":915,"x_min":0,"x_max":0,"o":"m 111 417 b 83 374 95 394 86 380 b 78 358 79 367 78 362 b 90 336 78 348 82 341 l 193 265 b 215 258 202 261 210 258 b 239 269 225 258 233 262 l 267 310 b 328 340 281 330 302 340 b 374 326 345 340 361 336 l 431 290 b 503 254 454 275 478 263 b 579 242 528 246 553 242 b 703 269 624 242 665 251 b 801 356 741 288 774 317 l 829 394 b 835 414 833 401 835 407 b 824 436 835 423 831 431 l 719 507 b 697 514 710 512 703 514 b 674 503 686 514 678 510 l 646 463 b 618 440 638 452 629 445 b 583 432 607 434 595 432 b 539 446 567 432 552 437 l 482 482 b 328 532 431 515 380 532 b 208 503 285 532 245 522 b 111 417 170 483 138 455 z "},"":{"ha":472,"x_min":0,"x_max":0,"o":"m 356 -390 l 356 317 b 344 339 356 326 352 333 b 321 347 336 344 328 347 l 140 347 b 117 338 130 347 122 344 b 110 317 112 332 110 325 l 110 -390 b 140 -421 110 -411 120 -421 l 321 -421 b 356 -390 344 -421 356 -411 z m 358 568 b 322 656 358 602 346 632 b 233 693 297 681 268 693 b 143 656 197 693 167 681 b 107 568 119 632 107 602 b 143 478 107 533 119 503 b 233 442 167 454 197 442 b 322 478 268 442 297 454 b 358 568 346 503 358 533 z "},"":{"ha":690,"x_min":0,"x_max":0,"o":"m 503 239 l 501 239 b 458 216 489 230 475 222 b 408 207 441 210 424 207 b 324 244 373 207 345 219 b 292 336 302 269 292 300 b 324 428 292 371 302 402 b 408 467 345 454 373 467 b 459 458 424 467 441 464 b 501 436 477 453 491 445 b 524 429 510 431 517 429 b 551 450 536 429 545 436 l 619 574 b 625 590 623 578 625 584 b 609 623 625 602 620 613 b 569 649 598 633 585 641 b 519 669 554 657 537 664 b 471 682 502 675 486 679 l 471 761 b 463 781 471 769 468 775 b 443 790 457 787 450 790 l 279 790 b 260 782 271 790 264 788 b 253 761 255 776 253 769 l 253 667 b 108 532 194 631 146 586 b 51 339 70 478 51 414 b 107 145 51 267 70 202 b 253 19 144 88 193 46 l 253 -93 b 279 -121 253 -112 262 -121 l 443 -121 b 464 -112 452 -121 459 -118 b 471 -93 469 -107 471 -100 l 471 -6 b 519 8 485 -3 501 2 b 572 31 538 15 556 22 b 615 57 589 39 603 48 b 632 85 626 66 632 75 b 625 103 632 90 630 96 l 565 196 b 545 227 558 207 551 217 b 521 243 539 237 531 242 b 503 239 517 243 511 242 z "},"":{"ha":779,"x_min":0,"x_max":0,"o":"m 750 956 b 628 1023 714 982 673 1005 b 457 1050 584 1041 526 1050 b 319 1022 409 1050 363 1041 b 203 946 275 1004 236 978 b 123 832 169 913 143 875 b 93 693 103 788 93 742 l 93 29 b 124 0 93 10 103 0 l 731 0 b 753 11 741 0 748 4 b 761 33 759 19 761 26 l 761 215 b 731 246 761 236 751 246 l 353 246 l 353 401 l 544 401 b 568 412 555 401 563 405 b 576 435 574 419 576 426 l 576 563 b 566 585 576 573 573 580 b 544 593 559 591 552 593 l 351 593 l 351 696 b 362 744 351 713 355 728 b 390 784 369 759 378 772 b 431 811 402 796 416 805 b 479 821 447 818 463 821 b 530 815 499 821 516 819 b 568 801 544 812 557 807 b 599 781 579 795 589 788 b 626 760 608 773 617 766 b 642 756 632 757 637 756 b 658 767 648 756 654 759 l 764 918 b 767 931 766 924 767 928 b 750 956 767 943 761 951 z "},"":{"ha":749,"x_min":0,"x_max":0,"o":"m 301 347 b 322 398 301 368 308 384 b 374 418 336 411 353 418 b 424 398 394 418 411 411 b 444 347 438 384 444 368 b 424 296 444 327 438 310 b 374 275 411 282 394 275 b 322 296 353 275 336 282 b 301 347 308 310 301 327 z m 178 646 l 74 542 b 61 514 67 535 63 526 b 70 494 62 508 65 502 b 88 472 75 487 81 480 b 110 451 95 465 103 458 b 131 431 118 444 125 437 b 119 385 126 415 122 400 b 115 346 117 370 115 357 b 119 306 115 333 117 319 b 131 261 122 292 126 277 l 105 235 b 79 211 96 227 88 219 l 72 203 b 61 176 65 195 61 187 b 72 151 61 166 65 158 b 121 103 89 136 105 119 b 169 54 137 86 153 70 l 176 47 b 203 35 184 39 193 35 b 228 46 212 35 220 38 l 286 104 b 332 94 303 100 318 96 b 372 90 346 91 359 90 b 412 94 384 90 397 91 b 457 104 426 96 441 100 l 508 54 b 523 42 513 50 518 46 b 542 38 528 39 534 38 b 560 43 549 38 555 39 b 575 56 566 47 570 51 b 624 103 592 71 608 87 b 671 151 639 120 655 136 b 685 178 680 157 685 166 b 672 201 685 184 681 192 l 614 261 b 624 308 619 278 622 294 b 628 350 627 323 628 337 b 624 387 628 361 626 373 b 613 431 621 400 617 415 l 671 490 b 683 514 679 499 683 506 b 671 542 683 522 679 531 l 567 646 b 539 658 558 654 549 658 b 527 655 535 657 531 656 b 515 647 523 653 519 651 l 457 588 b 412 598 441 592 426 596 b 372 601 397 600 384 601 b 333 598 360 601 347 600 b 286 588 318 596 303 592 l 228 646 b 203 658 220 654 212 658 b 178 646 194 658 185 654 z "},"":{"ha":1011,"x_min":0,"x_max":0,"o":"m 193 508 l 193 421 b 201 403 193 413 196 406 b 218 397 207 399 213 397 l 368 397 l 368 338 l 218 338 b 201 331 213 338 207 335 b 193 311 196 326 193 319 l 193 224 b 201 205 193 215 196 209 b 218 199 207 201 213 199 l 368 199 l 368 31 b 399 0 368 10 378 0 l 606 0 b 636 31 626 0 636 10 l 636 199 l 792 199 b 818 224 809 199 818 207 l 818 313 b 794 338 818 329 810 338 l 636 338 l 636 397 l 792 397 b 818 421 809 397 818 405 l 818 510 b 794 535 818 526 810 535 l 701 535 l 967 1000 b 968 1023 971 1010 972 1018 b 947 1031 964 1028 957 1031 l 706 1031 b 665 1000 688 1031 675 1020 l 501 658 l 339 1000 b 297 1031 330 1020 316 1031 l 57 1031 b 35 1023 47 1031 40 1028 b 38 1000 31 1018 32 1010 l 303 535 l 218 535 b 201 528 213 535 207 532 b 193 508 196 523 193 517 z "},"":{"ha":454,"x_min":0,"x_max":0,"o":"m 113 1025 l 113 507 b 143 476 113 487 123 476 l 324 476 b 357 507 346 476 357 487 l 357 1025 b 347 1047 357 1034 353 1042 b 324 1056 340 1053 332 1056 l 143 1056 b 120 1047 133 1056 125 1053 b 113 1025 115 1041 113 1033 z m 113 258 l 113 -260 b 143 -290 113 -280 123 -290 l 324 -290 b 357 -260 346 -290 357 -280 l 357 258 b 347 281 357 268 353 275 b 324 289 340 286 332 289 l 143 289 b 120 280 133 289 125 286 b 113 258 115 274 113 267 z "},"":{"ha":756,"x_min":0,"x_max":0,"o":"m 567 818 b 600 803 579 802 590 797 l 678 857 b 690 872 685 862 689 866 b 679 899 691 877 688 886 b 567 1011 648 946 610 983 b 399 1053 524 1039 468 1053 b 299 1040 363 1053 330 1048 b 213 1002 267 1031 239 1018 b 149 943 188 986 166 966 b 111 865 131 920 119 894 b 113 751 101 825 101 788 b 175 661 124 715 144 685 b 103 508 127 624 103 573 b 167 375 103 453 124 408 b 371 285 210 342 278 312 b 465 253 409 275 440 264 b 503 207 490 243 503 227 b 491 167 503 192 499 179 b 461 138 483 156 473 146 b 421 121 449 130 436 125 b 378 115 406 117 392 115 b 278 144 341 115 308 125 b 213 204 249 164 227 184 b 190 220 204 216 197 222 b 174 213 184 219 178 216 l 89 154 b 82 144 86 152 84 149 b 88 122 80 140 82 132 b 153 44 107 91 129 65 b 229 -4 178 24 203 8 b 306 -29 255 -16 281 -25 b 375 -36 332 -34 355 -36 b 475 -23 410 -36 444 -32 b 560 15 506 -14 535 -1 b 625 75 586 32 607 52 b 663 153 643 98 655 124 b 660 265 673 193 672 230 b 596 356 649 300 627 331 b 671 508 646 394 671 444 b 615 636 671 561 652 604 b 435 725 578 669 518 698 b 372 744 413 732 391 739 b 320 760 352 749 334 754 b 285 781 306 766 294 773 b 272 810 277 788 272 798 b 284 851 272 825 276 839 b 314 880 292 862 302 872 b 353 897 326 888 339 894 b 396 903 368 901 382 903 b 478 885 419 903 447 897 b 567 818 510 874 540 851 z m 394 439 b 327 448 366 439 343 442 b 290 469 311 454 299 461 b 275 494 282 478 277 486 b 272 511 273 502 272 507 b 288 550 272 528 277 541 b 325 571 298 559 310 566 b 371 578 340 575 355 578 b 411 575 387 579 400 578 b 474 551 437 569 458 560 b 499 507 491 541 499 526 b 488 473 499 493 495 482 b 461 452 480 464 471 457 b 428 442 451 447 440 444 b 394 439 416 440 405 439 z "},"":{"ha":653,"x_min":0,"x_max":0,"o":"m 60 881 b 92 803 60 851 70 825 b 168 771 113 782 138 771 b 247 803 200 771 226 782 b 278 881 267 825 278 851 b 247 958 278 910 267 936 b 168 990 226 979 200 990 b 92 958 138 990 113 979 b 60 881 70 936 60 910 z m 365 882 b 397 806 365 852 376 827 b 474 774 419 784 444 774 b 552 806 505 774 531 784 b 583 882 573 827 583 852 b 552 960 583 913 573 938 b 474 992 531 981 505 992 b 397 960 444 992 419 981 b 365 882 376 938 365 913 z "},"":{"ha":1342,"x_min":0,"x_max":0,"o":"m 863 793 b 669 847 806 829 742 847 b 539 821 623 847 580 838 b 433 749 498 803 463 779 b 361 643 403 719 379 684 b 335 511 344 602 335 558 b 360 381 335 465 343 421 b 431 274 378 340 401 304 b 537 203 461 244 497 221 b 667 178 577 186 620 178 b 772 192 702 178 737 183 b 867 236 806 202 838 217 b 878 279 885 247 889 262 l 815 383 b 802 397 811 390 806 394 b 782 393 798 399 791 398 b 728 374 762 382 744 375 b 685 371 712 372 698 371 b 583 406 647 371 613 383 b 539 510 554 430 539 464 b 549 563 539 528 542 546 b 577 606 555 579 565 594 b 622 637 590 619 604 629 b 681 649 639 645 658 649 b 725 647 694 649 708 648 b 785 628 742 646 762 640 b 805 624 795 623 802 622 b 817 640 808 625 812 631 l 881 753 b 883 776 886 762 887 770 b 863 793 878 782 872 788 z m 51 518 b 99 281 51 434 67 355 b 230 87 131 206 175 142 b 422 -44 285 32 349 -12 b 657 -92 495 -76 574 -92 b 894 -44 741 -92 820 -76 b 1088 87 969 -12 1033 32 b 1217 279 1142 142 1185 206 b 1265 514 1249 352 1265 431 b 1217 751 1265 598 1249 677 b 1088 944 1185 825 1142 890 b 895 1074 1033 999 969 1042 b 660 1122 822 1106 743 1122 b 422 1074 575 1122 496 1106 b 229 944 348 1042 284 999 b 99 753 175 890 131 826 b 51 518 67 680 51 601 z m 226 507 b 259 665 226 561 237 613 b 351 805 281 717 311 764 b 492 904 390 846 437 879 b 671 942 546 929 606 942 b 825 912 724 942 775 932 b 960 826 875 892 920 863 b 1056 694 1000 789 1031 745 b 1092 524 1080 644 1092 587 b 1058 363 1092 469 1081 416 b 967 223 1036 311 1006 264 b 828 123 928 182 882 148 b 654 85 775 97 717 85 b 492 117 598 85 544 95 b 356 206 441 138 396 168 b 262 340 317 244 285 288 b 226 507 238 391 226 447 z "},"":{"ha":710,"x_min":0,"x_max":0,"o":"m 614 536 b 618 551 617 539 618 544 l 618 1011 b 614 1026 618 1019 617 1024 b 599 1031 608 1029 603 1031 l 508 1031 b 486 1011 494 1031 486 1024 l 474 957 b 419 1017 461 983 443 1003 b 329 1039 396 1032 366 1039 b 228 1019 293 1039 259 1032 b 146 963 196 1005 169 987 b 91 881 123 940 104 912 b 71 781 78 850 71 817 b 91 679 71 744 78 711 b 146 597 104 648 123 620 b 228 542 169 574 196 556 b 329 522 259 529 293 522 b 412 540 363 522 390 528 b 467 589 434 552 452 569 l 467 551 b 488 532 467 538 474 532 l 599 532 b 614 536 603 532 608 533 z m 226 781 b 255 853 226 809 236 833 b 326 882 274 872 298 882 b 396 854 353 882 376 873 b 428 786 415 836 426 813 l 428 781 b 399 710 428 753 418 729 b 326 681 379 690 355 681 b 255 710 298 681 274 690 b 226 781 236 729 226 753 z "},"":{"ha":1019,"x_min":0,"x_max":0,"o":"m 389 774 l 25 411 b 15 389 19 404 15 396 b 25 369 15 382 19 376 l 389 4 b 410 -6 395 -2 402 -6 b 429 4 416 -6 423 -2 l 532 104 b 542 129 538 111 542 119 b 533 150 542 138 539 144 l 294 390 l 533 629 b 542 651 539 635 542 642 b 532 672 542 659 538 666 l 432 772 b 410 782 426 779 419 782 b 389 774 400 782 394 779 z m 836 774 l 472 411 b 463 389 466 404 463 396 b 472 369 463 382 466 376 l 836 4 b 857 -6 843 -2 850 -6 b 876 4 863 -6 870 -2 l 979 104 b 989 129 986 111 989 119 b 981 150 989 138 986 144 l 742 390 l 981 629 b 989 651 986 635 989 642 b 979 672 989 659 986 666 l 879 772 b 857 782 874 779 866 782 b 836 774 848 782 841 779 z "},"":{"ha":807,"x_min":0,"x_max":0,"o":"m 67 519 l 67 413 b 97 379 67 390 77 379 l 565 379 l 565 185 b 577 163 565 175 569 168 b 600 154 585 157 593 154 l 707 154 b 730 163 717 154 725 157 b 738 185 735 169 738 176 l 738 519 b 707 550 738 540 727 550 l 97 550 b 67 519 77 550 67 540 z "},"":{"ha":733,"x_min":0,"x_max":0,"o":"m 101 476 l 101 335 b 132 301 101 313 112 301 l 606 301 b 628 313 615 301 622 305 b 636 335 633 320 636 327 l 636 476 b 627 499 636 487 633 494 b 606 507 621 504 614 507 l 132 507 b 101 476 112 507 101 497 z "},"":{"ha":1310,"x_min":0,"x_max":0,"o":"m 43 519 b 90 284 43 436 59 358 b 220 91 122 210 165 146 b 413 -39 275 36 340 -7 b 649 -86 487 -70 565 -86 b 884 -39 732 -86 810 -70 b 1077 91 958 -7 1022 36 b 1207 284 1132 146 1175 210 b 1254 519 1238 358 1254 436 b 1207 755 1254 603 1238 681 b 1077 948 1175 828 1132 893 b 884 1078 1022 1003 958 1046 b 649 1125 810 1109 732 1125 b 413 1078 565 1125 487 1109 b 220 948 340 1046 275 1003 b 90 755 165 893 122 828 b 43 519 59 681 43 603 z m 229 514 b 260 678 229 572 239 627 b 344 812 280 729 308 773 b 472 902 379 850 422 880 b 633 935 521 924 575 935 b 799 906 692 935 747 925 b 935 822 850 886 896 858 b 1026 690 974 786 1004 742 b 1060 514 1049 638 1060 580 b 1026 349 1060 456 1049 400 b 935 214 1004 297 974 252 b 799 124 896 176 850 146 b 633 90 747 101 692 90 b 472 124 575 90 521 101 b 344 214 422 146 379 176 b 260 349 308 252 280 297 b 229 514 239 400 229 456 z m 425 796 l 425 246 b 442 228 425 234 431 228 l 581 228 b 599 246 593 228 599 234 l 599 422 l 640 422 l 733 244 b 742 231 737 238 740 234 b 754 228 745 229 749 228 l 897 228 b 907 234 902 228 905 230 b 906 246 909 238 908 242 l 799 446 b 879 519 831 463 858 488 b 911 617 900 550 911 582 b 898 690 911 642 907 666 b 860 753 889 713 876 734 b 801 797 843 771 823 786 b 725 814 778 808 753 814 l 442 814 b 428 808 435 814 431 812 b 425 796 426 805 425 800 z m 599 681 l 681 681 b 720 663 696 681 709 675 b 736 625 731 650 736 638 b 720 587 736 611 731 598 b 681 569 709 575 696 569 l 599 569 z "},"":{"ha":704,"x_min":0,"x_max":0,"o":"m 54 946 l 54 860 b 78 832 54 841 62 832 l 599 832 b 616 842 606 832 612 835 b 622 860 620 848 622 854 l 622 946 b 599 971 622 963 614 971 l 78 971 b 54 946 62 971 54 963 z "},"":{"ha":451,"x_min":0,"x_max":0,"o":"m 225 996 b 167 984 205 996 185 992 b 119 953 148 976 132 966 b 88 906 106 940 96 924 b 76 847 80 888 76 869 b 88 788 76 826 80 806 b 120 741 96 770 107 754 b 167 709 134 728 149 717 b 225 697 185 701 205 697 b 283 709 245 697 265 701 b 331 741 301 717 317 728 b 363 788 344 754 355 770 b 375 847 371 806 375 826 b 363 906 375 869 371 888 b 331 953 355 924 345 940 b 284 984 318 966 302 976 b 225 996 266 992 246 996 z m 225 910 b 269 892 243 910 257 904 b 288 847 281 880 288 865 b 269 801 288 829 281 813 b 225 783 257 789 243 783 b 180 801 206 783 191 789 b 163 847 168 813 163 829 b 180 892 163 865 168 880 b 225 910 191 904 206 910 z "},"":{"ha":690,"x_min":0,"x_max":0,"o":"m 236 239 l 407 239 b 424 247 414 239 420 241 b 429 260 427 252 429 256 l 429 406 l 567 406 b 589 428 581 406 589 413 l 589 586 b 568 608 589 601 582 608 l 429 608 l 429 753 b 407 775 429 768 422 775 l 233 775 b 213 754 219 775 213 768 l 213 608 l 75 608 b 59 601 69 608 63 606 b 53 585 55 597 53 591 l 53 428 b 60 411 53 420 55 415 b 74 406 66 407 70 406 l 213 406 l 213 261 b 236 239 213 246 220 239 z m 90 0 l 553 0 b 576 10 563 0 571 3 b 583 32 581 17 583 25 l 583 151 b 574 174 583 162 580 169 b 553 182 568 179 561 182 l 90 182 b 72 176 86 182 79 180 b 60 147 64 173 60 163 l 60 29 b 90 0 60 10 70 0 z "},"":{"ha":493,"x_min":0,"x_max":0,"o":"m 135 856 l 135 854 b 159 894 139 870 147 883 b 200 910 171 904 184 910 b 248 888 220 910 236 902 b 265 838 259 873 265 856 b 251 808 265 829 261 819 l 21 556 b 18 544 19 550 18 546 l 18 488 b 25 472 18 481 20 476 b 42 465 30 467 35 465 l 390 465 b 406 472 397 465 402 468 b 411 488 409 477 411 482 l 411 576 b 390 597 411 590 404 597 l 228 597 b 318 692 265 636 295 668 b 372 754 341 716 359 737 b 397 803 384 772 393 788 b 404 857 402 819 404 837 b 385 931 403 884 397 909 b 341 990 374 954 359 974 b 279 1029 323 1007 302 1020 b 208 1043 256 1038 232 1043 b 94 1005 166 1043 128 1030 b 22 906 60 979 36 946 l 22 907 b 18 892 19 903 18 898 b 20 881 18 888 19 884 b 32 872 22 877 25 874 l 96 850 b 117 844 103 846 110 844 b 126 846 119 844 123 845 b 135 856 130 847 133 850 z "},"":{"ha":457,"x_min":0,"x_max":0,"o":"m 218 583 b 177 599 202 583 189 588 b 140 646 166 609 153 625 b 132 653 138 650 135 653 b 124 656 129 654 126 655 b 115 654 121 656 118 655 l 107 651 l 33 626 b 19 607 24 623 19 616 b 24 593 19 602 21 598 l 24 593 b 97 494 37 551 61 518 b 229 457 132 469 176 457 b 308 472 257 457 283 462 b 372 511 332 481 353 494 b 414 570 390 528 404 547 b 429 643 424 593 429 617 b 403 732 429 682 421 712 b 343 786 386 752 366 770 b 372 829 354 799 364 813 b 385 882 381 845 385 863 b 371 944 385 904 380 925 b 334 994 362 963 349 979 b 282 1028 319 1008 301 1019 b 222 1040 263 1036 243 1040 b 128 1013 187 1040 156 1031 b 60 947 100 995 77 973 l 60 947 b 53 929 55 943 53 937 b 64 914 53 924 56 919 l 118 878 b 142 868 128 871 136 868 b 154 876 146 868 150 871 b 168 892 158 881 163 886 b 188 908 174 897 180 903 b 215 915 195 913 204 915 b 248 901 231 915 242 910 b 257 871 254 891 257 881 b 247 845 257 864 254 856 b 214 829 241 834 230 829 b 194 810 201 829 194 823 l 194 725 b 214 708 194 714 201 708 b 267 690 237 708 255 702 b 285 646 279 678 285 663 b 265 599 285 625 278 609 b 218 583 252 588 237 583 z "},"":{"ha":365,"x_min":0,"x_max":0,"o":"m 261 847 l 329 999 b 329 1024 333 1008 333 1016 b 310 1036 325 1032 319 1036 l 153 1036 b 125 1029 140 1036 131 1034 b 110 1004 119 1025 114 1016 l 57 850 b 60 823 52 837 53 828 b 79 815 66 818 73 815 l 218 815 b 244 820 230 815 239 817 b 261 847 249 823 255 832 z "},"":{"ha":932,"x_min":0,"x_max":0,"o":"m 331 661 b 309 678 330 671 322 677 b 274 681 296 680 284 681 l 131 681 b 92 644 105 681 92 669 l 92 -237 b 100 -263 92 -248 94 -256 b 128 -274 106 -270 115 -274 l 272 -274 l 292 -274 b 313 -270 299 -274 306 -272 b 331 -260 320 -268 326 -264 b 338 -239 335 -255 338 -248 l 338 67 b 397 17 353 51 373 34 b 485 -10 420 -1 450 -10 b 609 13 529 -10 571 -2 b 710 74 647 27 681 48 b 781 167 740 101 763 132 b 813 283 799 203 810 242 b 814 313 813 294 814 303 l 814 343 l 814 644 b 804 671 814 656 811 664 b 779 681 798 677 789 681 l 606 681 b 569 646 581 681 569 669 l 569 315 b 535 244 569 287 558 263 b 461 215 513 225 488 215 b 422 222 449 215 436 218 b 383 242 408 227 395 233 b 351 271 370 250 360 260 b 338 308 343 282 338 294 l 338 646 b 331 661 338 652 335 657 z "},"":{"ha":1060,"x_min":0,"x_max":0,"o":"m 932 1029 l 333 1029 b 224 1007 294 1029 258 1022 b 135 947 191 992 161 972 b 75 856 110 921 90 891 b 53 746 60 822 53 785 b 76 636 53 707 61 670 b 140 547 92 602 113 572 b 233 488 166 522 197 502 b 346 465 268 473 306 465 l 346 49 l 346 25 b 349 3 346 18 347 10 b 371 1 356 2 363 1 b 394 0 378 0 386 0 l 464 0 b 488 1 472 0 480 0 b 510 3 495 1 502 2 b 514 50 513 19 514 34 l 514 867 l 664 867 l 664 50 l 664 26 b 667 3 664 18 665 10 b 689 1 674 2 681 1 b 713 0 696 0 704 0 l 782 0 b 806 1 790 0 798 0 b 828 3 813 1 820 2 b 832 50 831 19 832 34 l 832 867 l 929 867 b 958 874 941 867 951 869 b 968 915 965 879 968 893 l 968 982 b 963 1011 968 989 966 999 b 932 1029 959 1023 949 1029 z "},"":{"ha":414,"x_min":0,"x_max":0,"o":"m 71 392 b 108 303 71 357 83 328 b 196 267 132 279 162 267 b 286 303 232 267 262 279 b 322 392 310 328 322 357 b 286 481 322 427 310 457 b 196 518 262 506 232 518 b 108 481 162 518 132 506 b 71 392 83 457 71 427 z "},"":{"ha":386,"x_min":0,"x_max":0,"o":"m 239 0 l 56 0 b 44 -18 49 -6 45 -12 b 42 -33 42 -24 42 -29 b 64 -84 42 -54 49 -71 b 112 -120 79 -97 95 -109 b 160 -153 129 -131 145 -142 b 182 -192 175 -164 182 -177 b 63 -265 182 -219 142 -244 b 56 -281 58 -268 56 -273 b 63 -306 56 -285 58 -294 b 82 -343 68 -318 75 -330 b 106 -378 89 -356 97 -368 b 128 -393 114 -388 121 -393 l 132 -393 b 228 -352 167 -382 199 -368 b 302 -301 256 -336 281 -319 b 350 -245 323 -283 339 -264 b 367 -192 361 -226 367 -208 b 344 -128 367 -166 359 -145 b 295 -87 330 -112 313 -98 b 246 -56 277 -75 261 -65 b 224 -25 231 -46 224 -36 b 239 0 224 -16 229 -7 z "},"":{"ha":286,"x_min":0,"x_max":0,"o":"m 21 974 l 21 885 b 39 864 21 871 27 864 b 50 867 41 864 44 865 l 92 882 l 92 485 b 96 472 92 480 93 476 b 111 465 99 467 104 465 l 219 465 b 240 485 233 465 240 472 l 240 1015 b 234 1030 240 1022 238 1027 b 219 1035 230 1033 225 1035 l 149 1035 b 125 1033 138 1035 130 1034 b 107 1029 120 1032 114 1031 l 44 1003 b 21 974 29 994 21 985 z "},"":{"ha":710,"x_min":0,"x_max":0,"o":"m 71 767 b 92 660 71 729 78 693 b 151 572 107 626 126 597 b 239 513 176 547 206 528 b 346 492 272 499 308 492 b 453 513 384 492 419 499 b 540 572 486 528 515 547 b 599 660 565 597 585 626 b 621 767 614 693 621 729 b 599 874 621 805 614 841 b 540 963 585 908 565 938 b 453 1022 515 988 486 1007 b 346 1043 419 1036 384 1043 b 239 1022 308 1043 272 1036 b 151 963 206 1007 176 988 b 92 874 126 938 107 908 b 71 767 78 841 71 805 z m 244 767 b 274 838 244 794 254 818 b 344 867 293 857 317 867 b 416 838 373 867 397 857 b 444 767 435 818 444 794 b 415 695 444 739 435 715 b 344 665 396 675 372 665 b 274 695 317 665 293 675 b 244 767 254 715 244 739 z "},"":{"ha":1024,"x_min":0,"x_max":0,"o":"m 979 404 l 615 767 b 594 775 612 772 605 775 b 572 765 585 775 578 772 l 472 665 b 463 644 466 659 463 652 b 471 622 463 635 465 628 l 710 383 l 471 143 b 463 122 465 138 463 131 b 472 97 463 112 466 104 l 575 -3 b 594 -12 581 -9 588 -12 b 615 -3 602 -12 609 -9 l 979 363 b 989 382 986 369 989 375 b 979 404 989 389 986 397 z m 532 404 l 168 767 b 147 775 164 772 157 775 b 125 765 138 775 131 772 l 25 665 b 15 644 19 659 15 652 b 24 622 15 635 18 628 l 263 383 l 24 143 b 15 122 18 138 15 131 b 25 97 15 112 19 104 l 128 -3 b 147 -12 134 -9 141 -12 b 168 -3 155 -12 162 -9 l 532 363 b 542 382 538 369 542 375 b 532 404 542 389 538 397 z "},"":{"ha":1031,"x_min":0,"x_max":0,"o":"m 525 93 l 761 93 l 761 28 b 781 8 761 15 768 8 l 876 8 b 899 28 891 8 899 15 l 899 93 l 940 93 b 956 99 947 93 952 95 b 963 114 960 103 963 108 l 963 210 b 940 231 963 224 955 231 l 899 231 l 899 558 b 891 572 899 564 896 569 b 876 578 886 576 881 578 l 793 578 b 775 576 785 578 779 577 b 765 567 771 574 768 571 l 765 567 b 636 354 724 499 681 428 b 507 143 592 280 549 210 b 502 130 505 139 503 135 b 500 117 501 125 500 120 b 506 100 500 110 502 105 b 525 93 509 95 516 93 z m 767 229 l 700 229 l 767 344 z m 58 974 l 58 885 b 76 864 58 871 64 864 b 88 867 78 864 82 865 l 129 882 l 129 485 b 133 472 129 480 131 476 b 149 465 136 467 141 465 l 257 465 b 278 485 271 465 278 472 l 278 1015 b 272 1030 278 1022 276 1027 b 257 1035 267 1033 263 1035 l 186 1035 b 163 1033 175 1035 167 1034 b 144 1029 158 1032 152 1031 l 82 1003 b 58 974 66 994 58 985 z m 667 1000 l 136 31 b 134 21 135 26 134 23 b 133 17 134 19 133 18 b 163 0 133 6 143 0 l 267 0 b 289 6 277 0 284 2 b 304 31 294 10 299 19 l 833 1000 b 835 1010 834 1001 835 1004 b 824 1026 835 1017 831 1022 b 800 1031 817 1029 809 1031 l 711 1031 b 683 1022 699 1031 690 1028 b 667 1000 676 1016 670 1008 z "},"":{"ha":1031,"x_min":0,"x_max":0,"o":"m 667 1000 l 136 31 b 134 21 135 26 134 23 b 133 17 134 19 133 18 b 163 0 133 6 143 0 l 267 0 b 289 6 277 0 284 2 b 304 31 294 10 299 19 l 833 1000 b 835 1010 834 1001 835 1004 b 824 1026 835 1017 831 1022 b 800 1031 817 1029 809 1031 l 711 1031 b 683 1022 699 1031 690 1028 b 667 1000 676 1016 670 1008 z m 58 974 l 58 885 b 76 864 58 871 64 864 b 88 867 78 864 82 865 l 129 882 l 129 485 b 133 472 129 480 131 476 b 149 465 136 467 141 465 l 257 465 b 278 485 271 465 278 472 l 278 1015 b 272 1030 278 1022 276 1027 b 257 1035 267 1033 263 1035 l 186 1035 b 163 1033 175 1035 167 1034 b 144 1029 158 1032 152 1031 l 82 1003 b 58 974 66 994 58 985 z m 726 390 b 751 428 731 405 739 418 b 792 444 762 439 776 444 b 840 423 812 444 828 437 b 857 374 851 409 857 392 b 843 344 857 363 852 354 l 613 92 b 610 79 611 86 610 82 l 610 24 b 617 7 610 17 612 12 b 633 0 621 2 627 0 l 982 0 b 997 7 988 0 994 2 b 1003 24 1001 12 1003 17 l 1003 111 b 982 132 1003 125 996 132 l 819 132 b 910 227 856 171 887 203 b 963 290 933 252 951 273 b 989 339 976 308 984 324 b 996 392 994 354 996 371 b 977 467 995 419 989 444 b 933 526 966 490 951 510 b 871 565 915 543 894 556 b 800 579 848 575 824 579 b 685 540 757 579 719 566 b 614 442 652 514 628 481 l 614 442 b 610 428 611 438 610 433 b 612 417 610 424 610 420 b 624 408 613 413 617 410 l 688 385 l 698 381 b 708 379 702 380 706 379 b 718 381 711 379 714 380 b 726 390 722 383 725 386 z "},"":{"ha":1064,"x_min":0,"x_max":0,"o":"m 744 1000 l 214 31 b 212 21 213 26 212 23 b 211 17 211 19 211 18 b 240 0 211 6 221 0 l 344 0 b 367 6 355 0 362 2 b 382 31 371 10 376 19 l 911 1000 b 913 1010 912 1001 913 1004 b 902 1026 913 1017 909 1022 b 878 1031 895 1029 887 1031 l 789 1031 b 760 1022 777 1031 767 1028 b 744 1000 753 1016 748 1008 z m 207 599 b 166 614 191 599 178 604 b 129 661 154 624 142 640 b 121 669 126 666 124 668 b 113 671 118 669 115 670 b 104 669 110 671 107 670 l 96 667 l 22 642 b 8 622 13 638 8 631 b 13 608 8 618 10 613 l 13 608 b 85 509 25 567 50 534 b 218 472 121 484 165 472 b 297 487 246 472 272 477 b 360 526 321 497 342 510 b 403 585 378 543 393 563 b 418 658 413 608 418 632 b 392 747 418 697 409 727 b 332 801 375 768 355 786 b 361 844 343 814 353 829 b 374 897 369 860 374 878 b 360 959 374 919 369 940 b 323 1009 350 978 338 995 b 271 1043 308 1023 290 1035 b 211 1056 251 1051 231 1056 b 117 1028 176 1056 144 1047 b 49 963 89 1010 66 988 l 49 963 b 42 944 44 958 42 952 b 53 929 42 939 45 934 l 107 893 b 131 883 117 887 125 883 b 143 891 135 883 139 886 b 157 907 147 896 151 901 b 176 923 163 913 169 918 b 204 931 184 928 193 931 b 237 916 220 931 231 926 b 246 886 243 906 246 896 b 236 860 246 880 243 871 b 203 844 230 850 219 844 b 183 825 190 844 183 838 l 183 740 b 203 724 183 729 190 724 b 256 706 226 724 244 718 b 274 661 268 694 274 679 b 254 614 274 640 267 624 b 207 599 241 604 225 599 z m 582 94 l 818 94 l 818 29 b 838 10 818 16 825 10 l 933 10 b 956 29 948 10 956 16 l 956 94 l 997 94 b 1013 101 1004 94 1009 97 b 1019 115 1017 105 1019 110 l 1019 211 b 997 232 1019 225 1012 232 l 956 232 l 956 560 b 948 574 956 565 953 570 b 933 579 943 577 938 579 l 850 579 b 832 577 842 579 836 578 b 822 568 828 576 825 573 l 822 568 b 693 356 781 500 738 430 b 564 144 649 281 606 211 b 559 131 562 141 560 136 b 557 118 558 126 557 122 b 563 101 557 112 559 106 b 582 94 566 97 573 94 z m 824 231 l 757 231 l 824 346 z "},"":{"ha":779,"x_min":0,"x_max":0,"o":"m 515 276 l 515 339 b 481 375 515 363 504 375 l 307 375 b 268 339 281 375 268 363 l 268 283 b 247 235 266 264 259 248 b 204 199 235 223 221 211 b 151 161 188 187 170 174 b 99 112 132 148 114 132 b 59 38 83 92 70 67 b 43 -69 48 9 43 -27 b 71 -205 43 -119 52 -164 b 146 -312 89 -246 114 -282 b 256 -383 177 -342 214 -366 b 390 -408 298 -400 343 -408 b 523 -384 437 -408 481 -400 b 635 -316 565 -368 602 -345 b 713 -212 667 -287 693 -252 b 742 -78 732 -172 742 -127 l 742 -56 b 736 -35 742 -48 740 -41 b 714 -26 732 -29 725 -26 l 542 -26 b 510 -54 520 -26 510 -36 l 510 -67 b 500 -111 510 -82 506 -97 b 474 -149 494 -125 485 -137 b 435 -175 463 -160 450 -169 b 390 -185 421 -181 406 -185 b 306 -150 358 -185 330 -173 b 271 -71 283 -127 271 -100 b 289 -5 271 -46 277 -24 b 334 48 301 14 316 32 b 393 95 352 64 372 80 b 452 144 414 110 434 127 b 497 203 470 162 485 181 b 515 276 509 224 515 249 z m 521 579 b 484 669 521 614 509 644 b 394 706 459 693 430 706 b 304 669 358 706 328 693 b 268 579 280 644 268 614 b 304 490 268 544 280 514 b 394 453 328 465 358 453 b 484 490 430 453 459 465 b 521 579 509 514 521 544 z "},"":{"ha":1063,"x_min":0,"x_max":0,"o":"m 407 1000 l 31 31 b 50 0 22 10 29 0 l 257 0 b 299 31 278 0 292 10 l 346 167 l 725 167 l 774 31 b 814 0 780 10 794 0 l 1021 0 b 1040 31 1042 0 1049 10 l 661 1000 b 619 1031 655 1020 641 1031 l 450 1031 b 407 1000 430 1031 415 1020 z m 424 389 l 533 706 l 644 389 z m 336 1343 l 404 1192 b 422 1166 411 1178 416 1169 b 446 1161 427 1163 435 1161 l 586 1161 b 606 1169 593 1161 599 1164 b 608 1196 612 1174 613 1183 l 556 1350 b 540 1374 551 1361 546 1369 b 513 1381 535 1378 525 1381 l 356 1381 b 335 1369 346 1381 340 1377 b 336 1343 331 1361 331 1352 z "},"":{"ha":1063,"x_min":0,"x_max":0,"o":"m 407 1000 l 31 31 b 50 0 22 10 29 0 l 257 0 b 299 31 278 0 292 10 l 346 167 l 725 167 l 774 31 b 814 0 780 10 794 0 l 1021 0 b 1040 31 1042 0 1049 10 l 661 1000 b 619 1031 655 1020 641 1031 l 450 1031 b 407 1000 430 1031 415 1020 z m 424 389 l 533 706 l 644 389 z m 664 1197 l 732 1349 b 732 1374 736 1358 736 1366 b 713 1386 728 1382 722 1386 l 556 1386 b 528 1379 543 1386 533 1384 b 513 1354 522 1375 517 1366 l 460 1200 b 463 1173 455 1187 456 1178 b 482 1165 469 1168 475 1165 l 621 1165 b 647 1170 633 1165 641 1167 b 664 1197 652 1173 657 1182 z "},"":{"ha":1063,"x_min":0,"x_max":0,"o":"m 407 1000 l 31 31 b 50 0 22 10 29 0 l 257 0 b 299 31 278 0 292 10 l 346 167 l 725 167 l 774 31 b 814 0 780 10 794 0 l 1021 0 b 1040 31 1042 0 1049 10 l 661 1000 b 619 1031 655 1020 641 1031 l 450 1031 b 407 1000 430 1031 415 1020 z m 424 389 l 533 706 l 644 389 z m 721 1269 l 556 1438 b 546 1445 552 1441 549 1444 b 533 1447 543 1447 539 1447 b 521 1444 529 1447 525 1446 b 511 1438 517 1441 514 1439 l 343 1269 b 333 1249 337 1263 333 1256 b 343 1226 332 1241 336 1234 l 401 1171 b 424 1160 409 1163 416 1160 b 444 1171 431 1161 438 1164 l 532 1261 l 621 1172 b 642 1162 627 1166 634 1162 b 664 1172 649 1161 656 1165 l 721 1226 b 721 1269 736 1241 736 1256 z "},"":{"ha":1063,"x_min":0,"x_max":0,"o":"m 407 1000 l 31 31 b 50 0 22 10 29 0 l 257 0 b 299 31 278 0 292 10 l 346 167 l 725 167 l 774 31 b 814 0 780 10 794 0 l 1021 0 b 1040 31 1042 0 1049 10 l 661 1000 b 619 1031 655 1020 641 1031 l 450 1031 b 407 1000 430 1031 415 1020 z m 424 389 l 533 706 l 644 389 z m 379 1175 b 404 1206 388 1185 396 1196 b 443 1222 413 1217 425 1222 b 481 1211 455 1222 468 1219 b 522 1188 494 1204 507 1196 b 567 1164 536 1179 551 1171 b 619 1153 584 1156 601 1153 b 715 1180 655 1153 687 1162 b 790 1254 744 1198 769 1223 b 794 1267 792 1257 793 1261 b 786 1283 794 1272 792 1278 l 722 1347 b 698 1360 715 1355 707 1359 b 672 1344 689 1361 681 1356 b 647 1317 662 1332 654 1323 b 618 1308 641 1311 631 1308 b 585 1319 609 1308 598 1312 b 542 1342 572 1326 558 1334 b 494 1367 527 1351 511 1359 b 442 1378 477 1374 459 1378 b 355 1354 411 1378 382 1370 b 286 1289 328 1338 305 1317 b 269 1259 276 1273 270 1263 b 286 1233 267 1255 273 1246 l 331 1190 b 353 1171 336 1185 344 1178 b 379 1175 363 1163 372 1165 z "},"":{"ha":1063,"x_min":0,"x_max":0,"o":"m 407 1000 l 31 31 b 50 0 22 10 29 0 l 257 0 b 299 31 278 0 292 10 l 346 167 l 725 167 l 774 31 b 814 0 780 10 794 0 l 1021 0 b 1040 31 1042 0 1049 10 l 661 1000 b 619 1031 655 1020 641 1031 l 450 1031 b 407 1000 430 1031 415 1020 z m 424 389 l 533 706 l 644 389 z m 268 1231 b 300 1153 268 1201 279 1175 b 376 1121 321 1132 347 1121 b 455 1153 408 1121 434 1132 b 486 1231 476 1175 486 1201 b 455 1308 486 1260 476 1286 b 376 1340 434 1329 408 1340 b 300 1308 347 1340 321 1329 b 268 1231 279 1286 268 1260 z m 574 1232 b 606 1156 574 1202 584 1177 b 682 1124 627 1134 652 1124 b 760 1156 713 1124 740 1134 b 792 1232 781 1177 792 1202 b 760 1310 792 1263 781 1288 b 682 1342 740 1331 713 1342 b 606 1310 652 1342 627 1331 b 574 1232 584 1288 574 1263 z "},"":{"ha":1063,"x_min":0,"x_max":0,"o":"m 407 1000 l 31 31 b 50 0 22 10 29 0 l 257 0 b 299 31 278 0 292 10 l 346 167 l 725 167 l 774 31 b 814 0 780 10 794 0 l 1021 0 b 1040 31 1042 0 1049 10 l 661 1000 b 619 1031 655 1020 641 1031 l 450 1031 b 407 1000 430 1031 415 1020 z m 424 389 l 533 706 l 644 389 z m 529 1407 b 472 1395 509 1407 490 1403 b 426 1363 455 1387 439 1377 b 396 1317 413 1350 403 1334 b 385 1260 388 1299 385 1280 b 396 1203 385 1239 388 1220 b 426 1157 403 1185 413 1170 b 472 1126 439 1144 455 1134 b 529 1115 490 1119 509 1115 b 586 1126 550 1115 569 1119 b 633 1157 604 1134 619 1144 b 665 1203 646 1170 657 1185 b 676 1260 672 1220 676 1239 b 665 1317 676 1280 672 1299 b 633 1363 657 1334 646 1350 b 586 1395 619 1377 604 1387 b 529 1407 569 1403 550 1407 z m 531 1303 b 560 1291 543 1303 553 1299 b 572 1261 568 1283 572 1273 b 560 1232 572 1249 568 1239 b 531 1221 553 1225 543 1221 b 501 1232 519 1221 509 1225 b 490 1261 494 1239 490 1249 b 501 1291 490 1273 494 1283 b 531 1303 509 1299 519 1303 z "},"":{"ha":1547,"x_min":0,"x_max":0,"o":"m 746 172 l 746 31 b 776 0 746 10 756 0 l 1451 0 b 1483 31 1473 0 1483 10 l 1483 207 b 1451 238 1483 227 1473 238 l 1015 238 l 1015 422 l 1018 422 l 1329 422 b 1364 453 1352 422 1364 432 l 1364 596 b 1329 628 1364 617 1352 628 l 1018 628 l 1015 628 l 1015 792 l 1439 792 b 1469 822 1459 792 1469 802 l 1469 1000 b 1439 1031 1469 1020 1459 1031 l 760 1031 b 738 1024 750 1031 743 1028 b 719 1000 733 1019 727 1011 l 31 32 b 26 10 25 24 24 16 b 46 0 29 3 36 0 l 288 0 b 310 6 298 0 305 2 b 329 31 314 10 321 19 l 426 172 z m 746 403 l 583 403 l 746 640 z "},"":{"ha":978,"x_min":0,"x_max":0,"o":"m 749 290 b 685 256 730 277 709 266 b 604 240 661 245 634 240 b 497 262 565 240 529 247 b 411 321 464 276 435 296 b 355 409 387 346 368 375 b 335 518 341 443 335 479 b 355 626 335 557 341 593 b 411 713 368 660 387 689 b 497 771 435 738 464 757 b 604 792 529 785 565 792 b 682 780 633 792 659 788 b 751 740 705 772 728 759 b 774 730 759 734 766 730 b 794 740 782 729 789 733 l 915 914 b 918 932 918 919 919 925 b 906 950 917 939 913 945 b 773 1019 867 977 822 1000 b 604 1047 723 1038 667 1047 b 397 1006 531 1047 462 1034 b 227 893 332 979 276 941 b 113 725 178 845 140 789 b 71 518 85 661 71 592 b 113 311 71 445 85 376 b 227 141 140 246 178 190 b 397 26 276 92 332 54 b 604 -15 462 -1 531 -15 b 773 12 667 -15 723 -6 b 903 79 822 30 866 52 b 921 99 913 87 919 93 b 913 124 923 105 920 113 l 799 290 b 776 303 792 300 785 304 b 749 290 768 302 759 298 z m 678 0 l 494 0 b 483 -18 488 -6 484 -12 b 481 -33 481 -24 481 -29 b 503 -84 481 -54 488 -71 b 551 -120 518 -97 534 -109 b 599 -153 568 -131 584 -142 b 621 -192 613 -164 621 -177 b 501 -265 621 -219 581 -244 b 494 -281 497 -268 494 -273 b 502 -306 494 -285 497 -294 b 521 -343 507 -318 513 -330 b 544 -378 528 -356 536 -368 b 567 -393 553 -388 560 -393 l 571 -393 b 667 -352 606 -382 638 -368 b 741 -301 695 -336 720 -319 b 789 -245 762 -283 778 -264 b 806 -192 800 -226 806 -208 b 783 -128 806 -166 798 -145 b 734 -87 769 -112 752 -98 b 685 -56 716 -75 700 -65 b 663 -25 670 -46 663 -36 b 678 0 663 -16 668 -7 z "},"":{"ha":938,"x_min":0,"x_max":0,"o":"m 111 1000 l 111 31 b 142 0 111 10 121 0 l 846 0 b 876 31 866 0 876 10 l 876 207 b 846 238 876 227 866 238 l 379 238 l 379 415 l 724 415 b 757 446 746 415 757 425 l 757 589 b 724 621 757 610 746 621 l 379 621 l 379 792 l 832 792 b 863 822 852 792 863 802 l 863 1000 b 832 1031 863 1020 852 1031 l 142 1031 b 111 1000 121 1031 111 1020 z m 324 1343 l 392 1192 b 409 1166 398 1178 404 1169 b 433 1161 414 1163 422 1161 l 574 1161 b 593 1169 580 1161 587 1164 b 596 1196 600 1174 600 1183 l 543 1350 b 528 1374 538 1361 533 1369 b 500 1381 522 1378 513 1381 l 343 1381 b 323 1369 334 1381 327 1377 b 324 1343 319 1361 319 1352 z "},"":{"ha":938,"x_min":0,"x_max":0,"o":"m 111 1000 l 111 31 b 142 0 111 10 121 0 l 846 0 b 876 31 866 0 876 10 l 876 207 b 846 238 876 227 866 238 l 379 238 l 379 415 l 724 415 b 757 446 746 415 757 425 l 757 589 b 724 621 757 610 746 621 l 379 621 l 379 792 l 832 792 b 863 822 852 792 863 802 l 863 1000 b 832 1031 863 1020 852 1031 l 142 1031 b 111 1000 121 1031 111 1020 z m 638 1197 l 706 1349 b 706 1374 709 1358 709 1366 b 686 1386 702 1382 695 1386 l 529 1386 b 501 1379 516 1386 507 1384 b 486 1354 496 1375 491 1366 l 433 1200 b 436 1173 429 1187 430 1178 b 456 1165 443 1168 449 1165 l 594 1165 b 620 1170 606 1165 615 1167 b 638 1197 625 1173 631 1182 z "},"":{"ha":938,"x_min":0,"x_max":0,"o":"m 111 1000 l 111 31 b 142 0 111 10 121 0 l 846 0 b 876 31 866 0 876 10 l 876 207 b 846 238 876 227 866 238 l 379 238 l 379 415 l 724 415 b 757 446 746 415 757 425 l 757 589 b 724 621 757 610 746 621 l 379 621 l 379 792 l 832 792 b 863 822 852 792 863 802 l 863 1000 b 832 1031 863 1020 852 1031 l 142 1031 b 111 1000 121 1031 111 1020 z m 669 1269 l 504 1438 b 494 1445 500 1441 497 1444 b 482 1447 492 1447 488 1447 b 469 1444 477 1447 473 1446 b 460 1438 466 1441 463 1439 l 292 1269 b 281 1249 285 1263 282 1256 b 292 1226 281 1241 284 1234 l 350 1171 b 372 1160 357 1163 365 1160 b 393 1171 380 1161 387 1164 l 481 1261 l 569 1172 b 590 1162 576 1166 583 1162 b 613 1172 598 1161 605 1165 l 669 1226 b 680 1249 677 1234 680 1241 b 669 1269 679 1256 676 1263 z "},"":{"ha":938,"x_min":0,"x_max":0,"o":"m 111 1000 l 111 31 b 142 0 111 10 121 0 l 846 0 b 876 31 866 0 876 10 l 876 207 b 846 238 876 227 866 238 l 379 238 l 379 415 l 724 415 b 757 446 746 415 757 425 l 757 589 b 724 621 757 610 746 621 l 379 621 l 379 792 l 832 792 b 863 822 852 792 863 802 l 863 1000 b 832 1031 863 1020 852 1031 l 142 1031 b 111 1000 121 1031 111 1020 z m 215 1231 b 247 1153 215 1201 226 1175 b 324 1121 269 1132 294 1121 b 402 1153 355 1121 381 1132 b 433 1231 423 1175 433 1201 b 402 1308 433 1260 423 1286 b 324 1340 381 1329 355 1340 b 247 1308 294 1340 269 1329 b 215 1231 226 1286 215 1260 z m 521 1232 b 553 1156 521 1202 531 1177 b 629 1124 574 1134 600 1124 b 708 1156 661 1124 687 1134 b 739 1232 728 1177 739 1202 b 708 1310 739 1263 728 1288 b 629 1342 687 1331 661 1342 b 553 1310 600 1342 574 1331 b 521 1232 531 1288 521 1263 z "},"":{"ha":492,"x_min":0,"x_max":0,"o":"m 117 1000 l 117 31 b 146 0 117 10 126 0 l 354 0 b 385 31 375 0 385 10 l 385 1000 b 354 1031 385 1020 375 1031 l 146 1031 b 117 1000 126 1031 117 1020 z m 76 1343 l 144 1192 b 162 1166 151 1178 157 1169 b 186 1161 167 1163 175 1161 l 326 1161 b 346 1169 333 1161 339 1164 b 349 1196 352 1174 353 1183 l 296 1350 b 281 1374 291 1361 286 1369 b 253 1381 275 1378 266 1381 l 96 1381 b 76 1369 87 1381 80 1377 b 76 1343 72 1361 72 1352 z "},"":{"ha":492,"x_min":0,"x_max":0,"o":"m 117 1000 l 117 31 b 146 0 117 10 126 0 l 354 0 b 385 31 375 0 385 10 l 385 1000 b 354 1031 385 1020 375 1031 l 146 1031 b 117 1000 126 1031 117 1020 z m 357 1197 l 425 1349 b 425 1374 429 1358 429 1366 b 406 1386 421 1382 415 1386 l 249 1386 b 221 1379 236 1386 226 1384 b 206 1354 215 1375 210 1366 l 153 1200 b 156 1173 148 1187 149 1178 b 175 1165 162 1168 169 1165 l 314 1165 b 340 1170 326 1165 334 1167 b 357 1197 345 1173 350 1182 z "},"":{"ha":492,"x_min":0,"x_max":0,"o":"m 115 1000 l 115 31 b 144 0 115 10 125 0 l 353 0 b 383 31 373 0 383 10 l 383 1000 b 353 1031 383 1020 373 1031 l 144 1031 b 115 1000 125 1031 115 1020 z m 435 1269 l 269 1438 b 260 1445 266 1441 263 1444 b 247 1447 257 1447 253 1447 b 235 1444 243 1447 238 1446 b 225 1438 231 1441 228 1439 l 57 1269 b 47 1249 50 1263 47 1256 b 57 1226 46 1241 50 1234 l 115 1171 b 138 1160 123 1163 130 1160 b 158 1171 145 1161 152 1164 l 246 1261 l 335 1172 b 356 1162 341 1166 348 1162 b 378 1172 363 1161 370 1165 l 435 1226 b 445 1249 442 1234 446 1241 b 435 1269 445 1256 441 1263 z "},"":{"ha":494,"x_min":0,"x_max":0,"o":"m 117 1000 l 117 31 b 146 0 117 10 126 0 l 354 0 b 385 31 375 0 385 10 l 385 1000 b 354 1031 385 1020 375 1031 l 146 1031 b 117 1000 126 1031 117 1020 z m -15 1231 b 17 1153 -15 1201 -5 1175 b 93 1121 38 1132 63 1121 b 172 1153 125 1121 151 1132 b 203 1231 192 1175 203 1201 b 172 1308 203 1260 192 1286 b 93 1340 151 1329 125 1340 b 17 1308 63 1340 38 1329 b -15 1231 -5 1286 -15 1260 z m 290 1232 b 322 1156 290 1202 301 1177 b 399 1124 344 1134 369 1124 b 477 1156 430 1124 456 1134 b 508 1232 498 1177 508 1202 b 477 1310 508 1263 498 1288 b 399 1342 456 1331 430 1342 b 322 1310 369 1342 344 1331 b 290 1232 301 1288 290 1263 z "},"":{"ha":1074,"x_min":0,"x_max":0,"o":"m 113 1000 l 113 31 b 142 0 113 10 122 0 l 503 0 b 703 42 574 0 641 14 b 867 156 766 71 820 109 b 976 321 913 204 950 259 b 1017 515 1003 383 1017 448 b 973 717 1017 587 1002 654 b 857 881 944 780 905 834 b 692 990 809 927 754 963 b 503 1031 631 1017 568 1031 l 142 1031 b 113 1000 122 1031 113 1020 z m 747 515 b 727 410 747 478 741 443 b 671 325 714 378 695 349 b 585 267 647 301 618 282 b 478 246 553 253 517 246 l 381 246 l 381 785 l 478 785 b 585 763 517 785 553 778 b 671 706 618 749 647 730 b 727 620 695 681 714 653 b 747 515 741 587 747 552 z m 21 569 l 21 442 b 47 413 21 422 30 413 l 460 413 b 478 422 467 413 473 416 b 486 442 484 429 486 435 l 486 569 b 460 597 486 588 477 597 l 47 597 b 21 569 30 597 21 588 z "},"":{"ha":1142,"x_min":0,"x_max":0,"o":"m 371 631 l 736 31 b 786 0 748 10 765 0 l 990 0 b 1024 31 1013 0 1024 10 l 1024 1000 b 1013 1022 1024 1009 1020 1017 b 990 1031 1005 1028 998 1031 l 797 1031 b 774 1022 787 1031 779 1028 b 765 1000 768 1016 765 1008 l 765 438 l 418 1000 b 368 1031 405 1020 388 1031 l 143 1031 b 121 1022 133 1031 125 1028 b 114 1000 116 1016 114 1008 l 114 31 b 143 0 114 10 124 0 l 338 0 b 371 31 360 0 371 10 z m 419 1175 b 444 1206 428 1185 436 1196 b 483 1222 453 1217 466 1222 b 521 1211 495 1222 508 1219 b 562 1188 534 1204 547 1196 b 608 1164 576 1179 591 1171 b 660 1153 624 1156 641 1153 b 756 1180 695 1153 727 1162 b 831 1254 784 1198 809 1223 b 834 1267 832 1257 834 1261 b 826 1283 834 1272 832 1278 l 763 1347 b 738 1360 755 1355 747 1359 b 713 1344 729 1361 721 1356 b 688 1317 702 1332 694 1323 b 658 1308 681 1311 671 1308 b 625 1319 649 1308 638 1312 b 583 1342 612 1326 598 1334 b 534 1367 567 1351 551 1359 b 482 1378 517 1374 500 1378 b 395 1354 451 1378 422 1370 b 326 1289 368 1338 345 1317 b 309 1259 316 1273 310 1263 b 326 1233 308 1255 313 1246 l 371 1190 b 394 1171 376 1185 384 1178 b 419 1175 403 1163 412 1165 z "},"":{"ha":1183,"x_min":0,"x_max":0,"o":"m 332 515 b 351 622 332 553 338 589 b 406 710 364 656 382 685 b 489 769 429 735 456 754 b 594 790 521 783 556 790 b 700 769 632 790 668 783 b 783 710 732 754 760 735 b 838 622 806 685 825 656 b 857 515 850 589 857 553 b 838 407 857 476 850 440 b 783 320 825 374 806 345 b 700 262 760 296 732 276 b 594 240 668 247 632 240 b 489 262 556 240 521 247 b 406 320 456 276 429 296 b 351 407 382 345 364 374 b 332 515 338 440 332 476 z m 64 514 b 106 308 64 441 78 372 b 219 140 133 243 171 187 b 388 26 266 92 323 54 b 594 -15 452 -1 521 -15 b 801 26 668 -15 736 -1 b 969 140 865 54 921 92 b 1083 308 1018 187 1056 243 b 1125 514 1111 372 1125 441 b 1083 722 1125 588 1111 657 b 969 890 1056 786 1018 842 b 801 1004 921 938 865 976 b 594 1046 736 1032 668 1046 b 388 1004 521 1046 452 1032 b 219 890 323 976 266 938 b 106 722 171 842 133 786 b 64 514 78 657 64 588 z m 388 1343 l 456 1192 b 473 1166 462 1178 468 1169 b 497 1161 478 1163 486 1161 l 638 1161 b 657 1169 644 1161 650 1164 b 660 1196 663 1174 664 1183 l 607 1350 b 592 1374 602 1361 597 1369 b 564 1381 586 1378 577 1381 l 407 1381 b 387 1369 398 1381 391 1377 b 388 1343 383 1361 383 1352 z "},"":{"ha":1183,"x_min":0,"x_max":0,"o":"m 332 515 b 351 622 332 553 338 589 b 406 710 364 656 382 685 b 489 769 429 735 456 754 b 594 790 521 783 556 790 b 700 769 632 790 668 783 b 783 710 732 754 760 735 b 838 622 806 685 825 656 b 857 515 850 589 857 553 b 838 407 857 476 850 440 b 783 320 825 374 806 345 b 700 262 760 296 732 276 b 594 240 668 247 632 240 b 489 262 556 240 521 247 b 406 320 456 276 429 296 b 351 407 382 345 364 374 b 332 515 338 440 332 476 z m 64 514 b 106 308 64 441 78 372 b 219 140 133 243 171 187 b 388 26 266 92 323 54 b 594 -15 452 -1 521 -15 b 801 26 668 -15 736 -1 b 969 140 865 54 921 92 b 1083 308 1018 187 1056 243 b 1125 514 1111 372 1125 441 b 1083 722 1125 588 1111 657 b 969 890 1056 786 1018 842 b 801 1004 921 938 865 976 b 594 1046 736 1032 668 1046 b 388 1004 521 1046 452 1032 b 219 890 323 976 266 938 b 106 722 171 842 133 786 b 64 514 78 657 64 588 z m 678 1197 l 746 1349 b 746 1374 750 1358 750 1366 b 726 1386 742 1382 736 1386 l 569 1386 b 542 1379 556 1386 547 1384 b 526 1354 536 1375 531 1366 l 474 1200 b 476 1173 469 1187 470 1178 b 496 1165 483 1168 489 1165 l 635 1165 b 660 1170 647 1165 655 1167 b 678 1197 666 1173 671 1182 z "},"":{"ha":1183,"x_min":0,"x_max":0,"o":"m 332 515 b 351 622 332 553 338 589 b 406 710 364 656 382 685 b 489 769 429 735 456 754 b 594 790 521 783 556 790 b 700 769 632 790 668 783 b 783 710 732 754 760 735 b 838 622 806 685 825 656 b 857 515 850 589 857 553 b 838 407 857 476 850 440 b 783 320 825 374 806 345 b 700 262 760 296 732 276 b 594 240 668 247 632 240 b 489 262 556 240 521 247 b 406 320 456 276 429 296 b 351 407 382 345 364 374 b 332 515 338 440 332 476 z m 64 514 b 106 308 64 441 78 372 b 219 140 133 243 171 187 b 388 26 266 92 323 54 b 594 -15 452 -1 521 -15 b 801 26 668 -15 736 -1 b 969 140 865 54 921 92 b 1083 308 1018 187 1056 243 b 1125 514 1111 372 1125 441 b 1083 722 1125 588 1111 657 b 969 890 1056 786 1018 842 b 801 1004 921 938 865 976 b 594 1046 736 1032 668 1046 b 388 1004 521 1046 452 1032 b 219 890 323 976 266 938 b 106 722 171 842 133 786 b 64 514 78 657 64 588 z m 799 1269 l 633 1438 b 624 1445 630 1441 626 1444 b 611 1447 621 1447 617 1447 b 599 1444 606 1447 602 1446 b 589 1438 595 1441 592 1439 l 421 1269 b 410 1249 414 1263 411 1256 b 421 1226 410 1241 413 1234 l 479 1171 b 501 1160 487 1163 494 1160 b 522 1171 509 1161 516 1164 l 610 1261 l 699 1172 b 742 1172 713 1158 728 1158 l 799 1226 b 799 1269 813 1241 813 1256 z "},"":{"ha":1183,"x_min":0,"x_max":0,"o":"m 332 515 b 351 622 332 553 338 589 b 406 710 364 656 382 685 b 489 769 429 735 456 754 b 594 790 521 783 556 790 b 700 769 632 790 668 783 b 783 710 732 754 760 735 b 838 622 806 685 825 656 b 857 515 850 589 857 553 b 838 407 857 476 850 440 b 783 320 825 374 806 345 b 700 262 760 296 732 276 b 594 240 668 247 632 240 b 489 262 556 240 521 247 b 406 320 456 276 429 296 b 351 407 382 345 364 374 b 332 515 338 440 332 476 z m 64 514 b 106 308 64 441 78 372 b 219 140 133 243 171 187 b 388 26 266 92 323 54 b 594 -15 452 -1 521 -15 b 801 26 668 -15 736 -1 b 969 140 865 54 921 92 b 1083 308 1018 187 1056 243 b 1125 514 1111 372 1125 441 b 1083 722 1125 588 1111 657 b 969 890 1056 786 1018 842 b 801 1004 921 938 865 976 b 594 1046 736 1032 668 1046 b 388 1004 521 1046 452 1032 b 219 890 323 976 266 938 b 106 722 171 842 133 786 b 64 514 78 657 64 588 z m 449 1175 b 474 1206 457 1185 465 1196 b 513 1222 482 1217 495 1222 b 550 1211 525 1222 537 1219 b 591 1188 563 1204 577 1196 b 637 1164 605 1179 621 1171 b 689 1153 653 1156 670 1153 b 785 1180 724 1153 756 1162 b 860 1254 813 1198 838 1223 b 863 1267 862 1257 863 1261 b 856 1283 864 1272 861 1278 l 792 1347 b 767 1360 784 1355 776 1359 b 742 1344 759 1361 750 1356 b 717 1317 731 1332 723 1323 b 688 1308 710 1311 700 1308 b 654 1319 678 1308 667 1312 b 612 1342 641 1326 627 1334 b 563 1367 597 1351 580 1359 b 511 1378 546 1374 529 1378 b 424 1354 481 1378 452 1370 b 356 1289 397 1338 374 1317 b 338 1259 345 1273 340 1263 b 356 1233 337 1255 343 1246 l 400 1190 b 423 1171 406 1185 413 1178 b 449 1175 433 1163 441 1165 z "},"":{"ha":1183,"x_min":0,"x_max":0,"o":"m 332 515 b 351 622 332 553 338 589 b 406 710 364 656 382 685 b 489 769 429 735 456 754 b 594 790 521 783 556 790 b 700 769 632 790 668 783 b 783 710 732 754 760 735 b 838 622 806 685 825 656 b 857 515 850 589 857 553 b 838 407 857 476 850 440 b 783 320 825 374 806 345 b 700 262 760 296 732 276 b 594 240 668 247 632 240 b 489 262 556 240 521 247 b 406 320 456 276 429 296 b 351 407 382 345 364 374 b 332 515 338 440 332 476 z m 64 514 b 106 308 64 441 78 372 b 219 140 133 243 171 187 b 388 26 266 92 323 54 b 594 -15 452 -1 521 -15 b 801 26 668 -15 736 -1 b 969 140 865 54 921 92 b 1083 308 1018 187 1056 243 b 1125 514 1111 372 1125 441 b 1083 722 1125 588 1111 657 b 969 890 1056 786 1018 842 b 801 1004 921 938 865 976 b 594 1046 736 1032 668 1046 b 388 1004 521 1046 452 1032 b 219 890 323 976 266 938 b 106 722 171 842 133 786 b 64 514 78 657 64 588 z m 328 1231 b 360 1153 328 1201 338 1175 b 436 1121 381 1132 406 1121 b 515 1153 468 1121 494 1132 b 546 1231 535 1175 546 1201 b 515 1308 546 1260 535 1286 b 436 1340 494 1329 468 1340 b 360 1308 406 1340 381 1329 b 328 1231 338 1286 328 1260 z m 633 1232 b 665 1156 633 1202 644 1177 b 742 1124 687 1134 712 1124 b 820 1156 773 1124 799 1134 b 851 1232 841 1177 851 1202 b 820 1310 851 1263 841 1288 b 742 1342 799 1331 773 1342 b 665 1310 712 1342 687 1331 b 633 1232 644 1288 633 1263 z "},"":{"ha":625,"x_min":0,"x_max":0,"o":"m 69 279 l 169 181 b 215 178 185 165 200 164 l 304 268 l 400 172 b 424 165 406 166 414 163 b 444 175 433 167 440 170 l 556 285 b 565 308 563 292 566 300 b 556 328 564 316 561 322 l 460 424 l 550 513 b 557 538 556 520 559 528 b 547 558 555 547 552 554 l 449 658 b 426 668 441 666 434 669 b 404 658 418 667 411 664 l 315 568 l 221 663 b 176 663 206 676 191 676 l 67 553 b 65 507 52 537 51 522 l 160 413 l 69 324 b 69 279 56 308 56 293 z "},"":{"ha":1183,"x_min":0,"x_max":0,"o":"m 64 515 b 118 280 64 430 82 352 b 265 100 154 208 203 148 l 194 -62 b 213 -94 185 -84 191 -94 l 443 -94 b 493 -62 466 -94 483 -84 l 515 -10 b 555 -14 528 -12 541 -13 b 594 -15 568 -15 581 -15 b 801 26 668 -15 736 -1 b 969 140 865 54 921 92 b 1083 309 1018 188 1056 245 b 1125 515 1111 373 1125 442 b 1074 744 1125 598 1108 674 b 935 924 1039 815 993 875 l 1008 1092 b 989 1126 1019 1115 1012 1126 l 760 1126 b 710 1092 738 1126 722 1115 l 686 1039 b 641 1044 671 1041 656 1042 b 594 1046 626 1045 610 1046 b 388 1004 521 1046 453 1032 b 219 891 324 976 268 939 b 106 723 171 843 133 787 b 64 515 78 659 64 589 z m 331 515 b 350 624 331 554 337 590 b 405 711 363 657 381 686 b 489 770 428 736 456 756 b 594 792 521 784 556 792 b 700 770 632 792 668 784 b 784 711 732 756 760 736 b 839 624 808 686 826 657 b 858 515 852 590 858 554 b 839 408 858 477 852 442 b 784 321 826 375 808 346 b 700 262 760 296 732 276 b 594 240 668 247 632 240 b 489 262 556 240 521 247 b 405 321 456 276 428 296 b 350 408 381 346 363 375 b 331 515 337 442 331 477 z "},"":{"ha":1076,"x_min":0,"x_max":0,"o":"m 378 411 l 378 1000 b 372 1022 378 1009 376 1017 b 347 1031 369 1028 360 1031 l 136 1031 b 116 1022 128 1031 121 1028 b 108 1000 111 1016 108 1008 l 108 415 b 144 213 108 336 120 268 b 241 80 169 158 201 114 b 381 6 281 46 328 22 b 547 -17 433 -9 489 -17 b 715 6 606 -17 661 -9 b 855 78 768 20 815 45 b 951 212 895 112 927 157 b 986 415 974 267 986 335 l 986 1000 b 977 1022 986 1008 983 1016 b 953 1031 971 1028 963 1031 l 750 1031 b 726 1022 740 1031 732 1028 b 718 1000 721 1016 718 1008 l 718 411 b 704 330 718 381 713 353 b 667 271 695 306 683 287 b 613 235 652 255 634 243 b 547 222 592 226 570 222 b 483 233 525 222 504 226 b 429 266 463 240 445 251 b 392 324 413 281 401 301 b 378 411 382 348 378 377 z m 400 1343 l 468 1192 b 485 1166 475 1178 480 1169 b 510 1161 491 1163 499 1161 l 650 1161 b 669 1169 656 1161 663 1164 b 672 1196 676 1174 677 1183 l 619 1350 b 604 1374 615 1361 610 1369 b 576 1381 599 1378 589 1381 l 419 1381 b 399 1369 410 1381 403 1377 b 400 1343 395 1361 395 1352 z "},"":{"ha":1076,"x_min":0,"x_max":0,"o":"m 378 411 l 378 1000 b 372 1022 378 1009 376 1017 b 347 1031 369 1028 360 1031 l 136 1031 b 116 1022 128 1031 121 1028 b 108 1000 111 1016 108 1008 l 108 415 b 144 213 108 336 120 268 b 241 80 169 158 201 114 b 381 6 281 46 328 22 b 547 -17 433 -9 489 -17 b 715 6 606 -17 661 -9 b 855 78 768 20 815 45 b 951 212 895 112 927 157 b 986 415 974 267 986 335 l 986 1000 b 977 1022 986 1008 983 1016 b 953 1031 971 1028 963 1031 l 750 1031 b 726 1022 740 1031 732 1028 b 718 1000 721 1016 718 1008 l 718 411 b 704 330 718 381 713 353 b 667 271 695 306 683 287 b 613 235 652 255 634 243 b 547 222 592 226 570 222 b 483 233 525 222 504 226 b 429 266 463 240 445 251 b 392 324 413 281 401 301 b 378 411 382 348 378 377 z m 632 1197 l 700 1349 b 700 1374 704 1358 704 1366 b 681 1386 696 1382 690 1386 l 524 1386 b 496 1379 511 1386 501 1384 b 481 1354 490 1375 485 1366 l 428 1200 b 431 1173 423 1187 424 1178 b 450 1165 437 1168 444 1165 l 589 1165 b 615 1170 601 1165 609 1167 b 632 1197 620 1173 625 1182 z "},"":{"ha":1076,"x_min":0,"x_max":0,"o":"m 378 411 l 378 1000 b 372 1022 378 1009 376 1017 b 347 1031 369 1028 360 1031 l 136 1031 b 116 1022 128 1031 121 1028 b 108 1000 111 1016 108 1008 l 108 415 b 144 213 108 336 120 268 b 241 80 169 158 201 114 b 381 6 281 46 328 22 b 547 -17 433 -9 489 -17 b 715 6 606 -17 661 -9 b 855 78 768 20 815 45 b 951 212 895 112 927 157 b 986 415 974 267 986 335 l 986 1000 b 977 1022 986 1008 983 1016 b 953 1031 971 1028 963 1031 l 750 1031 b 726 1022 740 1031 732 1028 b 718 1000 721 1016 718 1008 l 718 411 b 704 330 718 381 713 353 b 667 271 695 306 683 287 b 613 235 652 255 634 243 b 547 222 592 226 570 222 b 483 233 525 222 504 226 b 429 266 463 240 445 251 b 392 324 413 281 401 301 b 378 411 382 348 378 377 z m 736 1269 l 571 1438 b 561 1445 567 1441 564 1444 b 549 1447 558 1447 554 1447 b 536 1444 544 1447 540 1446 b 526 1438 532 1441 529 1439 l 358 1269 b 348 1249 352 1263 348 1256 b 358 1226 347 1241 351 1234 l 417 1171 b 439 1160 424 1163 431 1160 b 460 1171 446 1161 453 1164 l 547 1261 l 636 1172 b 657 1162 643 1166 650 1162 b 679 1172 664 1161 672 1165 l 736 1226 b 736 1269 751 1241 751 1256 z "},"":{"ha":1076,"x_min":0,"x_max":0,"o":"m 378 411 l 378 1000 b 372 1022 378 1009 376 1017 b 347 1031 369 1028 360 1031 l 136 1031 b 116 1022 128 1031 121 1028 b 108 1000 111 1016 108 1008 l 108 415 b 144 213 108 336 120 268 b 241 80 169 158 201 114 b 381 6 281 46 328 22 b 547 -17 433 -9 489 -17 b 715 6 606 -17 661 -9 b 855 78 768 20 815 45 b 951 212 895 112 927 157 b 986 415 974 267 986 335 l 986 1000 b 977 1022 986 1008 983 1016 b 953 1031 971 1028 963 1031 l 750 1031 b 726 1022 740 1031 732 1028 b 718 1000 721 1016 718 1008 l 718 411 b 704 330 718 381 713 353 b 667 271 695 306 683 287 b 613 235 652 255 634 243 b 547 222 592 226 570 222 b 483 233 525 222 504 226 b 429 266 463 240 445 251 b 392 324 413 281 401 301 b 378 411 382 348 378 377 z m 290 1231 b 322 1153 290 1201 301 1175 b 399 1121 344 1132 369 1121 b 477 1153 430 1121 456 1132 b 508 1231 498 1175 508 1201 b 477 1308 508 1260 498 1286 b 399 1340 456 1329 430 1340 b 322 1308 369 1340 344 1329 b 290 1231 301 1286 290 1260 z m 596 1232 b 628 1156 596 1202 606 1177 b 704 1124 649 1134 675 1124 b 783 1156 736 1124 762 1134 b 814 1232 803 1177 814 1202 b 783 1310 814 1263 803 1288 b 704 1342 762 1331 736 1342 b 628 1310 675 1342 649 1331 b 596 1232 606 1288 596 1263 z "},"":{"ha":979,"x_min":0,"x_max":0,"o":"m 351 419 l 351 31 b 382 0 351 10 362 0 l 590 0 b 621 31 611 0 621 10 l 621 421 l 950 1000 b 952 1023 956 1010 956 1018 b 931 1031 948 1028 941 1031 l 690 1031 b 649 1000 672 1031 658 1020 l 486 653 l 324 1000 b 282 1031 313 1020 299 1031 l 44 1031 b 23 1023 34 1031 27 1028 b 24 1000 19 1018 19 1010 z m 565 1197 l 633 1349 b 633 1374 637 1358 637 1366 b 614 1386 630 1382 623 1386 l 457 1386 b 429 1379 444 1386 435 1384 b 414 1354 424 1375 419 1366 l 361 1200 b 364 1173 356 1187 357 1178 b 383 1165 370 1168 377 1165 l 522 1165 b 548 1170 534 1165 543 1167 b 565 1197 553 1173 559 1182 z "},"":{"ha":904,"x_min":0,"x_max":0,"o":"m 111 1000 l 111 31 b 142 0 111 10 121 0 l 346 0 b 381 31 369 0 381 10 l 381 176 l 590 176 b 719 205 638 176 681 186 b 819 281 758 224 792 249 b 884 388 847 312 869 348 b 907 510 899 427 907 468 b 883 634 907 552 899 594 b 817 742 868 674 846 710 b 716 818 789 773 755 799 b 586 847 677 838 633 847 l 379 847 l 379 1000 b 368 1022 379 1009 375 1017 b 346 1031 361 1028 353 1031 l 142 1031 b 119 1022 131 1031 124 1028 b 111 1000 114 1016 111 1008 z m 635 511 b 606 431 635 481 625 455 b 528 396 587 408 561 396 l 381 396 l 381 628 l 528 628 b 573 617 544 628 559 624 b 606 590 586 610 597 601 b 627 553 615 579 622 567 b 635 511 632 539 635 525 z "},"":{"ha":811,"x_min":0,"x_max":0,"o":"m 433 -14 b 606 13 499 -14 556 -5 b 728 83 655 30 695 54 b 801 188 760 113 785 148 b 826 315 818 227 826 270 b 795 461 826 370 816 419 b 683 579 774 504 737 543 b 723 656 700 600 713 626 b 738 760 733 685 738 720 b 715 861 738 793 730 827 b 652 953 700 895 679 926 b 552 1021 625 981 591 1003 b 418 1047 513 1038 468 1047 b 278 1028 366 1047 320 1041 b 174 967 237 1015 203 994 b 109 860 146 939 124 903 b 86 701 94 816 86 763 l 85 -229 b 92 -258 85 -242 87 -252 b 119 -268 97 -265 106 -268 l 306 -268 b 330 -260 316 -268 324 -265 b 339 -232 336 -254 339 -245 l 339 604 b 338 677 339 627 338 652 b 342 748 337 703 338 726 b 367 801 347 770 355 788 b 424 822 379 815 398 822 b 487 797 453 822 474 814 b 507 743 499 779 506 762 b 488 682 507 721 500 700 b 432 654 475 663 456 654 b 400 645 416 654 406 651 b 392 619 394 639 392 631 l 392 475 b 428 444 392 455 404 444 b 472 439 443 444 457 443 b 513 420 487 435 501 429 b 544 385 526 411 536 400 b 556 331 552 370 556 352 b 544 275 556 308 552 290 b 515 238 537 260 527 248 b 474 217 502 228 488 222 b 428 211 459 213 444 211 b 402 202 418 211 409 208 b 392 174 395 196 392 187 l 392 22 b 405 -8 392 6 396 -3 b 433 -14 414 -12 423 -14 z "},"":{"ha":876,"x_min":0,"x_max":0,"o":"m 786 39 l 786 642 b 774 670 786 654 782 663 b 744 681 765 677 756 681 l 635 681 b 607 674 620 681 611 678 b 592 640 603 670 598 659 l 571 575 b 510 656 559 605 538 631 b 394 692 481 680 443 692 b 257 665 344 692 299 683 b 149 592 215 648 179 623 b 80 481 119 561 96 524 b 56 339 64 438 56 391 b 81 199 56 289 64 242 b 151 88 97 156 121 119 b 258 14 181 56 216 31 b 394 -12 299 -4 344 -12 l 403 -12 b 461 -3 426 -12 445 -9 b 501 19 477 3 490 10 b 530 50 513 29 522 39 b 551 81 538 61 545 71 l 567 40 b 580 11 571 28 576 19 b 610 0 584 4 594 0 l 744 0 b 773 10 755 0 764 3 b 786 39 782 16 786 26 z m 301 336 b 334 428 301 372 312 403 b 419 467 356 454 384 467 b 509 428 456 467 485 454 b 544 336 533 403 544 372 b 509 244 544 299 533 268 b 419 207 485 219 456 207 b 334 244 384 207 356 219 b 301 336 312 268 301 299 z m 247 993 l 315 842 b 333 816 322 828 328 819 b 357 811 338 813 346 811 l 497 811 b 517 819 504 811 510 814 b 519 846 523 824 524 833 l 467 1000 b 451 1024 462 1011 457 1019 b 424 1031 446 1028 437 1031 l 267 1031 b 247 1019 257 1031 251 1027 b 247 993 242 1011 243 1002 z "},"":{"ha":876,"x_min":0,"x_max":0,"o":"m 786 39 l 786 642 b 774 670 786 654 782 663 b 744 681 765 677 756 681 l 635 681 b 607 674 620 681 611 678 b 592 640 603 670 598 659 l 571 575 b 510 656 559 605 538 631 b 394 692 481 680 443 692 b 257 665 344 692 299 683 b 149 592 215 648 179 623 b 80 481 119 561 96 524 b 56 339 64 438 56 391 b 81 199 56 289 64 242 b 151 88 97 156 121 119 b 258 14 181 56 216 31 b 394 -12 299 -4 344 -12 l 403 -12 b 461 -3 426 -12 445 -9 b 501 19 477 3 490 10 b 530 50 513 29 522 39 b 551 81 538 61 545 71 l 567 40 b 580 11 571 28 576 19 b 610 0 584 4 594 0 l 744 0 b 773 10 755 0 764 3 b 786 39 782 16 786 26 z m 301 336 b 334 428 301 372 312 403 b 419 467 356 454 384 467 b 509 428 456 467 485 454 b 544 336 533 403 544 372 b 509 244 544 299 533 268 b 419 207 485 219 456 207 b 334 244 384 207 356 219 b 301 336 312 268 301 299 z m 522 847 l 590 999 b 590 1024 594 1008 594 1016 b 571 1036 587 1032 580 1036 l 414 1036 b 386 1029 401 1036 392 1034 b 371 1004 381 1025 375 1016 l 318 850 b 321 823 313 837 314 828 b 340 815 327 818 334 815 l 479 815 b 505 820 491 815 500 817 b 522 847 510 823 516 832 z "},"":{"ha":876,"x_min":0,"x_max":0,"o":"m 786 39 l 786 642 b 774 670 786 654 782 663 b 744 681 765 677 756 681 l 635 681 b 607 674 620 681 611 678 b 592 640 603 670 598 659 l 571 575 b 510 656 559 605 538 631 b 394 692 481 680 443 692 b 257 665 344 692 299 683 b 149 592 215 648 179 623 b 80 481 119 561 96 524 b 56 339 64 438 56 391 b 81 199 56 289 64 242 b 151 88 97 156 121 119 b 258 14 181 56 216 31 b 394 -12 299 -4 344 -12 l 403 -12 b 461 -3 426 -12 445 -9 b 501 19 477 3 490 10 b 530 50 513 29 522 39 b 551 81 538 61 545 71 l 567 40 b 580 11 571 28 576 19 b 610 0 584 4 594 0 l 744 0 b 773 10 755 0 764 3 b 786 39 782 16 786 26 z m 301 336 b 334 428 301 372 312 403 b 419 467 356 454 384 467 b 509 428 456 467 485 454 b 544 336 533 403 544 372 b 509 244 544 299 533 268 b 419 207 485 219 456 207 b 334 244 384 207 356 219 b 301 336 312 268 301 299 z m 607 919 l 442 1088 b 432 1095 438 1091 435 1094 b 419 1097 429 1097 425 1097 b 407 1094 415 1097 411 1096 b 397 1088 403 1091 400 1089 l 229 919 b 219 899 223 913 219 906 b 229 876 218 891 222 884 l 288 821 b 310 810 295 813 302 810 b 331 821 317 811 324 814 l 418 911 l 507 822 b 528 812 513 816 520 812 b 550 822 535 811 543 815 l 607 876 b 617 899 614 884 618 891 b 607 919 617 906 613 913 z "},"":{"ha":876,"x_min":0,"x_max":0,"o":"m 786 39 l 786 642 b 774 670 786 654 782 663 b 744 681 765 677 756 681 l 635 681 b 607 674 620 681 611 678 b 592 640 603 670 598 659 l 571 575 b 510 656 559 605 538 631 b 394 692 481 680 443 692 b 257 665 344 692 299 683 b 149 592 215 648 179 623 b 80 481 119 561 96 524 b 56 339 64 438 56 391 b 81 199 56 289 64 242 b 151 88 97 156 121 119 b 258 14 181 56 216 31 b 394 -12 299 -4 344 -12 l 403 -12 b 461 -3 426 -12 445 -9 b 501 19 477 3 490 10 b 530 50 513 29 522 39 b 551 81 538 61 545 71 l 567 40 b 580 11 571 28 576 19 b 610 0 584 4 594 0 l 744 0 b 773 10 755 0 764 3 b 786 39 782 16 786 26 z m 301 336 b 334 428 301 372 312 403 b 419 467 356 454 384 467 b 509 428 456 467 485 454 b 544 336 533 403 544 372 b 509 244 544 299 533 268 b 419 207 485 219 456 207 b 334 244 384 207 356 219 b 301 336 312 268 301 299 z m 278 825 b 303 856 286 835 294 846 b 342 872 311 867 324 872 b 379 861 354 872 366 869 b 420 838 392 854 406 846 b 466 814 434 829 450 821 b 518 803 482 806 500 803 b 614 830 553 803 585 812 b 689 904 643 848 668 873 b 692 917 691 907 692 911 b 685 933 693 922 690 928 l 621 997 b 597 1010 613 1005 605 1009 b 571 994 588 1011 579 1006 b 546 967 561 982 552 973 b 517 958 539 961 530 958 b 483 969 507 958 496 962 b 441 992 470 976 456 984 b 392 1017 426 1001 409 1009 b 340 1028 375 1024 358 1028 b 253 1004 310 1028 281 1020 b 185 939 226 988 203 967 b 167 909 175 923 169 913 b 185 883 166 905 172 896 l 229 840 b 252 821 235 835 242 828 b 278 825 262 813 270 815 z "},"":{"ha":876,"x_min":0,"x_max":0,"o":"m 786 39 l 786 642 b 774 670 786 654 782 663 b 744 681 765 677 756 681 l 635 681 b 607 674 620 681 611 678 b 592 640 603 670 598 659 l 571 575 b 510 656 559 605 538 631 b 394 692 481 680 443 692 b 257 665 344 692 299 683 b 149 592 215 648 179 623 b 80 481 119 561 96 524 b 56 339 64 438 56 391 b 81 199 56 289 64 242 b 151 88 97 156 121 119 b 258 14 181 56 216 31 b 394 -12 299 -4 344 -12 l 403 -12 b 461 -3 426 -12 445 -9 b 501 19 477 3 490 10 b 530 50 513 29 522 39 b 551 81 538 61 545 71 l 567 40 b 580 11 571 28 576 19 b 610 0 584 4 594 0 l 744 0 b 773 10 755 0 764 3 b 786 39 782 16 786 26 z m 301 336 b 334 428 301 372 312 403 b 419 467 356 454 384 467 b 509 428 456 467 485 454 b 544 336 533 403 544 372 b 509 244 544 299 533 268 b 419 207 485 219 456 207 b 334 244 384 207 356 219 b 301 336 312 268 301 299 z m 153 881 b 185 803 153 851 163 825 b 261 771 206 782 231 771 b 340 803 293 771 319 782 b 371 881 360 825 371 851 b 340 958 371 910 360 936 b 261 990 319 979 293 990 b 185 958 231 990 206 979 b 153 881 163 936 153 910 z m 458 882 b 490 806 458 852 469 827 b 567 774 512 784 537 774 b 645 806 598 774 624 784 b 676 882 666 827 676 852 b 645 960 676 913 666 938 b 567 992 624 981 598 992 b 490 960 537 992 512 981 b 458 882 469 938 458 913 z "},"":{"ha":876,"x_min":0,"x_max":0,"o":"m 786 39 l 786 642 b 774 670 786 654 782 663 b 744 681 765 677 756 681 l 635 681 b 607 674 620 681 611 678 b 592 640 603 670 598 659 l 571 575 b 510 656 559 605 538 631 b 394 692 481 680 443 692 b 257 665 344 692 299 683 b 149 592 215 648 179 623 b 80 481 119 561 96 524 b 56 339 64 438 56 391 b 81 199 56 289 64 242 b 151 88 97 156 121 119 b 258 14 181 56 216 31 b 394 -12 299 -4 344 -12 l 403 -12 b 461 -3 426 -12 445 -9 b 501 19 477 3 490 10 b 530 50 513 29 522 39 b 551 81 538 61 545 71 l 567 40 b 580 11 571 28 576 19 b 610 0 584 4 594 0 l 744 0 b 773 10 755 0 764 3 b 786 39 782 16 786 26 z m 301 336 b 334 428 301 372 312 403 b 419 467 356 454 384 467 b 509 428 456 467 485 454 b 544 336 533 403 544 372 b 509 244 544 299 533 268 b 419 207 485 219 456 207 b 334 244 384 207 356 219 b 301 336 312 268 301 299 z m 411 1057 b 354 1045 391 1057 372 1053 b 308 1013 337 1037 321 1027 b 278 967 295 1000 285 984 b 267 910 270 949 267 930 b 278 853 267 889 270 870 b 308 807 285 835 295 820 b 354 776 321 794 337 784 b 411 765 372 769 391 765 b 468 776 431 765 450 769 b 515 807 486 784 501 794 b 547 853 528 820 539 835 b 558 910 554 870 558 889 b 547 967 558 930 554 949 b 515 1013 539 984 528 1000 b 468 1045 501 1027 486 1037 b 411 1057 450 1053 431 1057 z m 413 953 b 442 941 425 953 434 949 b 454 911 450 933 454 923 b 442 882 454 899 450 889 b 413 871 434 875 425 871 b 383 882 400 871 391 875 b 372 911 376 889 372 899 b 383 941 372 923 376 933 b 413 953 391 949 400 953 z "},"":{"ha":1300,"x_min":0,"x_max":0,"o":"m 1143 64 b 1158 78 1149 68 1154 72 b 1165 97 1163 83 1165 90 b 1158 116 1165 102 1163 108 b 1140 140 1153 124 1147 132 b 1119 166 1134 149 1127 157 b 1101 190 1112 175 1106 183 l 1088 210 b 1064 224 1079 219 1071 224 b 1047 217 1057 224 1052 222 b 1025 204 1043 213 1035 209 b 978 185 1013 197 997 190 b 922 176 959 179 941 176 b 850 200 900 176 876 184 b 797 272 824 216 806 240 l 1140 272 b 1224 294 1182 272 1210 279 b 1246 364 1239 308 1246 331 b 1219 492 1246 410 1237 453 b 1145 595 1201 532 1176 566 b 1038 664 1114 624 1078 647 b 908 689 997 681 954 689 b 833 680 882 689 857 686 b 765 656 809 674 787 666 b 726 681 759 672 746 681 l 617 681 b 590 674 602 681 593 678 b 574 640 586 670 581 659 l 553 575 b 529 616 546 589 538 603 b 495 652 520 629 509 641 b 448 678 482 663 466 672 b 385 689 430 685 409 689 l 376 689 b 240 661 327 689 282 680 b 133 585 199 643 163 617 b 63 474 103 553 79 516 b 38 339 46 431 38 386 b 63 204 38 292 46 247 b 133 92 79 162 103 124 b 240 16 163 60 198 35 b 376 -12 281 -3 326 -12 l 385 -12 b 478 18 424 -12 455 -1 b 533 81 501 38 519 58 l 549 40 b 562 11 553 28 558 19 b 592 0 566 4 576 0 l 726 0 b 750 6 735 0 743 2 b 767 25 757 10 763 17 b 925 -11 815 1 868 -11 b 1143 64 1007 -11 1080 14 z m 283 336 b 316 428 283 372 294 403 b 401 467 338 454 366 467 b 491 428 438 467 467 454 b 526 336 515 403 526 372 b 491 244 526 299 515 268 b 401 207 467 219 438 207 b 316 244 366 207 338 219 b 283 336 294 268 283 299 z m 913 501 b 989 477 945 501 970 493 b 1033 424 1007 461 1022 443 l 801 424 b 846 478 812 444 826 462 b 913 501 865 494 888 501 z "},"":{"ha":690,"x_min":0,"x_max":0,"o":"m 514 239 l 513 239 b 465 216 500 230 485 222 b 413 207 446 210 428 207 b 328 244 377 207 349 219 b 296 336 306 269 296 300 b 328 428 296 371 306 402 b 413 467 349 454 377 467 b 467 458 428 467 446 464 b 513 436 487 453 502 445 b 535 429 521 431 528 429 b 563 450 547 429 556 436 l 631 574 b 636 590 634 578 636 584 b 628 615 636 600 634 609 b 610 632 623 622 617 627 b 517 677 580 650 549 665 b 411 696 485 690 450 696 b 274 668 363 696 317 687 b 161 592 231 650 194 624 b 84 478 129 559 103 521 b 56 339 65 434 56 388 b 84 201 56 290 65 244 b 161 89 103 158 129 120 b 274 15 194 57 231 33 b 411 -12 317 -3 363 -12 b 521 6 450 -12 487 -6 b 617 51 555 18 587 33 b 634 65 623 55 629 59 b 643 85 639 70 642 76 b 636 103 643 90 641 96 l 576 196 b 556 227 569 207 562 217 b 532 243 550 237 542 242 b 514 239 528 243 522 242 z m 485 14 l 301 14 b 290 -4 295 7 291 1 b 288 -19 288 -10 288 -15 b 310 -70 288 -40 295 -57 b 358 -106 325 -84 341 -96 b 406 -139 375 -117 391 -128 b 428 -178 420 -150 428 -163 b 308 -251 428 -206 388 -230 b 301 -267 304 -254 301 -259 b 309 -292 301 -271 304 -280 b 328 -329 314 -304 320 -316 b 351 -364 335 -342 343 -354 b 374 -379 360 -374 367 -379 l 378 -379 b 474 -338 413 -368 445 -354 b 548 -287 502 -322 527 -305 b 596 -231 569 -269 585 -250 b 613 -178 607 -212 613 -194 b 590 -115 613 -152 605 -131 b 541 -73 575 -98 559 -84 b 492 -42 523 -61 506 -51 b 469 -11 477 -32 469 -22 b 485 14 469 -2 475 6 z "},"":{"ha":786,"x_min":0,"x_max":0,"o":"m 628 57 b 649 89 642 66 649 77 b 642 110 649 97 646 104 l 572 210 b 549 224 564 219 556 224 b 532 217 542 224 537 222 b 510 204 527 213 520 209 b 463 185 498 197 482 190 b 407 176 444 179 425 176 b 335 200 385 176 361 184 b 282 272 309 216 291 240 l 625 272 b 709 294 667 272 695 279 b 731 364 723 308 731 331 b 703 494 731 410 722 453 b 630 599 685 534 661 569 b 522 670 599 629 563 653 b 393 696 481 687 438 696 b 258 667 345 696 300 686 b 151 588 217 647 181 621 b 81 474 122 555 98 517 b 56 339 64 431 56 386 b 83 199 56 289 65 242 b 160 86 102 156 127 119 b 273 10 192 54 230 28 b 410 -18 316 -9 362 -18 b 628 57 492 -18 565 7 z m 397 501 b 474 477 430 501 455 493 b 518 424 492 461 507 443 l 286 424 b 331 478 296 444 311 462 b 397 501 350 494 372 501 z m 208 993 l 276 842 b 294 816 283 828 289 819 b 318 811 299 813 307 811 l 458 811 b 478 819 465 811 471 814 b 481 846 484 824 485 833 l 428 1000 b 413 1024 423 1011 418 1019 b 385 1031 407 1028 398 1031 l 228 1031 b 208 1019 219 1031 212 1027 b 208 993 203 1011 204 1002 z "},"":{"ha":786,"x_min":0,"x_max":0,"o":"m 628 57 b 649 89 642 66 649 77 b 642 110 649 97 646 104 l 572 210 b 549 224 564 219 556 224 b 532 217 542 224 537 222 b 510 204 527 213 520 209 b 463 185 498 197 482 190 b 407 176 444 179 425 176 b 335 200 385 176 361 184 b 282 272 309 216 291 240 l 625 272 b 709 294 667 272 695 279 b 731 364 723 308 731 331 b 703 494 731 410 722 453 b 630 599 685 534 661 569 b 522 670 599 629 563 653 b 393 696 481 687 438 696 b 258 667 345 696 300 686 b 151 588 217 647 181 621 b 81 474 122 555 98 517 b 56 339 64 431 56 386 b 83 199 56 289 65 242 b 160 86 102 156 127 119 b 273 10 192 54 230 28 b 410 -18 316 -9 362 -18 b 628 57 492 -18 565 7 z m 397 501 b 474 477 430 501 455 493 b 518 424 492 461 507 443 l 286 424 b 331 478 296 444 311 462 b 397 501 350 494 372 501 z m 528 847 l 596 999 b 596 1024 600 1008 600 1016 b 576 1036 592 1032 586 1036 l 419 1036 b 392 1029 406 1036 397 1034 b 376 1004 386 1025 381 1016 l 324 850 b 326 823 319 837 320 828 b 346 815 333 818 339 815 l 485 815 b 510 820 497 815 505 817 b 528 847 516 823 521 832 z "},"":{"ha":786,"x_min":0,"x_max":0,"o":"m 628 57 b 649 89 642 66 649 77 b 642 110 649 97 646 104 l 572 210 b 549 224 564 219 556 224 b 532 217 542 224 537 222 b 510 204 527 213 520 209 b 463 185 498 197 482 190 b 407 176 444 179 425 176 b 335 200 385 176 361 184 b 282 272 309 216 291 240 l 625 272 b 709 294 667 272 695 279 b 731 364 723 308 731 331 b 703 494 731 410 722 453 b 630 599 685 534 661 569 b 522 670 599 629 563 653 b 393 696 481 687 438 696 b 258 667 345 696 300 686 b 151 588 217 647 181 621 b 81 474 122 555 98 517 b 56 339 64 431 56 386 b 83 199 56 289 65 242 b 160 86 102 156 127 119 b 273 10 192 54 230 28 b 410 -18 316 -9 362 -18 b 628 57 492 -18 565 7 z m 397 501 b 474 477 430 501 455 493 b 518 424 492 461 507 443 l 286 424 b 331 478 296 444 311 462 b 397 501 350 494 372 501 z m 578 919 l 413 1088 b 403 1095 409 1091 406 1094 b 390 1097 400 1097 396 1097 b 378 1094 386 1097 381 1096 b 368 1088 374 1091 371 1089 l 200 919 b 190 899 194 913 190 906 b 200 876 189 891 193 884 l 258 821 b 281 810 266 813 273 810 b 301 821 288 811 295 814 l 389 911 l 478 822 b 499 812 484 816 491 812 b 521 822 506 811 513 815 l 578 876 b 588 899 585 884 589 891 b 578 919 588 906 584 913 z "},"":{"ha":786,"x_min":0,"x_max":0,"o":"m 628 57 b 649 89 642 66 649 77 b 642 110 649 97 646 104 l 572 210 b 549 224 564 219 556 224 b 532 217 542 224 537 222 b 510 204 527 213 520 209 b 463 185 498 197 482 190 b 407 176 444 179 425 176 b 335 200 385 176 361 184 b 282 272 309 216 291 240 l 625 272 b 709 294 667 272 695 279 b 731 364 723 308 731 331 b 703 494 731 410 722 453 b 630 599 685 534 661 569 b 522 670 599 629 563 653 b 393 696 481 687 438 696 b 258 667 345 696 300 686 b 151 588 217 647 181 621 b 81 474 122 555 98 517 b 56 339 64 431 56 386 b 83 199 56 289 65 242 b 160 86 102 156 127 119 b 273 10 192 54 230 28 b 410 -18 316 -9 362 -18 b 628 57 492 -18 565 7 z m 397 501 b 474 477 430 501 455 493 b 518 424 492 461 507 443 l 286 424 b 331 478 296 444 311 462 b 397 501 350 494 372 501 z m 126 881 b 158 803 126 851 137 825 b 235 771 180 782 205 771 b 313 803 266 771 292 782 b 344 881 334 825 344 851 b 313 958 344 910 334 936 b 235 990 292 979 266 990 b 158 958 205 990 180 979 b 126 881 137 936 126 910 z m 432 882 b 464 806 432 852 443 827 b 540 774 485 784 511 774 b 619 806 572 774 598 784 b 650 882 640 827 650 852 b 619 960 650 913 640 938 b 540 992 598 981 572 992 b 464 960 511 992 485 981 b 432 882 443 938 432 913 z "},"":{"ha":433,"x_min":0,"x_max":0,"o":"m 89 646 l 89 35 b 124 0 89 12 100 0 l 297 0 b 335 35 322 0 335 12 l 335 646 b 322 672 335 657 330 666 b 297 682 313 679 305 682 l 124 682 b 97 672 112 682 103 678 b 89 646 92 665 89 656 z m 29 993 l 97 842 b 115 816 104 828 109 819 b 139 811 120 813 128 811 l 279 811 b 299 819 286 811 292 814 b 301 846 305 824 306 833 l 249 1000 b 233 1024 244 1011 239 1019 b 206 1031 228 1028 219 1031 l 49 1031 b 28 1019 39 1031 33 1027 b 29 993 24 1011 25 1002 z "},"":{"ha":433,"x_min":0,"x_max":0,"o":"m 297 847 l 365 999 b 365 1024 369 1008 369 1016 b 346 1036 362 1032 355 1036 l 189 1036 b 161 1029 176 1036 167 1034 b 146 1004 156 1025 150 1016 l 93 850 b 96 823 88 837 89 828 b 115 815 102 818 109 815 l 254 815 b 280 820 266 815 275 817 b 297 847 285 823 291 832 z m 89 646 l 89 35 b 124 0 89 12 100 0 l 297 0 b 335 35 322 0 335 12 l 335 646 b 322 672 335 657 330 666 b 297 682 313 679 305 682 l 124 682 b 97 672 112 682 103 678 b 89 646 92 665 89 656 z "},"":{"ha":433,"x_min":0,"x_max":0,"o":"m 397 919 l 232 1088 b 222 1095 228 1091 225 1094 b 210 1097 219 1097 215 1097 b 197 1094 205 1097 201 1096 b 188 1088 194 1091 190 1089 l 19 919 b 9 899 13 913 9 906 b 19 876 9 891 12 884 l 78 821 b 100 810 85 813 93 810 b 121 821 107 811 114 814 l 208 911 l 297 822 b 318 812 304 816 311 812 b 340 822 325 811 333 815 l 397 876 b 408 899 405 884 408 891 b 397 919 407 906 404 913 z m 89 646 l 89 35 b 124 0 89 12 100 0 l 297 0 b 335 35 322 0 335 12 l 335 646 b 322 672 335 657 330 666 b 297 682 313 679 305 682 l 124 682 b 97 672 112 682 103 678 b 89 646 92 665 89 656 z "},"":{"ha":433,"x_min":0,"x_max":0,"o":"m -50 881 b -18 803 -50 851 -39 825 b 58 771 3 782 29 771 b 137 803 90 771 116 782 b 168 881 158 825 168 851 b 137 958 168 910 158 936 b 58 990 116 979 90 990 b -18 958 29 990 3 979 b -50 881 -39 936 -50 910 z m 256 882 b 288 806 256 852 266 827 b 364 774 309 784 334 774 b 442 806 395 774 422 784 b 474 882 463 827 474 852 b 442 960 474 913 463 938 b 364 992 422 981 395 992 b 288 960 334 992 309 981 b 256 882 266 938 256 913 z m 89 646 l 89 35 b 124 0 89 12 100 0 l 297 0 b 335 35 322 0 335 12 l 335 646 b 322 672 335 657 330 666 b 297 682 313 679 305 682 l 124 682 b 97 672 112 682 103 678 b 89 646 92 665 89 656 z "},"":{"ha":838,"x_min":0,"x_max":0,"o":"m 774 297 b 776 321 775 305 776 313 l 776 344 b 732 514 776 406 762 462 l 540 854 l 597 889 b 608 911 605 894 608 901 b 606 918 607 913 607 915 b 603 925 606 921 605 923 l 554 1013 b 540 1021 550 1018 546 1021 b 531 1020 537 1021 534 1021 b 524 1015 529 1020 526 1018 l 468 982 l 458 1000 b 441 1023 454 1010 448 1018 b 413 1031 434 1028 425 1031 l 215 1031 b 189 1015 198 1031 189 1025 b 190 1006 189 1013 189 1010 b 193 997 191 1001 192 998 l 268 864 l 219 836 b 206 815 210 831 206 824 b 211 804 206 812 207 808 l 260 717 b 281 703 263 707 270 703 b 293 706 283 703 288 704 l 342 733 b 355 711 346 726 351 719 b 368 688 359 704 363 696 b 243 651 324 683 282 671 b 142 574 204 631 171 605 b 75 467 114 543 92 508 b 50 339 58 427 50 384 b 78 201 50 290 59 244 b 156 90 97 159 123 122 b 272 14 189 58 228 32 b 414 -14 316 -5 363 -14 b 546 9 460 -14 504 -6 b 656 73 588 24 624 46 b 735 171 688 100 715 133 b 774 297 756 209 769 251 z m 533 336 b 501 244 533 299 523 268 b 417 207 480 219 452 207 b 331 244 381 207 352 219 b 299 336 309 268 299 299 b 331 428 299 372 309 403 b 417 467 352 454 381 467 b 501 428 452 467 480 454 b 533 336 523 403 533 372 z "},"":{"ha":868,"x_min":0,"x_max":0,"o":"m 90 640 l 90 35 b 99 10 90 25 93 16 b 126 0 104 3 113 0 l 299 0 b 329 8 313 0 324 3 b 338 35 335 14 338 23 l 338 369 b 351 409 338 384 343 397 b 381 438 360 421 370 430 b 418 456 393 446 405 452 b 454 463 431 460 443 463 b 531 438 489 463 515 454 b 554 365 546 422 554 398 l 554 33 b 590 0 554 11 566 0 l 764 0 b 790 9 774 0 783 3 b 800 35 797 15 800 24 l 800 349 b 787 499 800 406 796 456 b 741 606 778 542 763 578 b 656 669 719 634 691 656 b 524 690 620 683 576 690 b 456 680 500 690 478 687 b 393 654 433 673 413 664 b 341 622 374 644 356 633 b 306 589 326 610 314 599 b 278 653 299 613 290 634 b 222 682 267 672 248 682 l 132 682 b 99 672 116 682 105 679 b 90 640 93 666 90 655 z m 319 825 b 344 856 328 835 336 846 b 383 872 353 867 366 872 b 421 861 395 872 408 869 b 462 838 434 854 447 846 b 508 814 476 829 491 821 b 560 803 524 806 541 803 b 656 830 595 803 627 812 b 731 904 684 848 709 873 b 734 917 732 907 734 911 b 726 933 734 922 732 928 l 663 997 b 638 1010 655 1005 647 1009 b 613 994 629 1011 621 1006 b 588 967 602 982 594 973 b 558 958 581 961 571 958 b 525 969 549 958 538 962 b 483 992 512 976 498 984 b 434 1017 467 1001 451 1009 b 382 1028 417 1024 400 1028 b 295 1004 351 1028 322 1020 b 226 939 268 988 245 967 b 209 909 216 923 210 913 b 226 883 208 905 213 896 l 271 840 b 294 821 276 835 284 828 b 319 825 303 813 312 815 z "},"":{"ha":838,"x_min":0,"x_max":0,"o":"m 56 339 b 84 201 56 290 65 244 b 162 89 103 158 129 120 b 277 15 195 57 233 33 b 419 -12 321 -3 369 -12 b 560 15 469 -12 516 -3 b 676 89 604 33 643 57 b 753 201 709 120 734 158 b 782 339 772 244 782 290 b 753 478 782 388 772 434 b 676 592 734 521 709 559 b 560 668 643 624 604 650 b 419 696 516 687 469 696 b 277 668 369 696 321 687 b 162 592 233 650 195 624 b 84 478 129 559 103 521 b 56 339 65 434 56 388 z m 303 336 b 335 428 303 372 313 403 b 421 467 356 454 385 467 b 506 428 456 467 484 454 b 538 336 527 403 538 372 b 506 244 538 299 527 268 b 421 207 484 219 456 207 b 335 244 385 207 356 219 b 303 336 313 268 303 299 z m 222 993 l 290 842 b 308 816 297 828 303 819 b 332 811 313 813 321 811 l 472 811 b 492 819 479 811 485 814 b 494 846 498 824 499 833 l 442 1000 b 426 1024 437 1011 432 1019 b 399 1031 421 1028 412 1031 l 242 1031 b 222 1019 232 1031 226 1027 b 222 993 217 1011 218 1002 z "},"":{"ha":838,"x_min":0,"x_max":0,"o":"m 56 339 b 84 201 56 290 65 244 b 162 89 103 158 129 120 b 277 15 195 57 233 33 b 419 -12 321 -3 369 -12 b 560 15 469 -12 516 -3 b 676 89 604 33 643 57 b 753 201 709 120 734 158 b 782 339 772 244 782 290 b 753 478 782 388 772 434 b 676 592 734 521 709 559 b 560 668 643 624 604 650 b 419 696 516 687 469 696 b 277 668 369 696 321 687 b 162 592 233 650 195 624 b 84 478 129 559 103 521 b 56 339 65 434 56 388 z m 303 336 b 335 428 303 372 313 403 b 421 467 356 454 385 467 b 506 428 456 467 484 454 b 538 336 527 403 538 372 b 506 244 538 299 527 268 b 421 207 484 219 456 207 b 335 244 385 207 356 219 b 303 336 313 268 303 299 z m 519 847 l 588 999 b 588 1024 591 1008 591 1016 b 568 1036 584 1032 577 1036 l 411 1036 b 383 1029 398 1036 389 1034 b 368 1004 378 1025 373 1016 l 315 850 b 318 823 311 837 312 828 b 338 815 325 818 331 815 l 476 815 b 502 820 488 815 497 817 b 519 847 507 823 513 832 z "},"":{"ha":838,"x_min":0,"x_max":0,"o":"m 56 339 b 84 201 56 290 65 244 b 162 89 103 158 129 120 b 277 15 195 57 233 33 b 419 -12 321 -3 369 -12 b 560 15 469 -12 516 -3 b 676 89 604 33 643 57 b 753 201 709 120 734 158 b 782 339 772 244 782 290 b 753 478 782 388 772 434 b 676 592 734 521 709 559 b 560 668 643 624 604 650 b 419 696 516 687 469 696 b 277 668 369 696 321 687 b 162 592 233 650 195 624 b 84 478 129 559 103 521 b 56 339 65 434 56 388 z m 303 336 b 335 428 303 372 313 403 b 421 467 356 454 385 467 b 506 428 456 467 484 454 b 538 336 527 403 538 372 b 506 244 538 299 527 268 b 421 207 484 219 456 207 b 335 244 385 207 356 219 b 303 336 313 268 303 299 z m 604 919 l 439 1088 b 429 1095 435 1091 432 1094 b 417 1097 426 1097 422 1097 b 404 1094 412 1097 408 1096 b 394 1088 400 1091 397 1089 l 226 919 b 216 899 220 913 216 906 b 226 876 216 891 219 884 l 285 821 b 307 810 292 813 300 810 b 328 821 314 811 321 814 l 415 911 l 504 822 b 525 812 511 816 518 812 b 547 822 532 811 540 815 l 604 876 b 615 899 612 884 615 891 b 604 919 614 906 611 913 z "},"":{"ha":838,"x_min":0,"x_max":0,"o":"m 56 339 b 84 201 56 290 65 244 b 162 89 103 158 129 120 b 277 15 195 57 233 33 b 419 -12 321 -3 369 -12 b 560 15 469 -12 516 -3 b 676 89 604 33 643 57 b 753 201 709 120 734 158 b 782 339 772 244 782 290 b 753 478 782 388 772 434 b 676 592 734 521 709 559 b 560 668 643 624 604 650 b 419 696 516 687 469 696 b 277 668 369 696 321 687 b 162 592 233 650 195 624 b 84 478 129 559 103 521 b 56 339 65 434 56 388 z m 303 336 b 335 428 303 372 313 403 b 421 467 356 454 385 467 b 506 428 456 467 484 454 b 538 336 527 403 538 372 b 506 244 538 299 527 268 b 421 207 484 219 456 207 b 335 244 385 207 356 219 b 303 336 313 268 303 299 z m 258 825 b 283 856 267 835 275 846 b 322 872 292 867 305 872 b 360 861 334 872 347 869 b 401 838 373 854 386 846 b 447 814 415 829 430 821 b 499 803 463 806 480 803 b 594 830 534 803 566 812 b 669 904 623 848 648 873 b 673 917 671 907 672 911 b 665 933 673 922 671 928 l 601 997 b 577 1010 594 1005 586 1009 b 551 994 568 1011 560 1006 b 526 967 541 982 533 973 b 497 958 520 961 510 958 b 464 969 488 958 477 962 b 422 992 451 976 437 984 b 373 1017 406 1001 390 1009 b 321 1028 356 1024 338 1028 b 234 1004 290 1028 261 1020 b 165 939 207 988 184 967 b 148 909 155 923 149 913 b 165 883 147 905 152 896 l 210 840 b 233 821 215 835 223 828 b 258 825 242 813 251 815 z "},"":{"ha":838,"x_min":0,"x_max":0,"o":"m 56 339 b 84 201 56 290 65 244 b 162 89 103 158 129 120 b 277 15 195 57 233 33 b 419 -12 321 -3 369 -12 b 560 15 469 -12 516 -3 b 676 89 604 33 643 57 b 753 201 709 120 734 158 b 782 339 772 244 782 290 b 753 478 782 388 772 434 b 676 592 734 521 709 559 b 560 668 643 624 604 650 b 419 696 516 687 469 696 b 277 668 369 696 321 687 b 162 592 233 650 195 624 b 84 478 129 559 103 521 b 56 339 65 434 56 388 z m 303 336 b 335 428 303 372 313 403 b 421 467 356 454 385 467 b 506 428 456 467 484 454 b 538 336 527 403 538 372 b 506 244 538 299 527 268 b 421 207 484 219 456 207 b 335 244 385 207 356 219 b 303 336 313 268 303 299 z m 151 881 b 183 803 151 851 162 825 b 260 771 205 782 230 771 b 338 803 291 771 317 782 b 369 881 359 825 369 851 b 338 958 369 910 359 936 b 260 990 317 979 291 990 b 183 958 230 990 205 979 b 151 881 162 936 151 910 z m 457 882 b 489 806 457 852 468 827 b 565 774 510 784 536 774 b 644 806 597 774 623 784 b 675 882 665 827 675 852 b 644 960 675 913 665 938 b 565 992 623 981 597 992 b 489 960 536 992 510 981 b 457 882 468 938 457 913 z "},"":{"ha":658,"x_min":0,"x_max":0,"o":"m 558 496 l 107 496 b 75 465 86 496 75 486 l 75 303 b 107 271 75 281 86 271 l 558 271 b 581 281 568 271 575 274 b 589 303 586 287 589 294 l 589 465 b 580 488 589 475 586 483 b 558 496 574 493 567 496 z m 224 681 b 256 603 224 651 234 625 b 333 571 278 582 304 571 b 412 603 365 571 391 582 b 443 681 433 625 443 651 b 412 758 443 710 433 736 b 333 790 391 779 365 790 b 256 758 304 790 278 779 b 224 681 234 736 224 710 z m 217 83 b 249 6 217 54 227 28 b 325 -26 270 -16 295 -26 b 403 6 356 -26 383 -16 b 435 83 424 28 435 54 b 403 160 435 113 424 139 b 325 193 383 182 356 193 b 249 160 295 193 270 182 b 217 83 227 139 217 113 z "},"":{"ha":838,"x_min":0,"x_max":0,"o":"m 301 336 b 333 428 301 372 312 403 b 419 467 355 454 383 467 b 506 428 456 467 484 454 b 538 336 527 403 538 372 b 506 244 538 299 527 268 b 419 207 484 219 456 207 b 333 244 383 207 355 219 b 301 336 312 268 301 299 z m 54 339 b 88 188 54 284 66 234 b 181 71 111 142 142 103 l 113 -72 b 111 -79 112 -75 111 -77 l 110 -82 b 131 -94 110 -90 117 -94 l 285 -94 b 300 -90 292 -94 297 -93 b 311 -72 303 -86 306 -81 l 346 -6 b 381 -11 358 -8 370 -10 b 418 -12 393 -12 405 -12 b 560 15 468 -12 515 -3 b 675 89 604 33 643 57 b 752 201 707 120 733 158 b 781 339 771 244 781 290 b 742 498 781 397 768 450 b 639 617 717 546 682 585 l 701 756 l 701 763 b 694 774 701 767 699 771 b 676 778 690 776 684 778 l 535 778 b 501 756 519 778 508 770 l 471 685 b 418 689 454 688 437 689 b 276 662 367 689 320 680 b 160 588 232 644 193 619 b 83 476 128 556 102 519 b 54 339 64 434 54 388 z "},"":{"ha":856,"x_min":0,"x_max":0,"o":"m 765 42 l 765 647 b 756 673 765 657 762 666 b 728 683 750 680 741 683 l 556 683 b 526 674 541 683 531 680 b 518 649 521 668 518 660 l 518 313 b 504 274 517 298 513 285 b 474 245 496 263 486 253 b 436 227 462 237 449 231 b 401 221 423 223 412 221 b 324 244 366 221 341 229 b 300 317 308 260 300 284 l 300 649 b 265 683 300 672 288 683 l 90 683 b 65 674 80 683 72 680 b 56 647 59 667 56 658 l 56 335 b 69 184 56 277 60 227 b 114 77 78 141 93 105 b 199 13 135 49 164 28 b 332 -8 235 -1 279 -8 b 399 2 354 -8 376 -5 b 461 28 421 9 442 18 b 513 63 481 39 498 50 b 549 94 528 75 540 85 b 576 29 556 70 565 49 b 632 0 588 10 606 0 l 722 0 b 765 42 751 0 765 14 z m 251 993 l 319 842 b 337 816 326 828 332 819 b 361 811 342 813 350 811 l 501 811 b 521 819 508 811 514 814 b 524 846 527 824 528 833 l 471 1000 b 456 1024 466 1011 461 1019 b 428 1031 450 1028 441 1031 l 271 1031 b 251 1019 262 1031 255 1027 b 251 993 247 1011 247 1002 z "},"":{"ha":856,"x_min":0,"x_max":0,"o":"m 765 42 l 765 647 b 756 673 765 657 762 666 b 728 683 750 680 741 683 l 556 683 b 526 674 541 683 531 680 b 518 649 521 668 518 660 l 518 313 b 504 274 517 298 513 285 b 474 245 496 263 486 253 b 436 227 462 237 449 231 b 401 221 423 223 412 221 b 324 244 366 221 341 229 b 300 317 308 260 300 284 l 300 649 b 265 683 300 672 288 683 l 90 683 b 65 674 80 683 72 680 b 56 647 59 667 56 658 l 56 335 b 69 184 56 277 60 227 b 114 77 78 141 93 105 b 199 13 135 49 164 28 b 332 -8 235 -1 279 -8 b 399 2 354 -8 376 -5 b 461 28 421 9 442 18 b 513 63 481 39 498 50 b 549 94 528 75 540 85 b 576 29 556 70 565 49 b 632 0 588 10 606 0 l 722 0 b 765 42 751 0 765 14 z m 524 842 l 592 993 b 592 1019 595 1002 595 1011 b 572 1031 588 1027 581 1031 l 415 1031 b 388 1024 402 1031 393 1028 b 372 999 382 1019 377 1011 l 319 844 b 322 817 315 831 316 822 b 342 810 329 812 335 810 l 481 810 b 506 815 493 810 501 811 b 524 842 511 818 517 827 z "},"":{"ha":856,"x_min":0,"x_max":0,"o":"m 765 42 l 765 647 b 756 673 765 657 762 666 b 728 683 750 680 741 683 l 556 683 b 526 674 541 683 531 680 b 518 649 521 668 518 660 l 518 313 b 504 274 517 298 513 285 b 474 245 496 263 486 253 b 436 227 462 237 449 231 b 401 221 423 223 412 221 b 324 244 366 221 341 229 b 300 317 308 260 300 284 l 300 649 b 265 683 300 672 288 683 l 90 683 b 65 674 80 683 72 680 b 56 647 59 667 56 658 l 56 335 b 69 184 56 277 60 227 b 114 77 78 141 93 105 b 199 13 135 49 164 28 b 332 -8 235 -1 279 -8 b 399 2 354 -8 376 -5 b 461 28 421 9 442 18 b 513 63 481 39 498 50 b 549 94 528 75 540 85 b 576 29 556 70 565 49 b 632 0 588 10 606 0 l 722 0 b 765 42 751 0 765 14 z m 599 919 l 433 1088 b 424 1095 430 1091 426 1094 b 411 1097 421 1097 417 1097 b 399 1094 406 1097 402 1096 b 389 1088 395 1091 392 1089 l 221 919 b 210 899 214 913 211 906 b 221 876 210 891 213 884 l 279 821 b 301 810 287 813 294 810 b 322 821 309 811 316 814 l 410 911 l 499 822 b 519 812 505 816 512 812 b 542 822 527 811 534 815 l 599 876 b 609 899 606 884 609 891 b 599 919 609 906 605 913 z "},"":{"ha":856,"x_min":0,"x_max":0,"o":"m 765 42 l 765 647 b 756 673 765 657 762 666 b 728 683 750 680 741 683 l 556 683 b 526 674 541 683 531 680 b 518 649 521 668 518 660 l 518 313 b 504 274 517 298 513 285 b 474 245 496 263 486 253 b 436 227 462 237 449 231 b 401 221 423 223 412 221 b 324 244 366 221 341 229 b 300 317 308 260 300 284 l 300 649 b 265 683 300 672 288 683 l 90 683 b 65 674 80 683 72 680 b 56 647 59 667 56 658 l 56 335 b 69 184 56 277 60 227 b 114 77 78 141 93 105 b 199 13 135 49 164 28 b 332 -8 235 -1 279 -8 b 399 2 354 -8 376 -5 b 461 28 421 9 442 18 b 513 63 481 39 498 50 b 549 94 528 75 540 85 b 576 29 556 70 565 49 b 632 0 588 10 606 0 l 722 0 b 765 42 751 0 765 14 z m 151 903 b 183 826 151 873 162 847 b 260 793 205 804 230 793 b 338 826 291 793 317 804 b 369 903 359 847 369 873 b 338 980 369 932 359 958 b 260 1013 317 1002 291 1013 b 183 980 230 1013 205 1002 b 151 903 162 958 151 932 z m 457 904 b 489 828 457 875 468 849 b 565 796 510 806 536 796 b 644 828 597 796 623 806 b 675 904 665 849 675 875 b 644 982 675 935 665 961 b 565 1014 623 1003 597 1014 b 489 982 536 1014 510 1003 b 457 904 468 961 457 935 z "},"":{"ha":806,"x_min":0,"x_max":0,"o":"m 29 639 l 292 -14 l 219 -226 b 217 -243 218 -236 217 -241 b 228 -263 217 -253 220 -260 b 250 -268 235 -266 243 -268 l 422 -268 b 448 -259 432 -268 441 -265 b 461 -237 455 -253 459 -246 b 527 -55 478 -187 500 -127 b 614 172 554 17 583 93 b 707 415 644 252 675 333 b 793 643 738 497 767 573 l 793 653 b 786 673 793 661 791 668 b 760 681 781 678 773 681 l 574 681 b 531 651 551 681 537 671 l 411 286 b 349 468 391 342 370 402 b 288 651 327 534 307 595 b 247 681 282 671 269 681 l 57 681 b 26 656 37 681 26 672 l 26 646 b 29 639 26 642 27 640 z m 526 847 l 594 999 b 594 1024 598 1008 598 1016 b 575 1036 591 1032 584 1036 l 418 1036 b 390 1029 405 1036 396 1034 b 375 1004 385 1025 380 1016 l 322 850 b 325 823 318 837 319 828 b 344 815 331 818 338 815 l 483 815 b 509 820 495 815 504 817 b 526 847 514 823 520 832 z "},"":{"ha":879,"x_min":0,"x_max":0,"o":"m 563 346 b 530 254 563 311 552 280 b 443 215 508 228 479 215 b 355 254 408 215 378 228 b 319 346 331 280 319 311 l 319 350 b 356 439 320 385 332 415 b 443 475 379 463 408 475 b 530 438 479 475 508 463 b 563 346 552 414 563 383 z m 129 -271 l 303 -271 b 329 -260 315 -271 324 -267 b 338 -235 335 -253 338 -245 l 338 50 b 360 29 345 41 352 34 b 406 1 373 17 388 8 b 475 -10 424 -6 447 -10 b 611 17 525 -10 570 -1 b 716 92 652 35 687 60 b 784 204 745 124 768 162 b 808 340 800 247 808 292 l 808 343 l 808 346 b 784 483 808 395 800 441 b 716 594 768 525 745 562 b 611 669 687 626 652 651 b 475 696 570 687 525 696 b 406 685 447 696 424 692 b 360 657 388 677 373 668 b 348 647 355 653 351 650 l 338 636 l 338 938 b 329 963 338 948 335 956 b 303 974 324 970 315 974 l 129 974 b 105 963 122 974 114 970 b 92 938 96 956 92 948 l 92 -235 b 105 -260 92 -245 96 -253 b 129 -271 114 -267 122 -271 z "},"":{"ha":806,"x_min":0,"x_max":0,"o":"m 29 639 l 292 -14 l 219 -226 b 217 -243 218 -236 217 -241 b 228 -263 217 -253 220 -260 b 250 -268 235 -266 243 -268 l 422 -268 b 448 -259 432 -268 441 -265 b 461 -237 455 -253 459 -246 b 527 -55 478 -187 500 -127 b 614 172 554 17 583 93 b 707 415 644 252 675 333 b 793 643 738 497 767 573 l 793 653 b 786 673 793 661 791 668 b 760 681 781 678 773 681 l 574 681 b 531 651 551 681 537 671 l 411 286 b 349 468 391 342 370 402 b 288 651 327 534 307 595 b 247 681 282 671 269 681 l 57 681 b 26 656 37 681 26 672 l 26 646 b 29 639 26 642 27 640 z m 156 881 b 188 803 156 851 166 825 b 264 771 209 782 234 771 b 342 803 295 771 322 782 b 374 881 363 825 374 851 b 342 958 374 910 363 936 b 264 990 322 979 295 990 b 188 958 234 990 209 979 b 156 881 166 936 156 910 z m 461 882 b 493 806 461 852 472 827 b 569 774 514 784 540 774 b 648 806 601 774 627 784 b 679 882 669 827 679 852 b 648 960 679 913 669 938 b 569 992 627 981 601 992 b 493 960 540 992 514 981 b 461 882 472 938 461 913 z "},"":{"ha":1063,"x_min":0,"x_max":0,"o":"m 407 1000 l 31 31 b 50 0 22 10 29 0 l 257 0 b 299 31 278 0 292 10 l 346 167 l 725 167 l 774 31 b 814 0 780 10 794 0 l 1021 0 b 1040 31 1042 0 1049 10 l 661 1000 b 619 1031 655 1020 641 1031 l 450 1031 b 407 1000 430 1031 415 1020 z m 424 389 l 533 706 l 644 389 z m 233 1296 l 233 1210 b 257 1182 233 1191 241 1182 l 778 1182 b 795 1192 785 1182 791 1185 b 801 1210 799 1198 801 1204 l 801 1296 b 778 1321 801 1313 794 1321 l 257 1321 b 233 1296 241 1321 233 1313 z "},"":{"ha":876,"x_min":0,"x_max":0,"o":"m 786 39 l 786 642 b 774 670 786 654 782 663 b 744 681 765 677 756 681 l 635 681 b 607 674 620 681 611 678 b 592 640 603 670 598 659 l 571 575 b 510 656 559 605 538 631 b 394 692 481 680 443 692 b 257 665 344 692 299 683 b 149 592 215 648 179 623 b 80 481 119 561 96 524 b 56 339 64 438 56 391 b 81 199 56 289 64 242 b 151 88 97 156 121 119 b 258 14 181 56 216 31 b 394 -12 299 -4 344 -12 l 403 -12 b 461 -3 426 -12 445 -9 b 501 19 477 3 490 10 b 530 50 513 29 522 39 b 551 81 538 61 545 71 l 567 40 b 580 11 571 28 576 19 b 610 0 584 4 594 0 l 744 0 b 773 10 755 0 764 3 b 786 39 782 16 786 26 z m 301 336 b 334 428 301 372 312 403 b 419 467 356 454 384 467 b 509 428 456 467 485 454 b 544 336 533 403 544 372 b 509 244 544 299 533 268 b 419 207 485 219 456 207 b 334 244 384 207 356 219 b 301 336 312 268 301 299 z m 146 946 l 146 860 b 169 832 146 841 154 832 l 690 832 b 708 842 698 832 703 835 b 714 860 712 848 714 854 l 714 946 b 690 971 714 963 706 971 l 169 971 b 146 946 154 971 146 963 z "},"":{"ha":1063,"x_min":0,"x_max":0,"o":"m 407 1000 l 31 31 b 50 0 22 10 29 0 l 257 0 b 299 31 278 0 292 10 l 346 167 l 725 167 l 774 31 b 814 0 780 10 794 0 l 1021 0 b 1040 31 1042 0 1049 10 l 661 1000 b 619 1031 655 1020 641 1031 l 450 1031 b 407 1000 430 1031 415 1020 z m 424 389 l 533 706 l 644 389 z m 511 1182 b 588 1197 539 1182 565 1187 b 649 1236 612 1207 632 1220 b 690 1292 666 1252 680 1270 b 706 1357 700 1313 706 1335 b 698 1375 706 1364 703 1370 b 679 1382 693 1380 687 1382 l 578 1382 b 564 1367 569 1382 564 1377 b 551 1338 564 1356 559 1347 b 514 1325 542 1329 530 1325 b 475 1338 496 1325 483 1329 b 463 1367 467 1347 463 1356 b 447 1382 463 1377 457 1382 l 347 1382 b 328 1375 340 1382 334 1380 b 321 1357 323 1370 321 1364 b 335 1292 321 1335 326 1313 b 376 1237 345 1272 359 1253 b 436 1198 393 1221 413 1208 b 511 1182 459 1188 484 1183 z "},"":{"ha":876,"x_min":0,"x_max":0,"o":"m 786 39 l 786 642 b 774 670 786 654 782 663 b 744 681 765 677 756 681 l 635 681 b 607 674 620 681 611 678 b 592 640 603 670 598 659 l 571 575 b 510 656 559 605 538 631 b 394 692 481 680 443 692 b 257 665 344 692 299 683 b 149 592 215 648 179 623 b 80 481 119 561 96 524 b 56 339 64 438 56 391 b 81 199 56 289 64 242 b 151 88 97 156 121 119 b 258 14 181 56 216 31 b 394 -12 299 -4 344 -12 l 403 -12 b 461 -3 426 -12 445 -9 b 501 19 477 3 490 10 b 530 50 513 29 522 39 b 551 81 538 61 545 71 l 567 40 b 580 11 571 28 576 19 b 610 0 584 4 594 0 l 744 0 b 773 10 755 0 764 3 b 786 39 782 16 786 26 z m 301 336 b 334 428 301 372 312 403 b 419 467 356 454 384 467 b 509 428 456 467 485 454 b 544 336 533 403 544 372 b 509 244 544 299 533 268 b 419 207 485 219 456 207 b 334 244 384 207 356 219 b 301 336 312 268 301 299 z m 418 832 b 495 847 446 832 472 837 b 556 886 519 857 539 870 b 597 942 573 902 587 920 b 613 1007 607 963 613 985 b 605 1025 613 1014 610 1020 b 586 1032 600 1030 594 1032 l 485 1032 b 471 1017 475 1032 471 1027 b 458 988 471 1006 466 997 b 421 975 449 979 437 975 b 382 988 403 975 390 979 b 369 1017 374 997 369 1006 b 354 1032 369 1027 364 1032 l 254 1032 b 235 1025 247 1032 241 1030 b 228 1007 230 1020 228 1014 b 242 942 228 985 233 963 b 283 887 252 922 266 903 b 343 848 300 871 320 858 b 418 832 366 838 391 833 z "},"":{"ha":1063,"x_min":0,"x_max":0,"o":"m 407 1000 l 31 31 b 50 0 22 10 29 0 l 257 0 b 299 31 278 0 292 10 l 346 167 l 725 167 l 774 31 b 814 0 780 10 794 0 l 1021 0 b 1040 31 1042 0 1049 10 l 661 1000 b 619 1031 655 1020 641 1031 l 450 1031 b 407 1000 430 1031 415 1020 z m 424 389 l 533 706 l 644 389 z m 981 8 l 797 8 b 813 -17 807 1 813 -7 b 790 -47 813 -28 805 -38 b 741 -78 775 -56 759 -67 b 692 -120 723 -90 706 -104 b 669 -183 677 -136 669 -157 b 686 -237 669 -200 675 -218 b 734 -292 697 -256 713 -274 b 808 -344 755 -310 780 -328 b 904 -385 837 -360 869 -374 l 908 -385 b 931 -369 915 -385 922 -380 b 954 -335 939 -359 947 -348 b 973 -297 962 -322 968 -309 b 981 -272 978 -285 981 -277 b 974 -257 981 -265 978 -260 b 854 -183 894 -236 854 -211 b 876 -144 854 -169 862 -156 b 924 -112 891 -133 907 -122 b 972 -76 941 -101 957 -89 b 994 -25 987 -62 994 -45 b 992 -10 994 -20 994 -15 b 981 8 991 -4 987 2 z "},"":{"ha":876,"x_min":0,"x_max":0,"o":"m 786 39 l 786 642 b 774 670 786 654 782 663 b 744 681 765 677 756 681 l 635 681 b 607 674 620 681 611 678 b 592 640 603 670 598 659 l 571 575 b 510 656 559 605 538 631 b 394 692 481 680 443 692 b 257 665 344 692 299 683 b 149 592 215 648 179 623 b 80 481 119 561 96 524 b 56 339 64 438 56 391 b 81 199 56 289 64 242 b 151 88 97 156 121 119 b 258 14 181 56 216 31 b 394 -12 299 -4 344 -12 l 403 -12 b 461 -3 426 -12 445 -9 b 501 19 477 3 490 10 b 530 50 513 29 522 39 b 551 81 538 61 545 71 l 567 40 b 580 11 571 28 576 19 b 610 0 584 4 594 0 l 744 0 b 773 10 755 0 764 3 b 786 39 782 16 786 26 z m 301 336 b 334 428 301 372 312 403 b 419 467 356 454 384 467 b 509 428 456 467 485 454 b 544 336 533 403 544 372 b 509 244 544 299 533 268 b 419 207 485 219 456 207 b 334 244 384 207 356 219 b 301 336 312 268 301 299 z m 772 71 l 589 71 b 604 46 599 63 604 55 b 582 15 604 35 597 25 b 533 -16 567 6 551 -4 b 483 -58 515 -28 498 -41 b 461 -121 469 -74 461 -95 b 478 -174 461 -137 467 -155 b 526 -230 489 -193 505 -212 b 600 -281 547 -248 571 -265 b 696 -322 629 -297 661 -311 l 700 -322 b 722 -307 706 -322 714 -317 b 746 -272 731 -297 738 -285 b 765 -235 753 -259 759 -247 b 772 -210 770 -223 772 -214 b 765 -194 772 -202 770 -197 b 646 -121 686 -173 646 -149 b 668 -82 646 -106 653 -93 b 716 -49 683 -71 699 -60 b 764 -13 733 -39 749 -27 b 786 38 779 0 786 17 b 784 53 786 42 785 47 b 772 71 783 58 779 64 z "},"":{"ha":978,"x_min":0,"x_max":0,"o":"m 749 290 b 685 256 730 277 709 266 b 604 240 661 245 634 240 b 497 262 565 240 529 247 b 411 321 464 276 435 296 b 355 409 387 346 368 375 b 335 518 341 443 335 479 b 355 626 335 557 341 593 b 411 713 368 660 387 689 b 497 771 435 738 464 757 b 604 792 529 785 565 792 b 682 780 633 792 659 788 b 751 740 705 772 728 759 b 774 730 759 734 766 730 b 794 740 782 729 789 733 l 915 914 b 918 932 918 919 919 925 b 906 950 917 939 913 945 b 773 1019 867 977 822 1000 b 604 1047 723 1038 667 1047 b 397 1006 531 1047 462 1034 b 227 893 332 979 276 941 b 113 725 178 845 140 789 b 71 518 85 661 71 592 b 113 311 71 445 85 376 b 227 141 140 246 178 190 b 397 26 276 92 332 54 b 604 -15 462 -1 531 -15 b 773 12 667 -15 723 -6 b 903 79 822 30 866 52 b 921 99 913 87 919 93 b 913 124 923 105 920 113 l 799 290 b 776 303 792 300 785 304 b 749 290 768 302 759 298 z m 693 1196 l 761 1347 b 761 1373 765 1356 765 1365 b 742 1385 757 1381 751 1385 l 585 1385 b 557 1378 572 1385 563 1382 b 542 1353 551 1373 546 1365 l 489 1199 b 492 1172 484 1186 485 1177 b 511 1164 498 1166 505 1164 l 650 1164 b 676 1169 662 1164 671 1166 b 693 1196 681 1172 687 1181 z "},"":{"ha":690,"x_min":0,"x_max":0,"o":"m 514 239 l 513 239 b 465 216 500 230 485 222 b 413 207 446 210 428 207 b 328 244 377 207 349 219 b 296 336 306 269 296 300 b 328 428 296 371 306 402 b 413 467 349 454 377 467 b 467 458 428 467 446 464 b 513 436 487 453 502 445 b 535 429 521 431 528 429 b 563 450 547 429 556 436 l 631 574 b 636 590 634 578 636 584 b 628 615 636 600 634 609 b 610 632 623 622 617 627 b 517 677 580 650 549 665 b 411 696 485 690 450 696 b 274 668 363 696 317 687 b 161 592 231 650 194 624 b 84 478 129 559 103 521 b 56 339 65 434 56 388 b 84 201 56 290 65 244 b 161 89 103 158 129 120 b 274 15 194 57 231 33 b 411 -12 317 -3 363 -12 b 521 6 450 -12 487 -6 b 617 51 555 18 587 33 b 634 65 623 55 629 59 b 643 85 639 70 642 76 b 636 103 643 90 641 96 l 576 196 b 556 227 569 207 562 217 b 532 243 550 237 542 242 b 514 239 528 243 522 242 z m 465 847 l 533 999 b 533 1024 537 1008 537 1016 b 514 1036 530 1032 523 1036 l 357 1036 b 329 1029 344 1036 335 1034 b 314 1004 324 1025 319 1016 l 261 850 b 264 823 256 837 257 828 b 283 815 270 818 277 815 l 422 815 b 448 820 434 815 443 817 b 465 847 453 823 459 832 z "},"":{"ha":978,"x_min":0,"x_max":0,"o":"m 749 290 b 685 256 730 277 709 266 b 604 240 661 245 634 240 b 497 262 565 240 529 247 b 411 321 464 276 435 296 b 355 409 387 346 368 375 b 335 518 341 443 335 479 b 355 626 335 557 341 593 b 411 713 368 660 387 689 b 497 771 435 738 464 757 b 604 792 529 785 565 792 b 682 780 633 792 659 788 b 751 740 705 772 728 759 b 774 730 759 734 766 730 b 794 740 782 729 789 733 l 915 914 b 918 932 918 919 919 925 b 906 950 917 939 913 945 b 773 1019 867 977 822 1000 b 604 1047 723 1038 667 1047 b 397 1006 531 1047 462 1034 b 227 893 332 979 276 941 b 113 725 178 845 140 789 b 71 518 85 661 71 592 b 113 311 71 445 85 376 b 227 141 140 246 178 190 b 397 26 276 92 332 54 b 604 -15 462 -1 531 -15 b 773 12 667 -15 723 -6 b 903 79 822 30 866 52 b 921 99 913 87 919 93 b 913 124 923 105 920 113 l 799 290 b 776 303 792 300 785 304 b 749 290 768 302 759 298 z m 763 1268 l 597 1436 b 588 1444 594 1440 590 1442 b 575 1446 585 1445 581 1446 b 563 1442 570 1446 566 1445 b 553 1436 559 1440 556 1438 l 385 1268 b 374 1247 378 1262 375 1255 b 385 1225 374 1240 377 1232 l 443 1169 b 465 1159 450 1162 458 1159 b 486 1169 473 1159 480 1163 l 574 1260 l 663 1171 b 683 1160 669 1164 676 1161 b 706 1171 691 1160 698 1163 l 763 1225 b 763 1268 777 1240 777 1254 z "},"":{"ha":690,"x_min":0,"x_max":0,"o":"m 514 239 l 513 239 b 465 216 500 230 485 222 b 413 207 446 210 428 207 b 328 244 377 207 349 219 b 296 336 306 269 296 300 b 328 428 296 371 306 402 b 413 467 349 454 377 467 b 467 458 428 467 446 464 b 513 436 487 453 502 445 b 535 429 521 431 528 429 b 563 450 547 429 556 436 l 631 574 b 636 590 634 578 636 584 b 628 615 636 600 634 609 b 610 632 623 622 617 627 b 517 677 580 650 549 665 b 411 696 485 690 450 696 b 274 668 363 696 317 687 b 161 592 231 650 194 624 b 84 478 129 559 103 521 b 56 339 65 434 56 388 b 84 201 56 290 65 244 b 161 89 103 158 129 120 b 274 15 194 57 231 33 b 411 -12 317 -3 363 -12 b 521 6 450 -12 487 -6 b 617 51 555 18 587 33 b 634 65 623 55 629 59 b 643 85 639 70 642 76 b 636 103 643 90 641 96 l 576 196 b 556 227 569 207 562 217 b 532 243 550 237 542 242 b 514 239 528 243 522 242 z m 568 851 l 403 1019 b 393 1027 399 1023 396 1026 b 381 1029 390 1028 386 1029 b 368 1026 376 1029 372 1028 b 358 1019 364 1023 361 1021 l 190 851 b 180 831 184 845 180 838 b 190 808 179 823 183 816 l 249 753 b 271 742 256 745 263 742 b 292 753 278 743 285 746 l 379 843 l 468 754 b 489 744 475 748 481 744 b 511 754 496 743 504 747 l 568 808 b 578 831 575 816 579 823 b 568 851 578 838 575 845 z "},"":{"ha":978,"x_min":0,"x_max":0,"o":"m 749 290 b 685 256 730 277 709 266 b 604 240 661 245 634 240 b 497 262 565 240 529 247 b 411 321 464 276 435 296 b 355 409 387 346 368 375 b 335 518 341 443 335 479 b 355 626 335 557 341 593 b 411 713 368 660 387 689 b 497 771 435 738 464 757 b 604 792 529 785 565 792 b 682 780 633 792 659 788 b 751 740 705 772 728 759 b 774 730 759 734 766 730 b 794 740 782 729 789 733 l 915 914 b 918 932 918 919 919 925 b 906 950 917 939 913 945 b 773 1019 867 977 822 1000 b 604 1047 723 1038 667 1047 b 397 1006 531 1047 462 1034 b 227 893 332 979 276 941 b 113 725 178 845 140 789 b 71 518 85 661 71 592 b 113 311 71 445 85 376 b 227 141 140 246 178 190 b 397 26 276 92 332 54 b 604 -15 462 -1 531 -15 b 773 12 667 -15 723 -6 b 903 79 822 30 866 52 b 921 99 913 87 919 93 b 913 124 923 105 920 113 l 799 290 b 776 303 792 300 785 304 b 749 290 768 302 759 298 z m 464 1235 b 501 1145 464 1200 476 1170 b 589 1108 525 1121 555 1108 b 679 1145 625 1108 655 1121 b 715 1235 703 1170 715 1200 b 679 1324 715 1270 703 1300 b 589 1361 655 1349 625 1361 b 501 1324 555 1361 525 1349 b 464 1235 476 1300 464 1270 z "},"":{"ha":690,"x_min":0,"x_max":0,"o":"m 514 239 l 513 239 b 465 216 500 230 485 222 b 413 207 446 210 428 207 b 328 244 377 207 349 219 b 296 336 306 269 296 300 b 328 428 296 371 306 402 b 413 467 349 454 377 467 b 467 458 428 467 446 464 b 513 436 487 453 502 445 b 535 429 521 431 528 429 b 563 450 547 429 556 436 l 631 574 b 636 590 634 578 636 584 b 628 615 636 600 634 609 b 610 632 623 622 617 627 b 517 677 580 650 549 665 b 411 696 485 690 450 696 b 274 668 363 696 317 687 b 161 592 231 650 194 624 b 84 478 129 559 103 521 b 56 339 65 434 56 388 b 84 201 56 290 65 244 b 161 89 103 158 129 120 b 274 15 194 57 231 33 b 411 -12 317 -3 363 -12 b 521 6 450 -12 487 -6 b 617 51 555 18 587 33 b 634 65 623 55 629 59 b 643 85 639 70 642 76 b 636 103 643 90 641 96 l 576 196 b 556 227 569 207 562 217 b 532 243 550 237 542 242 b 514 239 528 243 522 242 z m 261 928 b 298 838 261 893 273 863 b 386 801 322 814 352 801 b 476 838 422 801 452 814 b 513 928 500 863 513 893 b 476 1017 513 963 500 993 b 386 1054 452 1042 422 1054 b 298 1017 352 1054 322 1042 b 261 928 273 993 261 963 z "},"":{"ha":978,"x_min":0,"x_max":0,"o":"m 749 290 b 685 256 730 277 709 266 b 604 240 661 245 634 240 b 497 262 565 240 529 247 b 411 321 464 276 435 296 b 355 409 387 346 368 375 b 335 518 341 443 335 479 b 355 626 335 557 341 593 b 411 713 368 660 387 689 b 497 771 435 738 464 757 b 604 792 529 785 565 792 b 682 780 633 792 659 788 b 751 740 705 772 728 759 b 774 730 759 734 766 730 b 794 740 782 729 789 733 l 915 914 b 918 932 918 919 919 925 b 906 950 917 939 913 945 b 773 1019 867 977 822 1000 b 604 1047 723 1038 667 1047 b 397 1006 531 1047 462 1034 b 227 893 332 979 276 941 b 113 725 178 845 140 789 b 71 518 85 661 71 592 b 113 311 71 445 85 376 b 227 141 140 246 178 190 b 397 26 276 92 332 54 b 604 -15 462 -1 531 -15 b 773 12 667 -15 723 -6 b 903 79 822 30 866 52 b 921 99 913 87 919 93 b 913 124 923 105 920 113 l 799 290 b 776 303 792 300 785 304 b 749 290 768 302 759 298 z m 369 1326 l 560 1135 b 568 1130 563 1133 566 1131 b 575 1128 570 1128 572 1128 b 589 1135 578 1128 582 1130 l 782 1326 b 788 1342 786 1330 788 1335 b 781 1356 788 1344 785 1349 l 706 1432 b 688 1439 699 1437 693 1439 b 672 1433 681 1439 676 1437 l 575 1335 l 476 1433 b 468 1437 474 1435 471 1436 b 461 1439 465 1437 463 1438 b 446 1432 454 1439 449 1437 l 369 1357 b 364 1342 366 1354 364 1349 b 369 1326 364 1334 366 1329 z "},"":{"ha":690,"x_min":0,"x_max":0,"o":"m 514 239 l 513 239 b 465 216 500 230 485 222 b 413 207 446 210 428 207 b 328 244 377 207 349 219 b 296 336 306 269 296 300 b 328 428 296 371 306 402 b 413 467 349 454 377 467 b 467 458 428 467 446 464 b 513 436 487 453 502 445 b 535 429 521 431 528 429 b 563 450 547 429 556 436 l 631 574 b 636 590 634 578 636 584 b 628 615 636 600 634 609 b 610 632 623 622 617 627 b 517 677 580 650 549 665 b 411 696 485 690 450 696 b 274 668 363 696 317 687 b 161 592 231 650 194 624 b 84 478 129 559 103 521 b 56 339 65 434 56 388 b 84 201 56 290 65 244 b 161 89 103 158 129 120 b 274 15 194 57 231 33 b 411 -12 317 -3 363 -12 b 521 6 450 -12 487 -6 b 617 51 555 18 587 33 b 634 65 623 55 629 59 b 643 85 639 70 642 76 b 636 103 643 90 641 96 l 576 196 b 556 227 569 207 562 217 b 532 243 550 237 542 242 b 514 239 528 243 522 242 z m 172 978 l 363 786 b 371 781 366 784 369 783 b 378 779 373 780 375 779 b 392 786 381 779 385 781 l 585 978 b 590 993 588 981 590 987 b 583 1007 590 996 588 1000 l 508 1083 b 490 1090 502 1088 496 1090 b 475 1085 484 1090 479 1088 l 378 986 l 279 1085 b 271 1088 276 1087 274 1088 b 264 1090 268 1089 266 1089 b 249 1083 256 1090 251 1088 l 172 1008 b 167 993 169 1006 167 1000 b 172 978 167 986 169 981 z "},"":{"ha":1064,"x_min":0,"x_max":0,"o":"m 114 1000 l 114 31 b 143 0 114 10 124 0 l 504 0 b 705 42 575 0 642 14 b 868 156 767 71 822 109 b 978 321 914 204 951 259 b 1018 515 1005 383 1018 448 b 974 717 1018 587 1003 654 b 858 881 945 780 906 834 b 694 990 810 927 755 963 b 504 1031 632 1017 569 1031 l 143 1031 b 114 1000 124 1031 114 1020 z m 749 515 b 728 410 749 478 742 443 b 672 325 715 378 696 349 b 587 267 648 301 620 282 b 479 246 554 253 518 246 l 382 246 l 382 785 l 479 785 b 587 763 518 785 554 778 b 672 706 620 749 648 730 b 728 620 696 681 715 653 b 749 515 742 587 749 552 z m 271 1328 l 461 1136 b 469 1131 465 1134 468 1133 b 476 1129 471 1130 474 1129 b 490 1136 479 1129 484 1131 l 683 1328 b 689 1343 687 1331 689 1337 b 682 1357 689 1346 687 1350 l 607 1433 b 589 1440 600 1438 594 1440 b 574 1435 582 1440 577 1438 l 476 1336 l 378 1435 b 369 1438 375 1437 372 1438 b 363 1440 367 1439 364 1439 b 347 1433 355 1440 350 1438 l 271 1358 b 265 1343 267 1356 265 1350 b 271 1328 265 1336 267 1331 z "},"":{"ha":863,"x_min":0,"x_max":0,"o":"m 556 79 b 576 26 563 61 570 43 b 610 0 583 9 594 0 l 744 0 b 772 36 763 3 772 15 l 772 996 b 759 1022 772 1006 768 1015 b 735 1032 750 1028 742 1032 l 561 1032 b 535 1022 549 1032 540 1028 b 526 996 529 1015 526 1006 l 526 628 b 472 670 511 644 493 659 b 389 688 452 682 424 688 b 253 660 339 688 294 678 b 148 585 212 642 177 617 b 80 474 119 553 96 516 b 56 338 64 432 56 387 b 81 201 56 289 64 244 b 149 90 97 159 120 122 b 253 15 178 59 213 34 b 383 -12 293 -3 336 -12 b 483 7 426 -12 459 -6 b 556 79 507 20 531 44 z m 308 336 b 341 428 308 371 319 402 b 428 467 363 454 392 467 b 516 428 463 467 492 454 b 551 336 540 402 551 371 l 551 332 b 515 243 550 297 538 267 b 428 207 492 219 463 207 b 341 244 392 207 363 219 b 308 336 319 268 308 299 z m 738 1146 b 766 1073 738 1119 747 1095 b 833 1033 785 1051 807 1038 l 833 1028 b 827 999 833 1016 831 1006 b 814 982 823 992 819 987 b 804 965 810 975 807 970 b 800 951 801 961 800 956 b 811 931 800 944 804 937 l 840 908 b 849 903 844 906 847 905 b 860 901 852 902 855 901 b 888 916 867 901 877 906 b 922 960 900 926 911 940 b 951 1033 933 979 943 1004 b 963 1138 959 1063 963 1098 b 931 1226 963 1175 952 1204 b 849 1260 909 1249 882 1260 b 770 1227 818 1260 792 1249 b 738 1146 748 1205 738 1178 z "},"":{"ha":1074,"x_min":0,"x_max":0,"o":"m 113 1000 l 113 31 b 142 0 113 10 122 0 l 503 0 b 703 42 574 0 641 14 b 867 156 766 71 820 109 b 976 321 913 204 950 259 b 1017 515 1003 383 1017 448 b 973 717 1017 587 1002 654 b 857 881 944 780 905 834 b 692 990 809 927 754 963 b 503 1031 631 1017 568 1031 l 142 1031 b 113 1000 122 1031 113 1020 z m 747 515 b 727 410 747 478 741 443 b 671 325 714 378 695 349 b 585 267 647 301 618 282 b 478 246 553 253 517 246 l 381 246 l 381 785 l 478 785 b 585 763 517 785 553 778 b 671 706 618 749 647 730 b 727 620 695 681 714 653 b 747 515 741 587 747 552 z m 21 569 l 21 442 b 47 413 21 422 30 413 l 460 413 b 478 422 467 413 473 416 b 486 442 484 429 486 435 l 486 569 b 460 597 486 588 477 597 l 47 597 b 21 569 30 597 21 588 z "},"":{"ha":863,"x_min":0,"x_max":0,"o":"m 429 890 l 429 800 b 456 767 429 778 438 767 l 840 767 b 860 778 849 767 855 770 b 867 800 864 785 867 793 l 867 890 b 859 913 867 900 864 908 b 840 921 854 918 848 921 l 456 921 b 429 890 438 921 429 911 z m 556 79 b 576 26 563 61 570 43 b 610 0 583 9 594 0 l 744 0 b 772 36 763 3 772 15 l 772 996 b 759 1022 772 1006 768 1015 b 735 1032 750 1028 742 1032 l 561 1032 b 535 1022 549 1032 540 1028 b 526 996 529 1015 526 1006 l 526 628 b 472 670 511 644 493 659 b 389 688 452 682 424 688 b 253 660 339 688 294 678 b 148 585 212 642 177 617 b 80 474 119 553 96 516 b 56 338 64 432 56 387 b 81 201 56 289 64 244 b 149 90 97 159 120 122 b 253 15 178 59 213 34 b 383 -12 293 -3 336 -12 b 483 7 426 -12 459 -6 b 556 79 507 20 531 44 z m 308 336 b 341 428 308 371 319 402 b 428 467 363 454 392 467 b 516 428 463 467 492 454 b 551 336 540 402 551 371 l 551 332 b 515 243 550 297 538 267 b 428 207 492 219 463 207 b 341 244 392 207 363 219 b 308 336 319 268 308 299 z "},"":{"ha":938,"x_min":0,"x_max":0,"o":"m 111 1000 l 111 31 b 142 0 111 10 121 0 l 846 0 b 876 31 866 0 876 10 l 876 207 b 846 238 876 227 866 238 l 379 238 l 379 415 l 724 415 b 757 446 746 415 757 425 l 757 589 b 724 621 757 610 746 621 l 379 621 l 379 792 l 832 792 b 863 822 852 792 863 802 l 863 1000 b 832 1031 863 1020 852 1031 l 142 1031 b 111 1000 121 1031 111 1020 z m 197 1296 l 197 1210 b 221 1182 197 1191 205 1182 l 742 1182 b 759 1192 749 1182 755 1185 b 765 1210 763 1198 765 1204 l 765 1296 b 742 1321 765 1313 757 1321 l 221 1321 b 197 1296 205 1321 197 1313 z "},"":{"ha":786,"x_min":0,"x_max":0,"o":"m 628 57 b 649 89 642 66 649 77 b 642 110 649 97 646 104 l 572 210 b 549 224 564 219 556 224 b 532 217 542 224 537 222 b 510 204 527 213 520 209 b 463 185 498 197 482 190 b 407 176 444 179 425 176 b 335 200 385 176 361 184 b 282 272 309 216 291 240 l 625 272 b 709 294 667 272 695 279 b 731 364 723 308 731 331 b 703 494 731 410 722 453 b 630 599 685 534 661 569 b 522 670 599 629 563 653 b 393 696 481 687 438 696 b 258 667 345 696 300 686 b 151 588 217 647 181 621 b 81 474 122 555 98 517 b 56 339 64 431 56 386 b 83 199 56 289 65 242 b 160 86 102 156 127 119 b 273 10 192 54 230 28 b 410 -18 316 -9 362 -18 b 628 57 492 -18 565 7 z m 397 501 b 474 477 430 501 455 493 b 518 424 492 461 507 443 l 286 424 b 331 478 296 444 311 462 b 397 501 350 494 372 501 z m 101 946 l 101 860 b 125 832 101 841 109 832 l 646 832 b 663 842 653 832 659 835 b 669 860 667 848 669 854 l 669 946 b 646 971 669 963 662 971 l 125 971 b 101 946 109 971 101 963 z "},"":{"ha":938,"x_min":0,"x_max":0,"o":"m 111 1000 l 111 31 b 142 0 111 10 121 0 l 846 0 b 876 31 866 0 876 10 l 876 207 b 846 238 876 227 866 238 l 379 238 l 379 415 l 724 415 b 757 446 746 415 757 425 l 757 589 b 724 621 757 610 746 621 l 379 621 l 379 792 l 832 792 b 863 822 852 792 863 802 l 863 1000 b 832 1031 863 1020 852 1031 l 142 1031 b 111 1000 121 1031 111 1020 z m 483 1182 b 560 1197 511 1182 537 1187 b 622 1236 584 1207 604 1220 b 663 1292 639 1252 652 1270 b 678 1357 673 1313 678 1335 b 670 1375 678 1364 675 1370 b 651 1382 665 1380 659 1382 l 550 1382 b 536 1367 541 1382 536 1377 b 523 1338 536 1356 532 1347 b 486 1325 514 1329 502 1325 b 447 1338 469 1325 456 1329 b 435 1367 439 1347 435 1356 b 419 1382 435 1377 430 1382 l 319 1382 b 301 1375 312 1382 306 1380 b 293 1357 296 1370 293 1364 b 308 1292 293 1335 298 1313 b 348 1237 317 1272 331 1253 b 408 1198 365 1221 385 1208 b 483 1182 431 1188 456 1183 z "},"":{"ha":786,"x_min":0,"x_max":0,"o":"m 628 57 b 649 89 642 66 649 77 b 642 110 649 97 646 104 l 572 210 b 549 224 564 219 556 224 b 532 217 542 224 537 222 b 510 204 527 213 520 209 b 463 185 498 197 482 190 b 407 176 444 179 425 176 b 335 200 385 176 361 184 b 282 272 309 216 291 240 l 625 272 b 709 294 667 272 695 279 b 731 364 723 308 731 331 b 703 494 731 410 722 453 b 630 599 685 534 661 569 b 522 670 599 629 563 653 b 393 696 481 687 438 696 b 258 667 345 696 300 686 b 151 588 217 647 181 621 b 81 474 122 555 98 517 b 56 339 64 431 56 386 b 83 199 56 289 65 242 b 160 86 102 156 127 119 b 273 10 192 54 230 28 b 410 -18 316 -9 362 -18 b 628 57 492 -18 565 7 z m 397 501 b 474 477 430 501 455 493 b 518 424 492 461 507 443 l 286 424 b 331 478 296 444 311 462 b 397 501 350 494 372 501 z m 399 832 b 476 847 426 832 452 837 b 537 886 499 857 520 870 b 578 942 554 902 568 920 b 593 1007 588 963 593 985 b 585 1025 593 1014 591 1020 b 567 1032 580 1030 574 1032 l 465 1032 b 451 1017 456 1032 451 1027 b 438 988 451 1006 447 997 b 401 975 429 979 417 975 b 363 988 384 975 371 979 b 350 1017 354 997 350 1006 b 335 1032 350 1027 345 1032 l 235 1032 b 216 1025 227 1032 221 1030 b 208 1007 211 1020 208 1014 b 223 942 208 985 213 963 b 263 887 233 922 246 903 b 324 848 280 871 300 858 b 399 832 347 838 372 833 z "},"":{"ha":938,"x_min":0,"x_max":0,"o":"m 111 1000 l 111 31 b 142 0 111 10 121 0 l 846 0 b 876 31 866 0 876 10 l 876 207 b 846 238 876 227 866 238 l 379 238 l 379 415 l 724 415 b 757 446 746 415 757 425 l 757 589 b 724 621 757 610 746 621 l 379 621 l 379 792 l 832 792 b 863 822 852 792 863 802 l 863 1000 b 832 1031 863 1020 852 1031 l 142 1031 b 111 1000 121 1031 111 1020 z m 378 1278 b 415 1188 378 1243 390 1213 b 503 1151 439 1164 469 1151 b 593 1188 539 1151 569 1164 b 629 1278 617 1213 629 1243 b 593 1367 629 1313 617 1343 b 503 1404 569 1392 539 1404 b 415 1367 469 1404 439 1392 b 378 1278 390 1343 378 1313 z "},"":{"ha":786,"x_min":0,"x_max":0,"o":"m 628 57 b 649 89 642 66 649 77 b 642 110 649 97 646 104 l 572 210 b 549 224 564 219 556 224 b 532 217 542 224 537 222 b 510 204 527 213 520 209 b 463 185 498 197 482 190 b 407 176 444 179 425 176 b 335 200 385 176 361 184 b 282 272 309 216 291 240 l 625 272 b 709 294 667 272 695 279 b 731 364 723 308 731 331 b 703 494 731 410 722 453 b 630 599 685 534 661 569 b 522 670 599 629 563 653 b 393 696 481 687 438 696 b 258 667 345 696 300 686 b 151 588 217 647 181 621 b 81 474 122 555 98 517 b 56 339 64 431 56 386 b 83 199 56 289 65 242 b 160 86 102 156 127 119 b 273 10 192 54 230 28 b 410 -18 316 -9 362 -18 b 628 57 492 -18 565 7 z m 397 501 b 474 477 430 501 455 493 b 518 424 492 461 507 443 l 286 424 b 331 478 296 444 311 462 b 397 501 350 494 372 501 z m 265 919 b 302 830 265 884 278 854 b 390 793 327 805 356 793 b 481 830 426 793 456 805 b 517 919 505 854 517 884 b 481 1009 517 955 505 984 b 390 1046 456 1034 426 1046 b 302 1009 356 1046 327 1034 b 265 919 278 984 265 955 z "},"":{"ha":938,"x_min":0,"x_max":0,"o":"m 111 1000 l 111 31 b 142 0 111 10 121 0 l 846 0 b 876 31 866 0 876 10 l 876 207 b 846 238 876 227 866 238 l 379 238 l 379 415 l 724 415 b 757 446 746 415 757 425 l 757 589 b 724 621 757 610 746 621 l 379 621 l 379 792 l 832 792 b 863 822 852 792 863 802 l 863 1000 b 832 1031 863 1020 852 1031 l 142 1031 b 111 1000 121 1031 111 1020 z m 831 0 l 647 0 b 663 -25 657 -7 663 -16 b 640 -56 663 -36 655 -46 b 591 -87 625 -65 609 -75 b 542 -128 573 -98 556 -112 b 519 -192 527 -145 519 -166 b 536 -245 519 -208 525 -226 b 584 -301 547 -264 563 -283 b 658 -352 605 -319 630 -336 b 754 -393 687 -368 719 -382 l 758 -393 b 781 -378 765 -393 772 -388 b 804 -343 789 -368 797 -356 b 823 -306 812 -330 818 -318 b 831 -281 828 -294 831 -285 b 824 -265 831 -273 828 -268 b 704 -192 744 -244 704 -219 b 726 -153 704 -177 712 -164 b 774 -120 741 -142 757 -131 b 822 -84 791 -109 807 -97 b 844 -33 837 -71 844 -54 b 842 -18 844 -29 844 -24 b 831 0 841 -12 837 -6 z "},"":{"ha":786,"x_min":0,"x_max":0,"o":"m 628 57 b 649 89 642 66 649 77 b 642 110 649 97 646 104 l 572 210 b 549 224 564 219 556 224 b 532 217 542 224 537 222 b 510 204 527 213 520 209 b 463 185 498 197 482 190 b 407 176 444 179 425 176 b 335 200 385 176 361 184 b 282 272 309 216 291 240 l 625 272 b 709 294 667 272 695 279 b 731 364 723 308 731 331 b 703 494 731 410 722 453 b 630 599 685 534 661 569 b 522 670 599 629 563 653 b 393 696 481 687 438 696 b 258 667 345 696 300 686 b 151 588 217 647 181 621 b 81 474 122 555 98 517 b 56 339 64 431 56 386 b 83 199 56 289 65 242 b 160 86 102 156 127 119 b 273 10 192 54 230 28 b 410 -18 316 -9 362 -18 b 628 57 492 -18 565 7 z m 397 501 b 474 477 430 501 455 493 b 518 424 492 461 507 443 l 286 424 b 331 478 296 444 311 462 b 397 501 350 494 372 501 z m 636 114 l 453 114 b 468 89 463 106 468 98 b 446 58 468 78 461 68 b 397 27 431 49 415 39 b 347 -15 378 16 362 2 b 325 -78 332 -31 325 -52 b 342 -131 325 -94 331 -112 b 390 -187 353 -150 369 -169 b 464 -238 410 -205 435 -222 b 560 -279 493 -254 525 -268 l 564 -279 b 586 -264 570 -279 578 -274 b 610 -229 594 -254 602 -242 b 628 -192 617 -216 623 -204 b 636 -167 634 -180 636 -171 b 629 -151 636 -159 634 -154 b 510 -78 550 -130 510 -106 b 532 -39 510 -63 517 -50 b 580 -6 547 -28 563 -17 b 628 30 597 4 613 16 b 650 81 643 43 650 60 b 648 96 650 85 649 90 b 636 114 647 101 643 107 z "},"":{"ha":938,"x_min":0,"x_max":0,"o":"m 111 1000 l 111 31 b 142 0 111 10 121 0 l 846 0 b 876 31 866 0 876 10 l 876 207 b 846 238 876 227 866 238 l 379 238 l 379 415 l 724 415 b 757 446 746 415 757 425 l 757 589 b 724 621 757 610 746 621 l 379 621 l 379 792 l 832 792 b 863 822 852 792 863 802 l 863 1000 b 832 1031 863 1020 852 1031 l 142 1031 b 111 1000 121 1031 111 1020 z m 290 1328 l 481 1136 b 489 1131 484 1134 487 1133 b 496 1129 491 1130 493 1129 b 510 1136 499 1129 503 1131 l 703 1328 b 708 1343 706 1331 708 1337 b 701 1357 708 1346 706 1350 l 626 1433 b 608 1440 620 1438 614 1440 b 593 1435 602 1440 597 1438 l 496 1336 l 397 1435 b 389 1438 394 1437 392 1438 b 382 1440 386 1439 384 1439 b 367 1433 375 1440 369 1438 l 290 1358 b 285 1343 287 1356 285 1350 b 290 1328 285 1336 287 1331 z "},"":{"ha":786,"x_min":0,"x_max":0,"o":"m 628 57 b 649 89 642 66 649 77 b 642 110 649 97 646 104 l 572 210 b 549 224 564 219 556 224 b 532 217 542 224 537 222 b 510 204 527 213 520 209 b 463 185 498 197 482 190 b 407 176 444 179 425 176 b 335 200 385 176 361 184 b 282 272 309 216 291 240 l 625 272 b 709 294 667 272 695 279 b 731 364 723 308 731 331 b 703 494 731 410 722 453 b 630 599 685 534 661 569 b 522 670 599 629 563 653 b 393 696 481 687 438 696 b 258 667 345 696 300 686 b 151 588 217 647 181 621 b 81 474 122 555 98 517 b 56 339 64 431 56 386 b 83 199 56 289 65 242 b 160 86 102 156 127 119 b 273 10 192 54 230 28 b 410 -18 316 -9 362 -18 b 628 57 492 -18 565 7 z m 397 501 b 474 477 430 501 455 493 b 518 424 492 461 507 443 l 286 424 b 331 478 296 444 311 462 b 397 501 350 494 372 501 z m 197 978 l 388 786 b 396 781 391 784 394 783 b 403 779 398 780 400 779 b 417 786 406 779 410 781 l 610 978 b 615 993 613 981 615 987 b 608 1007 615 996 613 1000 l 533 1083 b 515 1090 527 1088 521 1090 b 500 1085 509 1090 504 1088 l 403 986 l 304 1085 b 296 1088 301 1087 299 1088 b 289 1090 293 1089 291 1089 b 274 1083 281 1090 276 1088 l 197 1008 b 192 993 194 1006 192 1000 b 197 978 192 986 194 981 z "},"":{"ha":1024,"x_min":0,"x_max":0,"o":"m 594 242 b 488 262 556 241 520 247 b 403 321 455 276 427 296 b 349 409 380 346 362 375 b 329 518 336 443 329 479 b 348 626 329 557 335 593 b 401 713 360 660 378 689 b 485 772 425 738 453 757 b 594 793 518 786 555 793 b 678 778 625 793 653 788 b 747 742 703 769 726 756 b 770 734 755 736 762 734 b 789 746 778 734 784 738 l 904 911 b 894 950 913 926 910 939 b 758 1022 852 981 806 1005 b 592 1046 710 1038 655 1046 b 385 1005 519 1046 450 1032 b 216 892 320 978 264 940 b 103 725 168 845 131 789 b 61 518 75 661 61 592 b 103 311 61 445 75 376 b 217 141 131 246 169 190 b 388 26 266 92 323 54 b 594 -15 452 -1 521 -15 b 774 8 657 -15 717 -8 b 924 71 831 23 881 44 b 940 103 935 78 940 89 l 940 439 b 930 464 940 452 937 460 b 910 469 923 468 916 469 l 724 469 b 693 439 703 469 693 459 l 693 256 b 644 245 678 251 662 247 b 594 242 626 243 609 242 z m 761 1269 l 596 1438 b 586 1445 592 1441 589 1444 b 574 1447 583 1447 579 1447 b 561 1444 569 1447 565 1446 b 551 1438 557 1441 554 1439 l 383 1269 b 373 1249 377 1263 373 1256 b 383 1226 372 1241 376 1234 l 442 1171 b 464 1160 449 1163 456 1160 b 485 1171 471 1161 478 1164 l 572 1261 l 661 1172 b 682 1162 668 1166 675 1162 b 704 1172 689 1161 697 1165 l 761 1226 b 761 1269 776 1241 776 1256 z "},"":{"ha":876,"x_min":0,"x_max":0,"o":"m 786 39 l 786 642 b 774 670 786 654 782 663 b 744 681 765 677 756 681 l 635 681 b 604 675 620 681 610 679 b 592 640 599 671 594 660 l 583 582 b 558 622 580 595 571 608 b 510 660 544 636 528 649 b 453 688 492 671 473 680 b 394 699 432 695 413 699 b 257 672 344 699 299 690 b 149 596 215 653 179 628 b 80 482 119 563 96 525 b 56 339 64 438 56 391 b 81 201 56 289 64 243 b 150 92 97 159 120 122 b 257 20 180 61 215 37 b 394 -6 299 3 344 -6 l 401 -6 b 499 22 441 -6 474 3 b 560 76 525 40 545 58 l 560 72 b 558 35 560 60 559 48 b 554 4 557 23 556 13 b 535 -37 551 -12 545 -25 b 498 -68 525 -50 512 -60 b 452 -87 484 -76 468 -83 b 404 -93 436 -91 420 -93 b 335 -84 386 -93 363 -90 b 272 -60 308 -78 287 -70 b 246 -53 260 -55 251 -53 b 221 -69 237 -53 228 -58 l 168 -186 b 161 -210 163 -197 161 -205 b 169 -231 161 -218 164 -225 b 189 -246 175 -236 181 -241 b 303 -294 224 -268 262 -284 b 435 -308 344 -303 388 -308 b 585 -283 491 -308 541 -300 b 695 -212 628 -267 665 -243 b 763 -103 725 -182 748 -145 b 786 39 778 -60 786 -13 z m 301 336 b 334 428 301 372 312 403 b 419 467 356 454 384 467 b 509 428 456 467 485 454 b 544 336 533 403 544 372 b 509 244 544 299 533 268 b 419 207 485 219 456 207 b 334 244 384 207 356 219 b 301 336 312 268 301 299 z m 579 896 l 414 1064 b 404 1072 410 1068 407 1070 b 392 1074 401 1073 397 1074 b 379 1070 387 1074 383 1072 b 369 1064 375 1068 372 1066 l 201 896 b 191 875 195 889 191 882 b 201 853 191 868 194 860 l 260 797 b 282 787 267 790 275 786 b 303 797 289 787 296 791 l 390 888 l 479 799 b 500 788 486 792 493 789 b 522 799 507 788 515 791 l 579 853 b 590 875 587 860 590 868 b 579 896 589 882 586 889 z "},"":{"ha":1024,"x_min":0,"x_max":0,"o":"m 594 242 b 488 262 556 241 520 247 b 403 321 455 276 427 296 b 349 409 380 346 362 375 b 329 518 336 443 329 479 b 348 626 329 557 335 593 b 401 713 360 660 378 689 b 485 772 425 738 453 757 b 594 793 518 786 555 793 b 678 778 625 793 653 788 b 747 742 703 769 726 756 b 770 734 755 736 762 734 b 789 746 778 734 784 738 l 904 911 b 894 950 913 926 910 939 b 758 1022 852 981 806 1005 b 592 1046 710 1038 655 1046 b 385 1005 519 1046 450 1032 b 216 892 320 978 264 940 b 103 725 168 845 131 789 b 61 518 75 661 61 592 b 103 311 61 445 75 376 b 217 141 131 246 169 190 b 388 26 266 92 323 54 b 594 -15 452 -1 521 -15 b 774 8 657 -15 717 -8 b 924 71 831 23 881 44 b 940 103 935 78 940 89 l 940 439 b 930 464 940 452 937 460 b 910 469 923 468 916 469 l 724 469 b 693 439 703 469 693 459 l 693 256 b 644 245 678 251 662 247 b 594 242 626 243 609 242 z m 568 1182 b 645 1197 596 1182 622 1187 b 706 1236 669 1207 689 1220 b 747 1292 723 1252 737 1270 b 763 1357 757 1313 763 1335 b 755 1375 763 1364 760 1370 b 736 1382 750 1380 744 1382 l 635 1382 b 621 1367 625 1382 621 1377 b 608 1338 621 1356 616 1347 b 571 1325 599 1329 587 1325 b 532 1338 553 1325 540 1329 b 519 1367 524 1347 519 1356 b 504 1382 519 1377 514 1382 l 404 1382 b 385 1375 397 1382 391 1380 b 378 1357 380 1370 378 1364 b 392 1292 378 1335 383 1313 b 433 1237 402 1272 416 1253 b 493 1198 450 1221 470 1208 b 568 1182 516 1188 541 1183 z "},"":{"ha":876,"x_min":0,"x_max":0,"o":"m 786 39 l 786 642 b 774 670 786 654 782 663 b 744 681 765 677 756 681 l 635 681 b 604 675 620 681 610 679 b 592 640 599 671 594 660 l 583 582 b 558 622 580 595 571 608 b 510 660 544 636 528 649 b 453 688 492 671 473 680 b 394 699 432 695 413 699 b 257 672 344 699 299 690 b 149 596 215 653 179 628 b 80 482 119 563 96 525 b 56 339 64 438 56 391 b 81 201 56 289 64 243 b 150 92 97 159 120 122 b 257 20 180 61 215 37 b 394 -6 299 3 344 -6 l 401 -6 b 499 22 441 -6 474 3 b 560 76 525 40 545 58 l 560 72 b 558 35 560 60 559 48 b 554 4 557 23 556 13 b 535 -37 551 -12 545 -25 b 498 -68 525 -50 512 -60 b 452 -87 484 -76 468 -83 b 404 -93 436 -91 420 -93 b 335 -84 386 -93 363 -90 b 272 -60 308 -78 287 -70 b 246 -53 260 -55 251 -53 b 221 -69 237 -53 228 -58 l 168 -186 b 161 -210 163 -197 161 -205 b 169 -231 161 -218 164 -225 b 189 -246 175 -236 181 -241 b 303 -294 224 -268 262 -284 b 435 -308 344 -303 388 -308 b 585 -283 491 -308 541 -300 b 695 -212 628 -267 665 -243 b 763 -103 725 -182 748 -145 b 786 39 778 -60 786 -13 z m 301 336 b 334 428 301 372 312 403 b 419 467 356 454 384 467 b 509 428 456 467 485 454 b 544 336 533 403 544 372 b 509 244 544 299 533 268 b 419 207 485 219 456 207 b 334 244 384 207 356 219 b 301 336 312 268 301 299 z m 403 835 b 480 850 431 835 456 840 b 541 889 503 860 524 873 b 582 944 558 905 572 923 b 597 1010 592 966 597 988 b 590 1028 597 1017 595 1023 b 571 1035 584 1032 578 1035 l 469 1035 b 456 1019 460 1035 456 1030 b 442 991 456 1009 451 1000 b 406 978 434 982 421 978 b 367 991 388 978 375 982 b 354 1019 358 1000 354 1009 b 339 1035 354 1030 349 1035 l 239 1035 b 220 1028 231 1035 225 1032 b 213 1010 215 1023 213 1017 b 227 945 213 988 217 966 b 267 890 237 924 250 906 b 328 851 284 873 305 860 b 403 835 351 841 376 836 z "},"":{"ha":1024,"x_min":0,"x_max":0,"o":"m 594 242 b 488 262 556 241 520 247 b 403 321 455 276 427 296 b 349 409 380 346 362 375 b 329 518 336 443 329 479 b 348 626 329 557 335 593 b 401 713 360 660 378 689 b 485 772 425 738 453 757 b 594 793 518 786 555 793 b 678 778 625 793 653 788 b 747 742 703 769 726 756 b 770 734 755 736 762 734 b 789 746 778 734 784 738 l 904 911 b 894 950 913 926 910 939 b 758 1022 852 981 806 1005 b 592 1046 710 1038 655 1046 b 385 1005 519 1046 450 1032 b 216 892 320 978 264 940 b 103 725 168 845 131 789 b 61 518 75 661 61 592 b 103 311 61 445 75 376 b 217 141 131 246 169 190 b 388 26 266 92 323 54 b 594 -15 452 -1 521 -15 b 774 8 657 -15 717 -8 b 924 71 831 23 881 44 b 940 103 935 78 940 89 l 940 439 b 930 464 940 452 937 460 b 910 469 923 468 916 469 l 724 469 b 693 439 703 469 693 459 l 693 256 b 644 245 678 251 662 247 b 594 242 626 243 609 242 z m 458 1268 b 495 1178 458 1233 471 1203 b 583 1142 520 1154 549 1142 b 674 1178 619 1142 650 1154 b 710 1268 698 1203 710 1233 b 674 1358 710 1303 698 1333 b 583 1394 650 1382 619 1394 b 495 1358 549 1394 520 1382 b 458 1268 471 1333 458 1303 z "},"":{"ha":876,"x_min":0,"x_max":0,"o":"m 786 39 l 786 642 b 774 670 786 654 782 663 b 744 681 765 677 756 681 l 635 681 b 604 675 620 681 610 679 b 592 640 599 671 594 660 l 583 582 b 558 622 580 595 571 608 b 510 660 544 636 528 649 b 453 688 492 671 473 680 b 394 699 432 695 413 699 b 257 672 344 699 299 690 b 149 596 215 653 179 628 b 80 482 119 563 96 525 b 56 339 64 438 56 391 b 81 201 56 289 64 243 b 150 92 97 159 120 122 b 257 20 180 61 215 37 b 394 -6 299 3 344 -6 l 401 -6 b 499 22 441 -6 474 3 b 560 76 525 40 545 58 l 560 72 b 558 35 560 60 559 48 b 554 4 557 23 556 13 b 535 -37 551 -12 545 -25 b 498 -68 525 -50 512 -60 b 452 -87 484 -76 468 -83 b 404 -93 436 -91 420 -93 b 335 -84 386 -93 363 -90 b 272 -60 308 -78 287 -70 b 246 -53 260 -55 251 -53 b 221 -69 237 -53 228 -58 l 168 -186 b 161 -210 163 -197 161 -205 b 169 -231 161 -218 164 -225 b 189 -246 175 -236 181 -241 b 303 -294 224 -268 262 -284 b 435 -308 344 -303 388 -308 b 585 -283 491 -308 541 -300 b 695 -212 628 -267 665 -243 b 763 -103 725 -182 748 -145 b 786 39 778 -60 786 -13 z m 301 336 b 334 428 301 372 312 403 b 419 467 356 454 384 467 b 509 428 456 467 485 454 b 544 336 533 403 544 372 b 509 244 544 299 533 268 b 419 207 485 219 456 207 b 334 244 384 207 356 219 b 301 336 312 268 301 299 z m 269 928 b 306 838 269 893 282 863 b 394 801 331 814 360 801 b 485 838 431 801 461 814 b 521 928 509 863 521 893 b 485 1017 521 963 509 993 b 394 1054 461 1042 431 1054 b 306 1017 360 1054 331 1042 b 269 928 282 993 269 963 z "},"":{"ha":1024,"x_min":0,"x_max":0,"o":"m 594 242 b 488 262 556 241 520 247 b 403 321 455 276 427 296 b 349 409 380 346 362 375 b 329 518 336 443 329 479 b 348 626 329 557 335 593 b 401 713 360 660 378 689 b 485 772 425 738 453 757 b 594 793 518 786 555 793 b 678 778 625 793 653 788 b 747 742 703 769 726 756 b 770 734 755 736 762 734 b 789 746 778 734 784 738 l 904 911 b 894 950 913 926 910 939 b 758 1022 852 981 806 1005 b 592 1046 710 1038 655 1046 b 385 1005 519 1046 450 1032 b 216 892 320 978 264 940 b 103 725 168 845 131 789 b 61 518 75 661 61 592 b 103 311 61 445 75 376 b 217 141 131 246 169 190 b 388 26 266 92 323 54 b 594 -15 452 -1 521 -15 b 774 8 657 -15 717 -8 b 924 71 831 23 881 44 b 940 103 935 78 940 89 l 940 439 b 930 464 940 452 937 460 b 910 469 923 468 916 469 l 724 469 b 693 439 703 469 693 459 l 693 256 b 644 245 678 251 662 247 b 594 242 626 243 609 242 z m 463 -206 b 499 -117 463 -170 475 -141 b 588 -81 524 -93 553 -81 b 678 -117 625 -81 655 -93 b 714 -217 702 -142 714 -175 b 701 -332 714 -261 709 -300 b 669 -413 692 -364 681 -391 b 632 -462 657 -435 645 -451 b 600 -478 619 -472 608 -478 b 578 -471 593 -478 585 -475 l 549 -449 b 535 -419 539 -439 535 -430 b 540 -399 535 -411 537 -404 b 552 -382 544 -393 548 -387 b 564 -364 556 -376 560 -370 b 569 -339 568 -357 569 -349 l 569 -332 b 494 -288 541 -327 516 -313 b 463 -206 473 -264 463 -236 z "},"":{"ha":876,"x_min":0,"x_max":0,"o":"m 786 39 l 786 642 b 774 670 786 654 782 663 b 744 681 765 677 756 681 l 635 681 b 604 675 620 681 610 679 b 592 640 599 671 594 660 l 583 582 b 558 622 580 595 571 608 b 510 660 544 636 528 649 b 453 688 492 671 473 680 b 394 699 432 695 413 699 b 257 672 344 699 299 690 b 149 596 215 653 179 628 b 80 482 119 563 96 525 b 56 339 64 438 56 391 b 81 201 56 289 64 243 b 150 92 97 159 120 122 b 257 20 180 61 215 37 b 394 -6 299 3 344 -6 l 401 -6 b 499 22 441 -6 474 3 b 560 76 525 40 545 58 l 560 72 b 558 35 560 60 559 48 b 554 4 557 23 556 13 b 535 -37 551 -12 545 -25 b 498 -68 525 -50 512 -60 b 452 -87 484 -76 468 -83 b 404 -93 436 -91 420 -93 b 335 -84 386 -93 363 -90 b 272 -60 308 -78 287 -70 b 246 -53 260 -55 251 -53 b 221 -69 237 -53 228 -58 l 168 -186 b 161 -210 163 -197 161 -205 b 169 -231 161 -218 164 -225 b 189 -246 175 -236 181 -241 b 303 -294 224 -268 262 -284 b 435 -308 344 -303 388 -308 b 585 -283 491 -308 541 -300 b 695 -212 628 -267 665 -243 b 763 -103 725 -182 748 -145 b 786 39 778 -60 786 -13 z m 301 336 b 334 428 301 372 312 403 b 419 467 356 454 384 467 b 509 428 456 467 485 454 b 544 336 533 403 544 372 b 509 244 544 299 533 268 b 419 207 485 219 456 207 b 334 244 384 207 356 219 b 301 336 312 268 301 299 z m 521 878 b 490 960 521 908 510 936 b 415 1003 469 984 444 998 l 415 1010 b 421 1035 415 1020 417 1028 b 433 1053 425 1041 428 1047 b 444 1069 437 1058 441 1064 b 450 1089 448 1074 450 1081 b 436 1118 450 1099 445 1109 l 407 1140 b 385 1147 400 1145 393 1147 b 353 1131 376 1147 366 1142 b 317 1083 341 1121 329 1105 b 285 1003 305 1062 294 1035 b 272 889 277 970 272 932 b 308 791 272 848 284 816 b 397 754 331 766 361 754 b 485 790 431 754 461 766 b 521 878 509 813 521 843 z "},"":{"ha":1142,"x_min":0,"x_max":0,"o":"m 729 425 l 729 31 b 760 0 729 10 739 0 l 964 0 b 997 31 986 0 997 10 l 997 1001 b 987 1026 997 1014 994 1022 b 968 1031 980 1029 974 1031 l 760 1031 b 737 1022 750 1031 742 1028 b 729 1000 732 1016 729 1008 l 729 671 l 381 671 l 381 1001 b 371 1026 381 1014 377 1022 b 351 1031 364 1029 358 1031 l 143 1031 b 121 1022 133 1031 125 1028 b 114 1000 116 1016 114 1008 l 114 31 b 143 0 114 10 124 0 l 347 0 b 381 31 369 0 381 10 l 381 425 z m 725 1269 l 560 1438 b 550 1445 556 1441 553 1444 b 538 1447 547 1447 543 1447 b 525 1444 533 1447 529 1446 b 515 1438 521 1441 518 1439 l 347 1269 b 337 1249 341 1263 337 1256 b 347 1226 336 1241 340 1234 l 406 1171 b 428 1160 413 1163 420 1160 b 449 1171 435 1161 442 1164 l 536 1261 l 625 1172 b 646 1162 631 1166 638 1162 b 668 1172 653 1161 661 1165 l 725 1226 b 725 1269 740 1241 740 1256 z "},"":{"ha":868,"x_min":0,"x_max":0,"o":"m 336 33 l 336 31 l 336 33 l 336 371 b 350 409 337 385 342 397 b 381 438 358 421 369 430 b 421 457 394 446 407 452 b 460 464 435 462 448 464 b 534 436 487 464 511 455 b 568 365 557 418 568 394 l 568 33 b 604 0 568 11 580 0 l 778 0 b 803 9 788 0 796 3 b 813 35 809 15 813 24 l 813 336 l 813 366 b 811 396 813 376 812 386 b 788 512 808 438 800 476 b 733 605 775 547 756 578 b 649 667 710 631 682 652 b 532 690 615 683 576 690 b 411 664 486 690 445 681 b 336 614 377 646 352 630 l 336 994 b 325 1024 336 1010 332 1020 b 296 1031 318 1028 308 1031 l 126 1031 b 99 1020 113 1031 104 1027 b 90 994 93 1013 90 1005 l 90 35 b 129 0 90 12 103 0 l 281 0 b 316 4 291 0 303 1 b 336 33 329 7 336 17 z m 419 1178 l 254 1346 b 244 1353 250 1350 247 1352 b 232 1356 242 1355 238 1356 b 219 1352 227 1356 223 1354 b 210 1346 216 1350 213 1348 l 42 1178 b 31 1157 35 1171 32 1164 b 42 1135 31 1150 34 1142 l 100 1079 b 122 1069 107 1072 115 1068 b 143 1079 130 1069 137 1073 l 231 1169 l 319 1081 b 340 1070 326 1074 333 1071 b 363 1081 348 1070 355 1073 l 419 1135 b 430 1157 427 1142 430 1150 b 419 1178 429 1164 426 1171 z "},"":{"ha":1115,"x_min":0,"x_max":0,"o":"m 114 1000 l 114 26 b 143 0 114 9 124 0 l 347 0 b 382 31 370 0 382 10 l 382 328 l 728 328 l 728 31 b 758 0 728 10 738 0 l 964 0 b 988 8 974 0 982 3 b 997 31 994 13 997 20 l 997 1001 b 987 1024 997 1012 994 1019 b 963 1031 980 1028 972 1031 l 758 1031 b 736 1022 749 1031 742 1028 b 728 1000 731 1016 728 1008 l 728 868 l 382 868 l 382 1000 b 372 1022 382 1009 378 1017 b 350 1031 365 1028 357 1031 l 143 1031 b 122 1022 135 1031 128 1028 b 114 1000 117 1016 114 1008 z m 728 546 l 382 546 l 382 663 l 728 663 z "},"":{"ha":882,"x_min":0,"x_max":0,"o":"m 338 33 l 338 371 b 351 409 338 385 343 397 b 383 438 360 421 370 430 b 422 457 395 446 408 452 b 461 464 436 462 449 464 b 535 436 488 464 513 455 b 569 365 558 418 569 394 l 569 33 b 606 0 569 11 581 0 l 779 0 b 804 9 789 0 798 3 b 814 35 811 15 814 24 l 814 336 l 814 366 b 813 396 814 376 813 386 b 789 512 810 438 802 476 b 735 605 776 547 758 578 b 650 667 712 631 683 652 b 533 690 617 683 578 690 b 478 683 516 690 497 688 b 422 664 458 678 440 671 b 372 640 403 656 387 648 b 338 614 357 631 346 622 l 338 760 l 399 760 b 421 771 408 760 415 763 b 429 793 426 778 429 786 l 429 881 b 420 903 429 891 426 898 b 399 911 414 909 407 911 l 338 911 l 338 994 b 324 1022 338 1007 333 1017 b 294 1031 316 1028 306 1031 l 128 1031 b 100 1020 115 1031 106 1027 b 92 994 94 1013 92 1005 l 92 911 l 32 911 b 1 881 12 911 1 901 l 1 793 b 32 760 1 771 12 760 l 92 760 l 92 35 b 131 0 92 12 105 0 l 282 0 b 317 4 292 0 304 1 b 338 33 331 7 338 17 z "}}}
